<?xml version="1.0" encoding="utf-8" standalone="no"?>
<!DOCTYPE svg PUBLIC "-//W3C//DTD SVG 1.1//EN"
  "http://www.w3.org/Graphics/SVG/1.1/DTD/svg11.dtd">
<svg xmlns:xlink="http://www.w3.org/1999/xlink" width="640.8pt" height="367.037812pt" viewBox="0 0 640.8 367.037812" xmlns="http://www.w3.org/2000/svg" version="1.1">
 <metadata>
  <rdf:RDF xmlns:dc="http://purl.org/dc/elements/1.1/" xmlns:cc="http://creativecommons.org/ns#" xmlns:rdf="http://www.w3.org/1999/02/22-rdf-syntax-ns#">
   <cc:Work>
    <dc:type rdf:resource="http://purl.org/dc/dcmitype/StillImage"/>
    <dc:date>2026-06-04T13:49:50.833200</dc:date>
    <dc:format>image/svg+xml</dc:format>
    <dc:creator>
     <cc:Agent>
      <dc:title>Matplotlib v3.10.9, https://matplotlib.org/</dc:title>
     </cc:Agent>
    </dc:creator>
   </cc:Work>
  </rdf:RDF>
 </metadata>
 <defs>
  <style type="text/css">*{stroke-linejoin: round; stroke-linecap: butt}</style>
 </defs>
 <g id="figure_1">
  <g id="patch_1">
   <path d="M 0 367.037812 
L 640.8 367.037812 
L 640.8 0 
L 0 0 
z
" style="fill: #ffffff"/>
  </g>
  <g id="axes_1">
   <g id="patch_2">
    <path d="M 251.496 78.237812 
L 389.304 78.237812 
L 389.304 46.237812 
L 251.496 46.237812 
z
" clip-path="url(#peb92d81275)" style="fill: #fff2cc; stroke: #2f5597; stroke-width: 1.6"/>
   </g>
   <g id="patch_3">
    <path d="M 107.424 147.037812 
L 257.76 147.037812 
L 257.76 105.437812 
L 107.424 105.437812 
z
" clip-path="url(#peb92d81275)" style="fill: #e8f1ff; stroke: #2f5597; stroke-width: 1.6"/>
   </g>
   <g id="patch_4">
    <path d="M 383.04 147.037812 
L 533.376 147.037812 
L 533.376 105.437812 
L 383.04 105.437812 
z
" clip-path="url(#peb92d81275)" style="fill: #e8f6ef; stroke: #2f5597; stroke-width: 1.6"/>
   </g>
   <g id="patch_5">
    <path d="M 132.48 206.237812 
L 232.704 206.237812 
L 232.704 174.237812 
L 132.48 174.237812 
z
" clip-path="url(#peb92d81275)" style="fill: #ddebf7; stroke: #2f5597; stroke-width: 1.6"/>
   </g>
   <g id="patch_6">
    <path d="M 408.096 206.237812 
L 508.32 206.237812 
L 508.32 174.237812 
L 408.096 174.237812 
z
" clip-path="url(#peb92d81275)" style="fill: #d9ead3; stroke: #2f5597; stroke-width: 1.6"/>
   </g>
   <g id="patch_7">
    <path d="M 245.232 263.837812 
L 395.568 263.837812 
L 395.568 231.837812 
L 245.232 231.837812 
z
" clip-path="url(#peb92d81275)" style="fill: #fce4d6; stroke: #2f5597; stroke-width: 1.6"/>
   </g>
   <g id="patch_8">
    <path d="M 242.1 315.037812 
L 398.7 315.037812 
L 398.7 276.637812 
L 242.1 276.637812 
z
" clip-path="url(#peb92d81275)" style="fill: #eadcf8; stroke: #2f5597; stroke-width: 1.6"/>
   </g>
   <g id="patch_9">
    <path d="M 251.496 350.237812 
L 389.304 350.237812 
L 389.304 324.637812 
L 251.496 324.637812 
z
" clip-path="url(#peb92d81275)" style="fill: #f4cccc; stroke: #2f5597; stroke-width: 1.6"/>
   </g>
   <g id="text_1">
    <!-- Node features X -->
    <g transform="translate(284.122969 64.72125) scale(0.09 -0.09)">
     <defs>
      <path id="DejaVuSans-4e" d="M 628 4666 
L 1478 4666 
L 3547 763 
L 3547 4666 
L 4159 4666 
L 4159 0 
L 3309 0 
L 1241 3903 
L 1241 0 
L 628 0 
L 628 4666 
z
" transform="scale(0.015625)"/>
      <path id="DejaVuSans-6f" d="M 1959 3097 
Q 1497 3097 1228 2736 
Q 959 2375 959 1747 
Q 959 1119 1226 758 
Q 1494 397 1959 397 
Q 2419 397 2687 759 
Q 2956 1122 2956 1747 
Q 2956 2369 2687 2733 
Q 2419 3097 1959 3097 
z
M 1959 3584 
Q 2709 3584 3137 3096 
Q 3566 2609 3566 1747 
Q 3566 888 3137 398 
Q 2709 -91 1959 -91 
Q 1206 -91 779 398 
Q 353 888 353 1747 
Q 353 2609 779 3096 
Q 1206 3584 1959 3584 
z
" transform="scale(0.015625)"/>
      <path id="DejaVuSans-64" d="M 2906 2969 
L 2906 4863 
L 3481 4863 
L 3481 0 
L 2906 0 
L 2906 525 
Q 2725 213 2448 61 
Q 2172 -91 1784 -91 
Q 1150 -91 751 415 
Q 353 922 353 1747 
Q 353 2572 751 3078 
Q 1150 3584 1784 3584 
Q 2172 3584 2448 3432 
Q 2725 3281 2906 2969 
z
M 947 1747 
Q 947 1113 1208 752 
Q 1469 391 1925 391 
Q 2381 391 2643 752 
Q 2906 1113 2906 1747 
Q 2906 2381 2643 2742 
Q 2381 3103 1925 3103 
Q 1469 3103 1208 2742 
Q 947 2381 947 1747 
z
" transform="scale(0.015625)"/>
      <path id="DejaVuSans-65" d="M 3597 1894 
L 3597 1613 
L 953 1613 
Q 991 1019 1311 708 
Q 1631 397 2203 397 
Q 2534 397 2845 478 
Q 3156 559 3463 722 
L 3463 178 
Q 3153 47 2828 -22 
Q 2503 -91 2169 -91 
Q 1331 -91 842 396 
Q 353 884 353 1716 
Q 353 2575 817 3079 
Q 1281 3584 2069 3584 
Q 2775 3584 3186 3129 
Q 3597 2675 3597 1894 
z
M 3022 2063 
Q 3016 2534 2758 2815 
Q 2500 3097 2075 3097 
Q 1594 3097 1305 2825 
Q 1016 2553 972 2059 
L 3022 2063 
z
" transform="scale(0.015625)"/>
      <path id="DejaVuSans-20" transform="scale(0.015625)"/>
      <path id="DejaVuSans-66" d="M 2375 4863 
L 2375 4384 
L 1825 4384 
Q 1516 4384 1395 4259 
Q 1275 4134 1275 3809 
L 1275 3500 
L 2222 3500 
L 2222 3053 
L 1275 3053 
L 1275 0 
L 697 0 
L 697 3053 
L 147 3053 
L 147 3500 
L 697 3500 
L 697 3744 
Q 697 4328 969 4595 
Q 1241 4863 1831 4863 
L 2375 4863 
z
" transform="scale(0.015625)"/>
      <path id="DejaVuSans-61" d="M 2194 1759 
Q 1497 1759 1228 1600 
Q 959 1441 959 1056 
Q 959 750 1161 570 
Q 1363 391 1709 391 
Q 2188 391 2477 730 
Q 2766 1069 2766 1631 
L 2766 1759 
L 2194 1759 
z
M 3341 1997 
L 3341 0 
L 2766 0 
L 2766 531 
Q 2569 213 2275 61 
Q 1981 -91 1556 -91 
Q 1019 -91 701 211 
Q 384 513 384 1019 
Q 384 1609 779 1909 
Q 1175 2209 1959 2209 
L 2766 2209 
L 2766 2266 
Q 2766 2663 2505 2880 
Q 2244 3097 1772 3097 
Q 1472 3097 1187 3025 
Q 903 2953 641 2809 
L 641 3341 
Q 956 3463 1253 3523 
Q 1550 3584 1831 3584 
Q 2591 3584 2966 3190 
Q 3341 2797 3341 1997 
z
" transform="scale(0.015625)"/>
      <path id="DejaVuSans-74" d="M 1172 4494 
L 1172 3500 
L 2356 3500 
L 2356 3053 
L 1172 3053 
L 1172 1153 
Q 1172 725 1289 603 
Q 1406 481 1766 481 
L 2356 481 
L 2356 0 
L 1766 0 
Q 1100 0 847 248 
Q 594 497 594 1153 
L 594 3053 
L 172 3053 
L 172 3500 
L 594 3500 
L 594 4494 
L 1172 4494 
z
" transform="scale(0.015625)"/>
      <path id="DejaVuSans-75" d="M 544 1381 
L 544 3500 
L 1119 3500 
L 1119 1403 
Q 1119 906 1312 657 
Q 1506 409 1894 409 
Q 2359 409 2629 706 
Q 2900 1003 2900 1516 
L 2900 3500 
L 3475 3500 
L 3475 0 
L 2900 0 
L 2900 538 
Q 2691 219 2414 64 
Q 2138 -91 1772 -91 
Q 1169 -91 856 284 
Q 544 659 544 1381 
z
M 1991 3584 
L 1991 3584 
z
" transform="scale(0.015625)"/>
      <path id="DejaVuSans-72" d="M 2631 2963 
Q 2534 3019 2420 3045 
Q 2306 3072 2169 3072 
Q 1681 3072 1420 2755 
Q 1159 2438 1159 1844 
L 1159 0 
L 581 0 
L 581 3500 
L 1159 3500 
L 1159 2956 
Q 1341 3275 1631 3429 
Q 1922 3584 2338 3584 
Q 2397 3584 2469 3576 
Q 2541 3569 2628 3553 
L 2631 2963 
z
" transform="scale(0.015625)"/>
      <path id="DejaVuSans-73" d="M 2834 3397 
L 2834 2853 
Q 2591 2978 2328 3040 
Q 2066 3103 1784 3103 
Q 1356 3103 1142 2972 
Q 928 2841 928 2578 
Q 928 2378 1081 2264 
Q 1234 2150 1697 2047 
L 1894 2003 
Q 2506 1872 2764 1633 
Q 3022 1394 3022 966 
Q 3022 478 2636 193 
Q 2250 -91 1575 -91 
Q 1294 -91 989 -36 
Q 684 19 347 128 
L 347 722 
Q 666 556 975 473 
Q 1284 391 1588 391 
Q 1994 391 2212 530 
Q 2431 669 2431 922 
Q 2431 1156 2273 1281 
Q 2116 1406 1581 1522 
L 1381 1569 
Q 847 1681 609 1914 
Q 372 2147 372 2553 
Q 372 3047 722 3315 
Q 1072 3584 1716 3584 
Q 2034 3584 2315 3537 
Q 2597 3491 2834 3397 
z
" transform="scale(0.015625)"/>
      <path id="DejaVuSans-58" d="M 403 4666 
L 1081 4666 
L 2241 2931 
L 3406 4666 
L 4084 4666 
L 2584 2425 
L 4184 0 
L 3506 0 
L 2194 1984 
L 872 0 
L 191 0 
L 1856 2491 
L 403 4666 
z
" transform="scale(0.015625)"/>
     </defs>
     <use xlink:href="#DejaVuSans-4e"/>
     <use xlink:href="#DejaVuSans-6f" transform="translate(74.804688 0)"/>
     <use xlink:href="#DejaVuSans-64" transform="translate(135.986328 0)"/>
     <use xlink:href="#DejaVuSans-65" transform="translate(199.462891 0)"/>
     <use xlink:href="#DejaVuSans-20" transform="translate(260.986328 0)"/>
     <use xlink:href="#DejaVuSans-66" transform="translate(292.773438 0)"/>
     <use xlink:href="#DejaVuSans-65" transform="translate(327.978516 0)"/>
     <use xlink:href="#DejaVuSans-61" transform="translate(389.501953 0)"/>
     <use xlink:href="#DejaVuSans-74" transform="translate(450.78125 0)"/>
     <use xlink:href="#DejaVuSans-75" transform="translate(489.990234 0)"/>
     <use xlink:href="#DejaVuSans-72" transform="translate(553.369141 0)"/>
     <use xlink:href="#DejaVuSans-65" transform="translate(592.232422 0)"/>
     <use xlink:href="#DejaVuSans-73" transform="translate(653.755859 0)"/>
     <use xlink:href="#DejaVuSans-20" transform="translate(705.855469 0)"/>
     <use xlink:href="#DejaVuSans-58" transform="translate(737.642578 0)"/>
    </g>
   </g>
   <g id="text_2">
    <!-- GCN branch -->
    <g transform="translate(155.523797 123.682234) scale(0.09 -0.09)">
     <defs>
      <path id="DejaVuSans-47" d="M 3809 666 
L 3809 1919 
L 2778 1919 
L 2778 2438 
L 4434 2438 
L 4434 434 
Q 4069 175 3628 42 
Q 3188 -91 2688 -91 
Q 1594 -91 976 548 
Q 359 1188 359 2328 
Q 359 3472 976 4111 
Q 1594 4750 2688 4750 
Q 3144 4750 3555 4637 
Q 3966 4525 4313 4306 
L 4313 3634 
Q 3963 3931 3569 4081 
Q 3175 4231 2741 4231 
Q 1884 4231 1454 3753 
Q 1025 3275 1025 2328 
Q 1025 1384 1454 906 
Q 1884 428 2741 428 
Q 3075 428 3337 486 
Q 3600 544 3809 666 
z
" transform="scale(0.015625)"/>
      <path id="DejaVuSans-43" d="M 4122 4306 
L 4122 3641 
Q 3803 3938 3442 4084 
Q 3081 4231 2675 4231 
Q 1875 4231 1450 3742 
Q 1025 3253 1025 2328 
Q 1025 1406 1450 917 
Q 1875 428 2675 428 
Q 3081 428 3442 575 
Q 3803 722 4122 1019 
L 4122 359 
Q 3791 134 3420 21 
Q 3050 -91 2638 -91 
Q 1578 -91 968 557 
Q 359 1206 359 2328 
Q 359 3453 968 4101 
Q 1578 4750 2638 4750 
Q 3056 4750 3426 4639 
Q 3797 4528 4122 4306 
z
" transform="scale(0.015625)"/>
      <path id="DejaVuSans-62" d="M 3116 1747 
Q 3116 2381 2855 2742 
Q 2594 3103 2138 3103 
Q 1681 3103 1420 2742 
Q 1159 2381 1159 1747 
Q 1159 1113 1420 752 
Q 1681 391 2138 391 
Q 2594 391 2855 752 
Q 3116 1113 3116 1747 
z
M 1159 2969 
Q 1341 3281 1617 3432 
Q 1894 3584 2278 3584 
Q 2916 3584 3314 3078 
Q 3713 2572 3713 1747 
Q 3713 922 3314 415 
Q 2916 -91 2278 -91 
Q 1894 -91 1617 61 
Q 1341 213 1159 525 
L 1159 0 
L 581 0 
L 581 4863 
L 1159 4863 
L 1159 2969 
z
" transform="scale(0.015625)"/>
      <path id="DejaVuSans-6e" d="M 3513 2113 
L 3513 0 
L 2938 0 
L 2938 2094 
Q 2938 2591 2744 2837 
Q 2550 3084 2163 3084 
Q 1697 3084 1428 2787 
Q 1159 2491 1159 1978 
L 1159 0 
L 581 0 
L 581 3500 
L 1159 3500 
L 1159 2956 
Q 1366 3272 1645 3428 
Q 1925 3584 2291 3584 
Q 2894 3584 3203 3211 
Q 3513 2838 3513 2113 
z
" transform="scale(0.015625)"/>
      <path id="DejaVuSans-63" d="M 3122 3366 
L 3122 2828 
Q 2878 2963 2633 3030 
Q 2388 3097 2138 3097 
Q 1578 3097 1268 2742 
Q 959 2388 959 1747 
Q 959 1106 1268 751 
Q 1578 397 2138 397 
Q 2388 397 2633 464 
Q 2878 531 3122 666 
L 3122 134 
Q 2881 22 2623 -34 
Q 2366 -91 2075 -91 
Q 1284 -91 818 406 
Q 353 903 353 1747 
Q 353 2603 823 3093 
Q 1294 3584 2113 3584 
Q 2378 3584 2631 3529 
Q 2884 3475 3122 3366 
z
" transform="scale(0.015625)"/>
      <path id="DejaVuSans-68" d="M 3513 2113 
L 3513 0 
L 2938 0 
L 2938 2094 
Q 2938 2591 2744 2837 
Q 2550 3084 2163 3084 
Q 1697 3084 1428 2787 
Q 1159 2491 1159 1978 
L 1159 0 
L 581 0 
L 581 4863 
L 1159 4863 
L 1159 2956 
Q 1366 3272 1645 3428 
Q 1925 3584 2291 3584 
Q 2894 3584 3203 3211 
Q 3513 2838 3513 2113 
z
" transform="scale(0.015625)"/>
     </defs>
     <use xlink:href="#DejaVuSans-47"/>
     <use xlink:href="#DejaVuSans-43" transform="translate(77.490234 0)"/>
     <use xlink:href="#DejaVuSans-4e" transform="translate(147.314453 0)"/>
     <use xlink:href="#DejaVuSans-20" transform="translate(222.119141 0)"/>
     <use xlink:href="#DejaVuSans-62" transform="translate(253.90625 0)"/>
     <use xlink:href="#DejaVuSans-72" transform="translate(317.382812 0)"/>
     <use xlink:href="#DejaVuSans-61" transform="translate(358.496094 0)"/>
     <use xlink:href="#DejaVuSans-6e" transform="translate(419.775391 0)"/>
     <use xlink:href="#DejaVuSans-63" transform="translate(483.154297 0)"/>
     <use xlink:href="#DejaVuSans-68" transform="translate(538.134766 0)"/>
    </g>
    <!-- stable representation -->
    <g transform="translate(134.421609 133.760266) scale(0.09 -0.09)">
     <defs>
      <path id="DejaVuSans-6c" d="M 603 4863 
L 1178 4863 
L 1178 0 
L 603 0 
L 603 4863 
z
" transform="scale(0.015625)"/>
      <path id="DejaVuSans-70" d="M 1159 525 
L 1159 -1331 
L 581 -1331 
L 581 3500 
L 1159 3500 
L 1159 2969 
Q 1341 3281 1617 3432 
Q 1894 3584 2278 3584 
Q 2916 3584 3314 3078 
Q 3713 2572 3713 1747 
Q 3713 922 3314 415 
Q 2916 -91 2278 -91 
Q 1894 -91 1617 61 
Q 1341 213 1159 525 
z
M 3116 1747 
Q 3116 2381 2855 2742 
Q 2594 3103 2138 3103 
Q 1681 3103 1420 2742 
Q 1159 2381 1159 1747 
Q 1159 1113 1420 752 
Q 1681 391 2138 391 
Q 2594 391 2855 752 
Q 3116 1113 3116 1747 
z
" transform="scale(0.015625)"/>
      <path id="DejaVuSans-69" d="M 603 3500 
L 1178 3500 
L 1178 0 
L 603 0 
L 603 3500 
z
M 603 4863 
L 1178 4863 
L 1178 4134 
L 603 4134 
L 603 4863 
z
" transform="scale(0.015625)"/>
     </defs>
     <use xlink:href="#DejaVuSans-73"/>
     <use xlink:href="#DejaVuSans-74" transform="translate(52.099609 0)"/>
     <use xlink:href="#DejaVuSans-61" transform="translate(91.308594 0)"/>
     <use xlink:href="#DejaVuSans-62" transform="translate(152.587891 0)"/>
     <use xlink:href="#DejaVuSans-6c" transform="translate(216.064453 0)"/>
     <use xlink:href="#DejaVuSans-65" transform="translate(243.847656 0)"/>
     <use xlink:href="#DejaVuSans-20" transform="translate(305.371094 0)"/>
     <use xlink:href="#DejaVuSans-72" transform="translate(337.158203 0)"/>
     <use xlink:href="#DejaVuSans-65" transform="translate(376.021484 0)"/>
     <use xlink:href="#DejaVuSans-70" transform="translate(437.544922 0)"/>
     <use xlink:href="#DejaVuSans-72" transform="translate(501.021484 0)"/>
     <use xlink:href="#DejaVuSans-65" transform="translate(539.884766 0)"/>
     <use xlink:href="#DejaVuSans-73" transform="translate(601.408203 0)"/>
     <use xlink:href="#DejaVuSans-65" transform="translate(653.507812 0)"/>
     <use xlink:href="#DejaVuSans-6e" transform="translate(715.03125 0)"/>
     <use xlink:href="#DejaVuSans-74" transform="translate(778.410156 0)"/>
     <use xlink:href="#DejaVuSans-61" transform="translate(817.619141 0)"/>
     <use xlink:href="#DejaVuSans-74" transform="translate(878.898438 0)"/>
     <use xlink:href="#DejaVuSans-69" transform="translate(918.107422 0)"/>
     <use xlink:href="#DejaVuSans-6f" transform="translate(945.890625 0)"/>
     <use xlink:href="#DejaVuSans-6e" transform="translate(1007.072266 0)"/>
    </g>
   </g>
   <g id="text_3">
    <!-- TEG branch -->
    <g transform="translate(432.056672 123.557078) scale(0.09 -0.09)">
     <defs>
      <path id="DejaVuSans-54" d="M -19 4666 
L 3928 4666 
L 3928 4134 
L 2272 4134 
L 2272 0 
L 1638 0 
L 1638 4134 
L -19 4134 
L -19 4666 
z
" transform="scale(0.015625)"/>
      <path id="DejaVuSans-45" d="M 628 4666 
L 3578 4666 
L 3578 4134 
L 1259 4134 
L 1259 2753 
L 3481 2753 
L 3481 2222 
L 1259 2222 
L 1259 531 
L 3634 531 
L 3634 0 
L 628 0 
L 628 4666 
z
" transform="scale(0.015625)"/>
     </defs>
     <use xlink:href="#DejaVuSans-54"/>
     <use xlink:href="#DejaVuSans-45" transform="translate(61.083984 0)"/>
     <use xlink:href="#DejaVuSans-47" transform="translate(124.267578 0)"/>
     <use xlink:href="#DejaVuSans-20" transform="translate(201.757812 0)"/>
     <use xlink:href="#DejaVuSans-62" transform="translate(233.544922 0)"/>
     <use xlink:href="#DejaVuSans-72" transform="translate(297.021484 0)"/>
     <use xlink:href="#DejaVuSans-61" transform="translate(338.134766 0)"/>
     <use xlink:href="#DejaVuSans-6e" transform="translate(399.414062 0)"/>
     <use xlink:href="#DejaVuSans-63" transform="translate(462.792969 0)"/>
     <use xlink:href="#DejaVuSans-68" transform="translate(517.773438 0)"/>
    </g>
    <!-- X + edge_attribute -->
    <g transform="translate(415.365187 133.635109) scale(0.09 -0.09)">
     <defs>
      <path id="DejaVuSans-2b" d="M 2944 4013 
L 2944 2272 
L 4684 2272 
L 4684 1741 
L 2944 1741 
L 2944 0 
L 2419 0 
L 2419 1741 
L 678 1741 
L 678 2272 
L 2419 2272 
L 2419 4013 
L 2944 4013 
z
" transform="scale(0.015625)"/>
      <path id="DejaVuSans-67" d="M 2906 1791 
Q 2906 2416 2648 2759 
Q 2391 3103 1925 3103 
Q 1463 3103 1205 2759 
Q 947 2416 947 1791 
Q 947 1169 1205 825 
Q 1463 481 1925 481 
Q 2391 481 2648 825 
Q 2906 1169 2906 1791 
z
M 3481 434 
Q 3481 -459 3084 -895 
Q 2688 -1331 1869 -1331 
Q 1566 -1331 1297 -1286 
Q 1028 -1241 775 -1147 
L 775 -588 
Q 1028 -725 1275 -790 
Q 1522 -856 1778 -856 
Q 2344 -856 2625 -561 
Q 2906 -266 2906 331 
L 2906 616 
Q 2728 306 2450 153 
Q 2172 0 1784 0 
Q 1141 0 747 490 
Q 353 981 353 1791 
Q 353 2603 747 3093 
Q 1141 3584 1784 3584 
Q 2172 3584 2450 3431 
Q 2728 3278 2906 2969 
L 2906 3500 
L 3481 3500 
L 3481 434 
z
" transform="scale(0.015625)"/>
      <path id="DejaVuSans-5f" d="M 3263 -1063 
L 3263 -1509 
L -63 -1509 
L -63 -1063 
L 3263 -1063 
z
" transform="scale(0.015625)"/>
     </defs>
     <use xlink:href="#DejaVuSans-58"/>
     <use xlink:href="#DejaVuSans-20" transform="translate(68.505859 0)"/>
     <use xlink:href="#DejaVuSans-2b" transform="translate(100.292969 0)"/>
     <use xlink:href="#DejaVuSans-20" transform="translate(184.082031 0)"/>
     <use xlink:href="#DejaVuSans-65" transform="translate(215.869141 0)"/>
     <use xlink:href="#DejaVuSans-64" transform="translate(277.392578 0)"/>
     <use xlink:href="#DejaVuSans-67" transform="translate(340.869141 0)"/>
     <use xlink:href="#DejaVuSans-65" transform="translate(404.345703 0)"/>
     <use xlink:href="#DejaVuSans-5f" transform="translate(465.869141 0)"/>
     <use xlink:href="#DejaVuSans-61" transform="translate(515.869141 0)"/>
     <use xlink:href="#DejaVuSans-74" transform="translate(577.148438 0)"/>
     <use xlink:href="#DejaVuSans-74" transform="translate(616.357422 0)"/>
     <use xlink:href="#DejaVuSans-72" transform="translate(655.566406 0)"/>
     <use xlink:href="#DejaVuSans-69" transform="translate(696.679688 0)"/>
     <use xlink:href="#DejaVuSans-62" transform="translate(724.462891 0)"/>
     <use xlink:href="#DejaVuSans-75" transform="translate(787.939453 0)"/>
     <use xlink:href="#DejaVuSans-74" transform="translate(851.318359 0)"/>
     <use xlink:href="#DejaVuSans-65" transform="translate(890.527344 0)"/>
    </g>
   </g>
   <g id="text_4">
    <!-- H_gcn -->
    <g transform="translate(168.774891 192.470937) scale(0.09 -0.09)">
     <defs>
      <path id="DejaVuSans-48" d="M 628 4666 
L 1259 4666 
L 1259 2753 
L 3553 2753 
L 3553 4666 
L 4184 4666 
L 4184 0 
L 3553 0 
L 3553 2222 
L 1259 2222 
L 1259 0 
L 628 0 
L 628 4666 
z
" transform="scale(0.015625)"/>
     </defs>
     <use xlink:href="#DejaVuSans-48"/>
     <use xlink:href="#DejaVuSans-5f" transform="translate(75.195312 0)"/>
     <use xlink:href="#DejaVuSans-67" transform="translate(125.195312 0)"/>
     <use xlink:href="#DejaVuSans-63" transform="translate(188.671875 0)"/>
     <use xlink:href="#DejaVuSans-6e" transform="translate(243.652344 0)"/>
    </g>
   </g>
   <g id="text_5">
    <!-- H_teg -->
    <g transform="translate(445.184016 192.470937) scale(0.09 -0.09)">
     <use xlink:href="#DejaVuSans-48"/>
     <use xlink:href="#DejaVuSans-5f" transform="translate(75.195312 0)"/>
     <use xlink:href="#DejaVuSans-74" transform="translate(125.195312 0)"/>
     <use xlink:href="#DejaVuSans-65" transform="translate(164.404297 0)"/>
     <use xlink:href="#DejaVuSans-67" transform="translate(225.927734 0)"/>
    </g>
   </g>
   <g id="text_6">
    <!-- [H_gcn || H_teg] -->
    <g transform="translate(284.155312 250.215781) scale(0.09 -0.09)">
     <defs>
      <path id="DejaVuSans-5b" d="M 550 4863 
L 1875 4863 
L 1875 4416 
L 1125 4416 
L 1125 -397 
L 1875 -397 
L 1875 -844 
L 550 -844 
L 550 4863 
z
" transform="scale(0.015625)"/>
      <path id="DejaVuSans-7c" d="M 1344 4891 
L 1344 -1509 
L 813 -1509 
L 813 4891 
L 1344 4891 
z
" transform="scale(0.015625)"/>
      <path id="DejaVuSans-5d" d="M 1947 4863 
L 1947 -844 
L 622 -844 
L 622 -397 
L 1369 -397 
L 1369 4416 
L 622 4416 
L 622 4863 
L 1947 4863 
z
" transform="scale(0.015625)"/>
     </defs>
     <use xlink:href="#DejaVuSans-5b"/>
     <use xlink:href="#DejaVuSans-48" transform="translate(39.013672 0)"/>
     <use xlink:href="#DejaVuSans-5f" transform="translate(114.208984 0)"/>
     <use xlink:href="#DejaVuSans-67" transform="translate(164.208984 0)"/>
     <use xlink:href="#DejaVuSans-63" transform="translate(227.685547 0)"/>
     <use xlink:href="#DejaVuSans-6e" transform="translate(282.666016 0)"/>
     <use xlink:href="#DejaVuSans-20" transform="translate(346.044922 0)"/>
     <use xlink:href="#DejaVuSans-7c" transform="translate(377.832031 0)"/>
     <use xlink:href="#DejaVuSans-7c" transform="translate(411.523438 0)"/>
     <use xlink:href="#DejaVuSans-20" transform="translate(445.214844 0)"/>
     <use xlink:href="#DejaVuSans-48" transform="translate(477.001953 0)"/>
     <use xlink:href="#DejaVuSans-5f" transform="translate(552.197266 0)"/>
     <use xlink:href="#DejaVuSans-74" transform="translate(602.197266 0)"/>
     <use xlink:href="#DejaVuSans-65" transform="translate(641.40625 0)"/>
     <use xlink:href="#DejaVuSans-67" transform="translate(702.929688 0)"/>
     <use xlink:href="#DejaVuSans-5d" transform="translate(766.40625 0)"/>
    </g>
   </g>
   <g id="text_7">
    <!-- MLP classifier -->
    <g transform="translate(289.992656 293.157078) scale(0.09 -0.09)">
     <defs>
      <path id="DejaVuSans-4d" d="M 628 4666 
L 1569 4666 
L 2759 1491 
L 3956 4666 
L 4897 4666 
L 4897 0 
L 4281 0 
L 4281 4097 
L 3078 897 
L 2444 897 
L 1241 4097 
L 1241 0 
L 628 0 
L 628 4666 
z
" transform="scale(0.015625)"/>
      <path id="DejaVuSans-4c" d="M 628 4666 
L 1259 4666 
L 1259 531 
L 3531 531 
L 3531 0 
L 628 0 
L 628 4666 
z
" transform="scale(0.015625)"/>
      <path id="DejaVuSans-50" d="M 1259 4147 
L 1259 2394 
L 2053 2394 
Q 2494 2394 2734 2622 
Q 2975 2850 2975 3272 
Q 2975 3691 2734 3919 
Q 2494 4147 2053 4147 
L 1259 4147 
z
M 628 4666 
L 2053 4666 
Q 2838 4666 3239 4311 
Q 3641 3956 3641 3272 
Q 3641 2581 3239 2228 
Q 2838 1875 2053 1875 
L 1259 1875 
L 1259 0 
L 628 0 
L 628 4666 
z
" transform="scale(0.015625)"/>
     </defs>
     <use xlink:href="#DejaVuSans-4d"/>
     <use xlink:href="#DejaVuSans-4c" transform="translate(86.279297 0)"/>
     <use xlink:href="#DejaVuSans-50" transform="translate(141.992188 0)"/>
     <use xlink:href="#DejaVuSans-20" transform="translate(202.294922 0)"/>
     <use xlink:href="#DejaVuSans-63" transform="translate(234.082031 0)"/>
     <use xlink:href="#DejaVuSans-6c" transform="translate(289.0625 0)"/>
     <use xlink:href="#DejaVuSans-61" transform="translate(316.845703 0)"/>
     <use xlink:href="#DejaVuSans-73" transform="translate(378.125 0)"/>
     <use xlink:href="#DejaVuSans-73" transform="translate(430.224609 0)"/>
     <use xlink:href="#DejaVuSans-69" transform="translate(482.324219 0)"/>
     <use xlink:href="#DejaVuSans-66" transform="translate(510.107422 0)"/>
     <use xlink:href="#DejaVuSans-69" transform="translate(545.3125 0)"/>
     <use xlink:href="#DejaVuSans-65" transform="translate(573.095703 0)"/>
     <use xlink:href="#DejaVuSans-72" transform="translate(634.619141 0)"/>
    </g>
    <!-- p_i,1 ... p_i,8 -->
    <g transform="translate(291.94875 303.235109) scale(0.09 -0.09)">
     <defs>
      <path id="DejaVuSans-2c" d="M 750 794 
L 1409 794 
L 1409 256 
L 897 -744 
L 494 -744 
L 750 256 
L 750 794 
z
" transform="scale(0.015625)"/>
      <path id="DejaVuSans-31" d="M 794 531 
L 1825 531 
L 1825 4091 
L 703 3866 
L 703 4441 
L 1819 4666 
L 2450 4666 
L 2450 531 
L 3481 531 
L 3481 0 
L 794 0 
L 794 531 
z
" transform="scale(0.015625)"/>
      <path id="DejaVuSans-2e" d="M 684 794 
L 1344 794 
L 1344 0 
L 684 0 
L 684 794 
z
" transform="scale(0.015625)"/>
      <path id="DejaVuSans-38" d="M 2034 2216 
Q 1584 2216 1326 1975 
Q 1069 1734 1069 1313 
Q 1069 891 1326 650 
Q 1584 409 2034 409 
Q 2484 409 2743 651 
Q 3003 894 3003 1313 
Q 3003 1734 2745 1975 
Q 2488 2216 2034 2216 
z
M 1403 2484 
Q 997 2584 770 2862 
Q 544 3141 544 3541 
Q 544 4100 942 4425 
Q 1341 4750 2034 4750 
Q 2731 4750 3128 4425 
Q 3525 4100 3525 3541 
Q 3525 3141 3298 2862 
Q 3072 2584 2669 2484 
Q 3125 2378 3379 2068 
Q 3634 1759 3634 1313 
Q 3634 634 3220 271 
Q 2806 -91 2034 -91 
Q 1263 -91 848 271 
Q 434 634 434 1313 
Q 434 1759 690 2068 
Q 947 2378 1403 2484 
z
M 1172 3481 
Q 1172 3119 1398 2916 
Q 1625 2713 2034 2713 
Q 2441 2713 2670 2916 
Q 2900 3119 2900 3481 
Q 2900 3844 2670 4047 
Q 2441 4250 2034 4250 
Q 1625 4250 1398 4047 
Q 1172 3844 1172 3481 
z
" transform="scale(0.015625)"/>
     </defs>
     <use xlink:href="#DejaVuSans-70"/>
     <use xlink:href="#DejaVuSans-5f" transform="translate(63.476562 0)"/>
     <use xlink:href="#DejaVuSans-69" transform="translate(113.476562 0)"/>
     <use xlink:href="#DejaVuSans-2c" transform="translate(141.259766 0)"/>
     <use xlink:href="#DejaVuSans-31" transform="translate(173.046875 0)"/>
     <use xlink:href="#DejaVuSans-20" transform="translate(236.669922 0)"/>
     <use xlink:href="#DejaVuSans-2e" transform="translate(268.457031 0)"/>
     <use xlink:href="#DejaVuSans-2e" transform="translate(300.244141 0)"/>
     <use xlink:href="#DejaVuSans-2e" transform="translate(332.03125 0)"/>
     <use xlink:href="#DejaVuSans-20" transform="translate(363.818359 0)"/>
     <use xlink:href="#DejaVuSans-70" transform="translate(395.605469 0)"/>
     <use xlink:href="#DejaVuSans-5f" transform="translate(459.082031 0)"/>
     <use xlink:href="#DejaVuSans-69" transform="translate(509.082031 0)"/>
     <use xlink:href="#DejaVuSans-2c" transform="translate(536.865234 0)"/>
     <use xlink:href="#DejaVuSans-38" transform="translate(568.652344 0)"/>
    </g>
   </g>
   <g id="text_8">
    <!-- S_i and P_high -->
    <g transform="translate(287.942344 339.796094) scale(0.09 -0.09)">
     <defs>
      <path id="DejaVuSans-53" d="M 3425 4513 
L 3425 3897 
Q 3066 4069 2747 4153 
Q 2428 4238 2131 4238 
Q 1616 4238 1336 4038 
Q 1056 3838 1056 3469 
Q 1056 3159 1242 3001 
Q 1428 2844 1947 2747 
L 2328 2669 
Q 3034 2534 3370 2195 
Q 3706 1856 3706 1288 
Q 3706 609 3251 259 
Q 2797 -91 1919 -91 
Q 1588 -91 1214 -16 
Q 841 59 441 206 
L 441 856 
Q 825 641 1194 531 
Q 1563 422 1919 422 
Q 2459 422 2753 634 
Q 3047 847 3047 1241 
Q 3047 1584 2836 1778 
Q 2625 1972 2144 2069 
L 1759 2144 
Q 1053 2284 737 2584 
Q 422 2884 422 3419 
Q 422 4038 858 4394 
Q 1294 4750 2059 4750 
Q 2388 4750 2728 4690 
Q 3069 4631 3425 4513 
z
" transform="scale(0.015625)"/>
     </defs>
     <use xlink:href="#DejaVuSans-53"/>
     <use xlink:href="#DejaVuSans-5f" transform="translate(63.476562 0)"/>
     <use xlink:href="#DejaVuSans-69" transform="translate(113.476562 0)"/>
     <use xlink:href="#DejaVuSans-20" transform="translate(141.259766 0)"/>
     <use xlink:href="#DejaVuSans-61" transform="translate(173.046875 0)"/>
     <use xlink:href="#DejaVuSans-6e" transform="translate(234.326172 0)"/>
     <use xlink:href="#DejaVuSans-64" transform="translate(297.705078 0)"/>
     <use xlink:href="#DejaVuSans-20" transform="translate(361.181641 0)"/>
     <use xlink:href="#DejaVuSans-50" transform="translate(392.96875 0)"/>
     <use xlink:href="#DejaVuSans-5f" transform="translate(453.271484 0)"/>
     <use xlink:href="#DejaVuSans-68" transform="translate(503.271484 0)"/>
     <use xlink:href="#DejaVuSans-69" transform="translate(566.650391 0)"/>
     <use xlink:href="#DejaVuSans-67" transform="translate(594.433594 0)"/>
     <use xlink:href="#DejaVuSans-68" transform="translate(657.910156 0)"/>
    </g>
   </g>
   <g id="patch_10">
    <path d="M 287.173923 78.837031 
Q 248.365962 91.037196 211.157857 102.734409 
" style="fill: none; stroke: #404040; stroke-width: 1.5; stroke-linecap: round"/>
    <path d="M 215.573541 103.442741 
L 211.157857 102.734409 
L 214.373933 99.626861 
" style="fill: none; stroke: #404040; stroke-width: 1.5; stroke-linecap: round"/>
   </g>
   <g id="patch_11">
    <path d="M 353.626077 78.837031 
Q 392.434038 91.037196 429.642143 102.734409 
" style="fill: none; stroke: #404040; stroke-width: 1.5; stroke-linecap: round"/>
    <path d="M 426.426067 99.626861 
L 429.642143 102.734409 
L 425.226459 103.442741 
" style="fill: none; stroke: #404040; stroke-width: 1.5; stroke-linecap: round"/>
   </g>
   <g id="patch_12">
    <path d="M 182.592 150.636641 
Q 182.592 159.838585 182.592 167.363479 
" style="fill: none; stroke: #404040; stroke-width: 1.5; stroke-linecap: round"/>
    <path d="M 184.592 163.363479 
L 182.592 167.363479 
L 180.592 163.363479 
" style="fill: none; stroke: #404040; stroke-width: 1.5; stroke-linecap: round"/>
   </g>
   <g id="patch_13">
    <path d="M 458.208 150.636641 
Q 458.208 159.838585 458.208 167.363479 
" style="fill: none; stroke: #404040; stroke-width: 1.5; stroke-linecap: round"/>
    <path d="M 460.208 163.363479 
L 458.208 167.363479 
L 456.208 163.363479 
" style="fill: none; stroke: #404040; stroke-width: 1.5; stroke-linecap: round"/>
   </g>
   <g id="patch_14">
    <path d="M 221.872373 200.896992 
Q 248.362823 217.437078 273.430741 233.088963 
" style="fill: none; stroke: #404040; stroke-width: 1.5; stroke-linecap: round"/>
    <path d="M 271.097041 229.274013 
L 273.430741 233.088963 
L 268.978561 232.666952 
" style="fill: none; stroke: #404040; stroke-width: 1.5; stroke-linecap: round"/>
   </g>
   <g id="patch_15">
    <path d="M 418.927627 200.896992 
Q 392.437177 217.437078 367.369259 233.088963 
" style="fill: none; stroke: #404040; stroke-width: 1.5; stroke-linecap: round"/>
    <path d="M 371.821439 232.666952 
L 367.369259 233.088963 
L 369.702959 229.274013 
" style="fill: none; stroke: #404040; stroke-width: 1.5; stroke-linecap: round"/>
   </g>
   <g id="patch_16">
    <path d="M 320.4 265.834687 
Q 320.4 270.235326 320.4 272.958913 
" style="fill: none; stroke: #404040; stroke-width: 1.5; stroke-linecap: round"/>
    <path d="M 322.4 268.958913 
L 320.4 272.958913 
L 318.4 268.958913 
" style="fill: none; stroke: #404040; stroke-width: 1.5; stroke-linecap: round"/>
   </g>
   <g id="patch_17">
    <path d="M 320.4 317.039375 
Q 320.4 319.838702 320.4 320.960977 
" style="fill: none; stroke: #404040; stroke-width: 1.5; stroke-linecap: round"/>
    <path d="M 322.4 316.960977 
L 320.4 320.960977 
L 318.4 316.960977 
" style="fill: none; stroke: #404040; stroke-width: 1.5; stroke-linecap: round"/>
   </g>
   <g id="text_9">
    <!-- Stable-Tail GNN Model Structure -->
    <g transform="translate(193.655156 17.837812) scale(0.14 -0.14)">
     <defs>
      <path id="DejaVuSans-Bold-53" d="M 3834 4519 
L 3834 3531 
Q 3450 3703 3084 3790 
Q 2719 3878 2394 3878 
Q 1963 3878 1756 3759 
Q 1550 3641 1550 3391 
Q 1550 3203 1689 3098 
Q 1828 2994 2194 2919 
L 2706 2816 
Q 3484 2659 3812 2340 
Q 4141 2022 4141 1434 
Q 4141 663 3683 286 
Q 3225 -91 2284 -91 
Q 1841 -91 1394 -6 
Q 947 78 500 244 
L 500 1259 
Q 947 1022 1364 901 
Q 1781 781 2169 781 
Q 2563 781 2772 912 
Q 2981 1044 2981 1288 
Q 2981 1506 2839 1625 
Q 2697 1744 2272 1838 
L 1806 1941 
Q 1106 2091 782 2419 
Q 459 2747 459 3303 
Q 459 4000 909 4375 
Q 1359 4750 2203 4750 
Q 2588 4750 2994 4692 
Q 3400 4634 3834 4519 
z
" transform="scale(0.015625)"/>
      <path id="DejaVuSans-Bold-74" d="M 1759 4494 
L 1759 3500 
L 2913 3500 
L 2913 2700 
L 1759 2700 
L 1759 1216 
Q 1759 972 1856 886 
Q 1953 800 2241 800 
L 2816 800 
L 2816 0 
L 1856 0 
Q 1194 0 917 276 
Q 641 553 641 1216 
L 641 2700 
L 84 2700 
L 84 3500 
L 641 3500 
L 641 4494 
L 1759 4494 
z
" transform="scale(0.015625)"/>
      <path id="DejaVuSans-Bold-61" d="M 2106 1575 
Q 1756 1575 1579 1456 
Q 1403 1338 1403 1106 
Q 1403 894 1545 773 
Q 1688 653 1941 653 
Q 2256 653 2472 879 
Q 2688 1106 2688 1447 
L 2688 1575 
L 2106 1575 
z
M 3816 1997 
L 3816 0 
L 2688 0 
L 2688 519 
Q 2463 200 2181 54 
Q 1900 -91 1497 -91 
Q 953 -91 614 226 
Q 275 544 275 1050 
Q 275 1666 698 1953 
Q 1122 2241 2028 2241 
L 2688 2241 
L 2688 2328 
Q 2688 2594 2478 2717 
Q 2269 2841 1825 2841 
Q 1466 2841 1156 2769 
Q 847 2697 581 2553 
L 581 3406 
Q 941 3494 1303 3539 
Q 1666 3584 2028 3584 
Q 2975 3584 3395 3211 
Q 3816 2838 3816 1997 
z
" transform="scale(0.015625)"/>
      <path id="DejaVuSans-Bold-62" d="M 2400 722 
Q 2759 722 2948 984 
Q 3138 1247 3138 1747 
Q 3138 2247 2948 2509 
Q 2759 2772 2400 2772 
Q 2041 2772 1848 2508 
Q 1656 2244 1656 1747 
Q 1656 1250 1848 986 
Q 2041 722 2400 722 
z
M 1656 2988 
Q 1888 3294 2169 3439 
Q 2450 3584 2816 3584 
Q 3463 3584 3878 3070 
Q 4294 2556 4294 1747 
Q 4294 938 3878 423 
Q 3463 -91 2816 -91 
Q 2450 -91 2169 54 
Q 1888 200 1656 506 
L 1656 0 
L 538 0 
L 538 4863 
L 1656 4863 
L 1656 2988 
z
" transform="scale(0.015625)"/>
      <path id="DejaVuSans-Bold-6c" d="M 538 4863 
L 1656 4863 
L 1656 0 
L 538 0 
L 538 4863 
z
" transform="scale(0.015625)"/>
      <path id="DejaVuSans-Bold-65" d="M 4031 1759 
L 4031 1441 
L 1416 1441 
Q 1456 1047 1700 850 
Q 1944 653 2381 653 
Q 2734 653 3104 758 
Q 3475 863 3866 1075 
L 3866 213 
Q 3469 63 3072 -14 
Q 2675 -91 2278 -91 
Q 1328 -91 801 392 
Q 275 875 275 1747 
Q 275 2603 792 3093 
Q 1309 3584 2216 3584 
Q 3041 3584 3536 3087 
Q 4031 2591 4031 1759 
z
M 2881 2131 
Q 2881 2450 2695 2645 
Q 2509 2841 2209 2841 
Q 1884 2841 1681 2658 
Q 1478 2475 1428 2131 
L 2881 2131 
z
" transform="scale(0.015625)"/>
      <path id="DejaVuSans-Bold-2d" d="M 347 2297 
L 2309 2297 
L 2309 1388 
L 347 1388 
L 347 2297 
z
" transform="scale(0.015625)"/>
      <path id="DejaVuSans-Bold-54" d="M 31 4666 
L 4331 4666 
L 4331 3756 
L 2784 3756 
L 2784 0 
L 1581 0 
L 1581 3756 
L 31 3756 
L 31 4666 
z
" transform="scale(0.015625)"/>
      <path id="DejaVuSans-Bold-69" d="M 538 3500 
L 1656 3500 
L 1656 0 
L 538 0 
L 538 3500 
z
M 538 4863 
L 1656 4863 
L 1656 3950 
L 538 3950 
L 538 4863 
z
" transform="scale(0.015625)"/>
      <path id="DejaVuSans-Bold-20" transform="scale(0.015625)"/>
      <path id="DejaVuSans-Bold-47" d="M 4781 347 
Q 4331 128 3847 18 
Q 3363 -91 2847 -91 
Q 1681 -91 1000 561 
Q 319 1213 319 2328 
Q 319 3456 1012 4103 
Q 1706 4750 2913 4750 
Q 3378 4750 3804 4662 
Q 4231 4575 4609 4403 
L 4609 3438 
Q 4219 3659 3833 3768 
Q 3447 3878 3059 3878 
Q 2341 3878 1952 3476 
Q 1563 3075 1563 2328 
Q 1563 1588 1938 1184 
Q 2313 781 3003 781 
Q 3191 781 3352 804 
Q 3513 828 3641 878 
L 3641 1784 
L 2906 1784 
L 2906 2591 
L 4781 2591 
L 4781 347 
z
" transform="scale(0.015625)"/>
      <path id="DejaVuSans-Bold-4e" d="M 588 4666 
L 1931 4666 
L 3628 1466 
L 3628 4666 
L 4769 4666 
L 4769 0 
L 3425 0 
L 1728 3200 
L 1728 0 
L 588 0 
L 588 4666 
z
" transform="scale(0.015625)"/>
      <path id="DejaVuSans-Bold-4d" d="M 588 4666 
L 2119 4666 
L 3181 2169 
L 4250 4666 
L 5778 4666 
L 5778 0 
L 4641 0 
L 4641 3413 
L 3566 897 
L 2803 897 
L 1728 3413 
L 1728 0 
L 588 0 
L 588 4666 
z
" transform="scale(0.015625)"/>
      <path id="DejaVuSans-Bold-6f" d="M 2203 2784 
Q 1831 2784 1636 2517 
Q 1441 2250 1441 1747 
Q 1441 1244 1636 976 
Q 1831 709 2203 709 
Q 2569 709 2762 976 
Q 2956 1244 2956 1747 
Q 2956 2250 2762 2517 
Q 2569 2784 2203 2784 
z
M 2203 3584 
Q 3106 3584 3614 3096 
Q 4122 2609 4122 1747 
Q 4122 884 3614 396 
Q 3106 -91 2203 -91 
Q 1297 -91 786 396 
Q 275 884 275 1747 
Q 275 2609 786 3096 
Q 1297 3584 2203 3584 
z
" transform="scale(0.015625)"/>
      <path id="DejaVuSans-Bold-64" d="M 2919 2988 
L 2919 4863 
L 4044 4863 
L 4044 0 
L 2919 0 
L 2919 506 
Q 2688 197 2409 53 
Q 2131 -91 1766 -91 
Q 1119 -91 703 423 
Q 288 938 288 1747 
Q 288 2556 703 3070 
Q 1119 3584 1766 3584 
Q 2128 3584 2408 3439 
Q 2688 3294 2919 2988 
z
M 2181 722 
Q 2541 722 2730 984 
Q 2919 1247 2919 1747 
Q 2919 2247 2730 2509 
Q 2541 2772 2181 2772 
Q 1825 2772 1636 2509 
Q 1447 2247 1447 1747 
Q 1447 1247 1636 984 
Q 1825 722 2181 722 
z
" transform="scale(0.015625)"/>
      <path id="DejaVuSans-Bold-72" d="M 3138 2547 
Q 2991 2616 2845 2648 
Q 2700 2681 2553 2681 
Q 2122 2681 1889 2404 
Q 1656 2128 1656 1613 
L 1656 0 
L 538 0 
L 538 3500 
L 1656 3500 
L 1656 2925 
Q 1872 3269 2151 3426 
Q 2431 3584 2822 3584 
Q 2878 3584 2943 3579 
Q 3009 3575 3134 3559 
L 3138 2547 
z
" transform="scale(0.015625)"/>
      <path id="DejaVuSans-Bold-75" d="M 500 1363 
L 500 3500 
L 1625 3500 
L 1625 3150 
Q 1625 2866 1622 2436 
Q 1619 2006 1619 1863 
Q 1619 1441 1641 1255 
Q 1663 1069 1716 984 
Q 1784 875 1895 815 
Q 2006 756 2150 756 
Q 2500 756 2700 1025 
Q 2900 1294 2900 1772 
L 2900 3500 
L 4019 3500 
L 4019 0 
L 2900 0 
L 2900 506 
Q 2647 200 2364 54 
Q 2081 -91 1741 -91 
Q 1134 -91 817 281 
Q 500 653 500 1363 
z
" transform="scale(0.015625)"/>
      <path id="DejaVuSans-Bold-63" d="M 3366 3391 
L 3366 2478 
Q 3138 2634 2908 2709 
Q 2678 2784 2431 2784 
Q 1963 2784 1702 2511 
Q 1441 2238 1441 1747 
Q 1441 1256 1702 982 
Q 1963 709 2431 709 
Q 2694 709 2930 787 
Q 3166 866 3366 1019 
L 3366 103 
Q 3103 6 2833 -42 
Q 2563 -91 2291 -91 
Q 1344 -91 809 395 
Q 275 881 275 1747 
Q 275 2613 809 3098 
Q 1344 3584 2291 3584 
Q 2566 3584 2833 3536 
Q 3100 3488 3366 3391 
z
" transform="scale(0.015625)"/>
     </defs>
     <use xlink:href="#DejaVuSans-Bold-53"/>
     <use xlink:href="#DejaVuSans-Bold-74" transform="translate(72.021484 0)"/>
     <use xlink:href="#DejaVuSans-Bold-61" transform="translate(119.824219 0)"/>
     <use xlink:href="#DejaVuSans-Bold-62" transform="translate(187.304688 0)"/>
     <use xlink:href="#DejaVuSans-Bold-6c" transform="translate(258.886719 0)"/>
     <use xlink:href="#DejaVuSans-Bold-65" transform="translate(293.164062 0)"/>
     <use xlink:href="#DejaVuSans-Bold-2d" transform="translate(360.986328 0)"/>
     <use xlink:href="#DejaVuSans-Bold-54" transform="translate(387.740234 0)"/>
     <use xlink:href="#DejaVuSans-Bold-61" transform="translate(443.078125 0)"/>
     <use xlink:href="#DejaVuSans-Bold-69" transform="translate(510.558594 0)"/>
     <use xlink:href="#DejaVuSans-Bold-6c" transform="translate(544.835938 0)"/>
     <use xlink:href="#DejaVuSans-Bold-20" transform="translate(579.113281 0)"/>
     <use xlink:href="#DejaVuSans-Bold-47" transform="translate(613.927734 0)"/>
     <use xlink:href="#DejaVuSans-Bold-4e" transform="translate(696.007812 0)"/>
     <use xlink:href="#DejaVuSans-Bold-4e" transform="translate(779.699219 0)"/>
     <use xlink:href="#DejaVuSans-Bold-20" transform="translate(863.390625 0)"/>
     <use xlink:href="#DejaVuSans-Bold-4d" transform="translate(898.205078 0)"/>
     <use xlink:href="#DejaVuSans-Bold-6f" transform="translate(997.716797 0)"/>
     <use xlink:href="#DejaVuSans-Bold-64" transform="translate(1066.417969 0)"/>
     <use xlink:href="#DejaVuSans-Bold-65" transform="translate(1138 0)"/>
     <use xlink:href="#DejaVuSans-Bold-6c" transform="translate(1205.822266 0)"/>
     <use xlink:href="#DejaVuSans-Bold-20" transform="translate(1240.099609 0)"/>
     <use xlink:href="#DejaVuSans-Bold-53" transform="translate(1274.914062 0)"/>
     <use xlink:href="#DejaVuSans-Bold-74" transform="translate(1346.935547 0)"/>
     <use xlink:href="#DejaVuSans-Bold-72" transform="translate(1394.738281 0)"/>
     <use xlink:href="#DejaVuSans-Bold-75" transform="translate(1444.054688 0)"/>
     <use xlink:href="#DejaVuSans-Bold-63" transform="translate(1515.246094 0)"/>
     <use xlink:href="#DejaVuSans-Bold-74" transform="translate(1574.523438 0)"/>
     <use xlink:href="#DejaVuSans-Bold-75" transform="translate(1622.326172 0)"/>
     <use xlink:href="#DejaVuSans-Bold-72" transform="translate(1693.517578 0)"/>
     <use xlink:href="#DejaVuSans-Bold-65" transform="translate(1742.833984 0)"/>
    </g>
   </g>
  </g>
 </g>
 <defs>
  <clipPath id="peb92d81275">
   <rect x="7.2" y="23.837812" width="626.4" height="336"/>
  </clipPath>
 </defs>
</svg>
