<?xml version="1.0" encoding="utf-8" standalone="no"?>
<!DOCTYPE svg PUBLIC "-//W3C//DTD SVG 1.1//EN"
  "http://www.w3.org/Graphics/SVG/1.1/DTD/svg11.dtd">
<svg xmlns:xlink="http://www.w3.org/1999/xlink" width="1000.46125pt" height="327.952983pt" viewBox="0 0 1000.46125 327.952983" xmlns="http://www.w3.org/2000/svg" version="1.1">
 <metadata>
  <rdf:RDF xmlns:dc="http://purl.org/dc/elements/1.1/" xmlns:cc="http://creativecommons.org/ns#" xmlns:rdf="http://www.w3.org/1999/02/22-rdf-syntax-ns#">
   <cc:Work>
    <dc:type rdf:resource="http://purl.org/dc/dcmitype/StillImage"/>
    <dc:date>2026-06-04T15:59:20.259876</dc:date>
    <dc:format>image/svg+xml</dc:format>
    <dc:creator>
     <cc:Agent>
      <dc:title>Matplotlib v3.10.9, https://matplotlib.org/</dc:title>
     </cc:Agent>
    </dc:creator>
   </cc:Work>
  </rdf:RDF>
 </metadata>
 <defs>
  <style type="text/css">*{stroke-linejoin: round; stroke-linecap: butt}</style>
 </defs>
 <g id="figure_1">
  <g id="patch_1">
   <path d="M 0 327.952983 
L 1000.46125 327.952983 
L 1000.46125 -0 
L 0 -0 
z
" style="fill: #ffffff"/>
  </g>
  <g id="axes_1">
   <g id="patch_2">
    <path d="M 43.78125 274.268965 
L 333.587917 274.268965 
L 333.587917 51.216 
L 43.78125 51.216 
z
" style="fill: #ffffff"/>
   </g>
   <g id="matplotlib.axis_1">
    <g id="xtick_1">
     <g id="line2d_1">
      <defs>
       <path id="mf34f91dcf0" d="M 0 0 
L 0 3.5 
" style="stroke: #000000; stroke-width: 0.8"/>
      </defs>
      <g>
       <use xlink:href="#mf34f91dcf0" x="56.95428" y="274.268965" style="stroke: #000000; stroke-width: 0.8"/>
      </g>
     </g>
     <g id="text_1">
      <!-- raw -->
      <g transform="translate(39.716515 296.624333) rotate(-28) scale(0.1 -0.1)">
       <defs>
        <path id="DejaVuSans-72" d="M 2631 2963 
Q 2534 3019 2420 3045 
Q 2306 3072 2169 3072 
Q 1681 3072 1420 2755 
Q 1159 2438 1159 1844 
L 1159 0 
L 581 0 
L 581 3500 
L 1159 3500 
L 1159 2956 
Q 1341 3275 1631 3429 
Q 1922 3584 2338 3584 
Q 2397 3584 2469 3576 
Q 2541 3569 2628 3553 
L 2631 2963 
z
" transform="scale(0.015625)"/>
        <path id="DejaVuSans-61" d="M 2194 1759 
Q 1497 1759 1228 1600 
Q 959 1441 959 1056 
Q 959 750 1161 570 
Q 1363 391 1709 391 
Q 2188 391 2477 730 
Q 2766 1069 2766 1631 
L 2766 1759 
L 2194 1759 
z
M 3341 1997 
L 3341 0 
L 2766 0 
L 2766 531 
Q 2569 213 2275 61 
Q 1981 -91 1556 -91 
Q 1019 -91 701 211 
Q 384 513 384 1019 
Q 384 1609 779 1909 
Q 1175 2209 1959 2209 
L 2766 2209 
L 2766 2266 
Q 2766 2663 2505 2880 
Q 2244 3097 1772 3097 
Q 1472 3097 1187 3025 
Q 903 2953 641 2809 
L 641 3341 
Q 956 3463 1253 3523 
Q 1550 3584 1831 3584 
Q 2591 3584 2966 3190 
Q 3341 2797 3341 1997 
z
" transform="scale(0.015625)"/>
        <path id="DejaVuSans-77" d="M 269 3500 
L 844 3500 
L 1563 769 
L 2278 3500 
L 2956 3500 
L 3675 769 
L 4391 3500 
L 4966 3500 
L 4050 0 
L 3372 0 
L 2619 2869 
L 1863 0 
L 1184 0 
L 269 3500 
z
" transform="scale(0.015625)"/>
       </defs>
       <use xlink:href="#DejaVuSans-72"/>
       <use xlink:href="#DejaVuSans-61" transform="translate(41.113281 0)"/>
       <use xlink:href="#DejaVuSans-77" transform="translate(102.392578 0)"/>
      </g>
     </g>
    </g>
    <g id="xtick_2">
     <g id="line2d_2">
      <g>
       <use xlink:href="#mf34f91dcf0" x="122.819432" y="274.268965" style="stroke: #000000; stroke-width: 0.8"/>
      </g>
     </g>
     <g id="text_2">
      <!-- floor_0.001 -->
      <g transform="translate(72.02463 314.3975) rotate(-28) scale(0.1 -0.1)">
       <defs>
        <path id="DejaVuSans-66" d="M 2375 4863 
L 2375 4384 
L 1825 4384 
Q 1516 4384 1395 4259 
Q 1275 4134 1275 3809 
L 1275 3500 
L 2222 3500 
L 2222 3053 
L 1275 3053 
L 1275 0 
L 697 0 
L 697 3053 
L 147 3053 
L 147 3500 
L 697 3500 
L 697 3744 
Q 697 4328 969 4595 
Q 1241 4863 1831 4863 
L 2375 4863 
z
" transform="scale(0.015625)"/>
        <path id="DejaVuSans-6c" d="M 603 4863 
L 1178 4863 
L 1178 0 
L 603 0 
L 603 4863 
z
" transform="scale(0.015625)"/>
        <path id="DejaVuSans-6f" d="M 1959 3097 
Q 1497 3097 1228 2736 
Q 959 2375 959 1747 
Q 959 1119 1226 758 
Q 1494 397 1959 397 
Q 2419 397 2687 759 
Q 2956 1122 2956 1747 
Q 2956 2369 2687 2733 
Q 2419 3097 1959 3097 
z
M 1959 3584 
Q 2709 3584 3137 3096 
Q 3566 2609 3566 1747 
Q 3566 888 3137 398 
Q 2709 -91 1959 -91 
Q 1206 -91 779 398 
Q 353 888 353 1747 
Q 353 2609 779 3096 
Q 1206 3584 1959 3584 
z
" transform="scale(0.015625)"/>
        <path id="DejaVuSans-5f" d="M 3263 -1063 
L 3263 -1509 
L -63 -1509 
L -63 -1063 
L 3263 -1063 
z
" transform="scale(0.015625)"/>
        <path id="DejaVuSans-30" d="M 2034 4250 
Q 1547 4250 1301 3770 
Q 1056 3291 1056 2328 
Q 1056 1369 1301 889 
Q 1547 409 2034 409 
Q 2525 409 2770 889 
Q 3016 1369 3016 2328 
Q 3016 3291 2770 3770 
Q 2525 4250 2034 4250 
z
M 2034 4750 
Q 2819 4750 3233 4129 
Q 3647 3509 3647 2328 
Q 3647 1150 3233 529 
Q 2819 -91 2034 -91 
Q 1250 -91 836 529 
Q 422 1150 422 2328 
Q 422 3509 836 4129 
Q 1250 4750 2034 4750 
z
" transform="scale(0.015625)"/>
        <path id="DejaVuSans-2e" d="M 684 794 
L 1344 794 
L 1344 0 
L 684 0 
L 684 794 
z
" transform="scale(0.015625)"/>
        <path id="DejaVuSans-31" d="M 794 531 
L 1825 531 
L 1825 4091 
L 703 3866 
L 703 4441 
L 1819 4666 
L 2450 4666 
L 2450 531 
L 3481 531 
L 3481 0 
L 794 0 
L 794 531 
z
" transform="scale(0.015625)"/>
       </defs>
       <use xlink:href="#DejaVuSans-66"/>
       <use xlink:href="#DejaVuSans-6c" transform="translate(35.205078 0)"/>
       <use xlink:href="#DejaVuSans-6f" transform="translate(62.988281 0)"/>
       <use xlink:href="#DejaVuSans-6f" transform="translate(124.169922 0)"/>
       <use xlink:href="#DejaVuSans-72" transform="translate(185.351562 0)"/>
       <use xlink:href="#DejaVuSans-5f" transform="translate(226.464844 0)"/>
       <use xlink:href="#DejaVuSans-30" transform="translate(276.464844 0)"/>
       <use xlink:href="#DejaVuSans-2e" transform="translate(340.087891 0)"/>
       <use xlink:href="#DejaVuSans-30" transform="translate(371.875 0)"/>
       <use xlink:href="#DejaVuSans-30" transform="translate(435.498047 0)"/>
       <use xlink:href="#DejaVuSans-31" transform="translate(499.121094 0)"/>
      </g>
     </g>
    </g>
    <g id="xtick_3">
     <g id="line2d_3">
      <g>
       <use xlink:href="#mf34f91dcf0" x="188.684583" y="274.268965" style="stroke: #000000; stroke-width: 0.8"/>
      </g>
     </g>
     <g id="text_3">
      <!-- floor_0.01 -->
      <g transform="translate(143.507536 311.410487) rotate(-28) scale(0.1 -0.1)">
       <use xlink:href="#DejaVuSans-66"/>
       <use xlink:href="#DejaVuSans-6c" transform="translate(35.205078 0)"/>
       <use xlink:href="#DejaVuSans-6f" transform="translate(62.988281 0)"/>
       <use xlink:href="#DejaVuSans-6f" transform="translate(124.169922 0)"/>
       <use xlink:href="#DejaVuSans-72" transform="translate(185.351562 0)"/>
       <use xlink:href="#DejaVuSans-5f" transform="translate(226.464844 0)"/>
       <use xlink:href="#DejaVuSans-30" transform="translate(276.464844 0)"/>
       <use xlink:href="#DejaVuSans-2e" transform="translate(340.087891 0)"/>
       <use xlink:href="#DejaVuSans-30" transform="translate(371.875 0)"/>
       <use xlink:href="#DejaVuSans-31" transform="translate(435.498047 0)"/>
      </g>
     </g>
    </g>
    <g id="xtick_4">
     <g id="line2d_4">
      <g>
       <use xlink:href="#mf34f91dcf0" x="254.549735" y="274.268965" style="stroke: #000000; stroke-width: 0.8"/>
      </g>
     </g>
     <g id="text_4">
      <!-- floor_0.05 -->
      <g transform="translate(209.372687 311.410487) rotate(-28) scale(0.1 -0.1)">
       <defs>
        <path id="DejaVuSans-35" d="M 691 4666 
L 3169 4666 
L 3169 4134 
L 1269 4134 
L 1269 2991 
Q 1406 3038 1543 3061 
Q 1681 3084 1819 3084 
Q 2600 3084 3056 2656 
Q 3513 2228 3513 1497 
Q 3513 744 3044 326 
Q 2575 -91 1722 -91 
Q 1428 -91 1123 -41 
Q 819 9 494 109 
L 494 744 
Q 775 591 1075 516 
Q 1375 441 1709 441 
Q 2250 441 2565 725 
Q 2881 1009 2881 1497 
Q 2881 1984 2565 2268 
Q 2250 2553 1709 2553 
Q 1456 2553 1204 2497 
Q 953 2441 691 2322 
L 691 4666 
z
" transform="scale(0.015625)"/>
       </defs>
       <use xlink:href="#DejaVuSans-66"/>
       <use xlink:href="#DejaVuSans-6c" transform="translate(35.205078 0)"/>
       <use xlink:href="#DejaVuSans-6f" transform="translate(62.988281 0)"/>
       <use xlink:href="#DejaVuSans-6f" transform="translate(124.169922 0)"/>
       <use xlink:href="#DejaVuSans-72" transform="translate(185.351562 0)"/>
       <use xlink:href="#DejaVuSans-5f" transform="translate(226.464844 0)"/>
       <use xlink:href="#DejaVuSans-30" transform="translate(276.464844 0)"/>
       <use xlink:href="#DejaVuSans-2e" transform="translate(340.087891 0)"/>
       <use xlink:href="#DejaVuSans-30" transform="translate(371.875 0)"/>
       <use xlink:href="#DejaVuSans-35" transform="translate(435.498047 0)"/>
      </g>
     </g>
    </g>
    <g id="xtick_5">
     <g id="line2d_5">
      <g>
       <use xlink:href="#mf34f91dcf0" x="320.414886" y="274.268965" style="stroke: #000000; stroke-width: 0.8"/>
      </g>
     </g>
     <g id="text_5">
      <!-- positive_only -->
      <g transform="translate(261.582502 318.671158) rotate(-28) scale(0.1 -0.1)">
       <defs>
        <path id="DejaVuSans-70" d="M 1159 525 
L 1159 -1331 
L 581 -1331 
L 581 3500 
L 1159 3500 
L 1159 2969 
Q 1341 3281 1617 3432 
Q 1894 3584 2278 3584 
Q 2916 3584 3314 3078 
Q 3713 2572 3713 1747 
Q 3713 922 3314 415 
Q 2916 -91 2278 -91 
Q 1894 -91 1617 61 
Q 1341 213 1159 525 
z
M 3116 1747 
Q 3116 2381 2855 2742 
Q 2594 3103 2138 3103 
Q 1681 3103 1420 2742 
Q 1159 2381 1159 1747 
Q 1159 1113 1420 752 
Q 1681 391 2138 391 
Q 2594 391 2855 752 
Q 3116 1113 3116 1747 
z
" transform="scale(0.015625)"/>
        <path id="DejaVuSans-73" d="M 2834 3397 
L 2834 2853 
Q 2591 2978 2328 3040 
Q 2066 3103 1784 3103 
Q 1356 3103 1142 2972 
Q 928 2841 928 2578 
Q 928 2378 1081 2264 
Q 1234 2150 1697 2047 
L 1894 2003 
Q 2506 1872 2764 1633 
Q 3022 1394 3022 966 
Q 3022 478 2636 193 
Q 2250 -91 1575 -91 
Q 1294 -91 989 -36 
Q 684 19 347 128 
L 347 722 
Q 666 556 975 473 
Q 1284 391 1588 391 
Q 1994 391 2212 530 
Q 2431 669 2431 922 
Q 2431 1156 2273 1281 
Q 2116 1406 1581 1522 
L 1381 1569 
Q 847 1681 609 1914 
Q 372 2147 372 2553 
Q 372 3047 722 3315 
Q 1072 3584 1716 3584 
Q 2034 3584 2315 3537 
Q 2597 3491 2834 3397 
z
" transform="scale(0.015625)"/>
        <path id="DejaVuSans-69" d="M 603 3500 
L 1178 3500 
L 1178 0 
L 603 0 
L 603 3500 
z
M 603 4863 
L 1178 4863 
L 1178 4134 
L 603 4134 
L 603 4863 
z
" transform="scale(0.015625)"/>
        <path id="DejaVuSans-74" d="M 1172 4494 
L 1172 3500 
L 2356 3500 
L 2356 3053 
L 1172 3053 
L 1172 1153 
Q 1172 725 1289 603 
Q 1406 481 1766 481 
L 2356 481 
L 2356 0 
L 1766 0 
Q 1100 0 847 248 
Q 594 497 594 1153 
L 594 3053 
L 172 3053 
L 172 3500 
L 594 3500 
L 594 4494 
L 1172 4494 
z
" transform="scale(0.015625)"/>
        <path id="DejaVuSans-76" d="M 191 3500 
L 800 3500 
L 1894 563 
L 2988 3500 
L 3597 3500 
L 2284 0 
L 1503 0 
L 191 3500 
z
" transform="scale(0.015625)"/>
        <path id="DejaVuSans-65" d="M 3597 1894 
L 3597 1613 
L 953 1613 
Q 991 1019 1311 708 
Q 1631 397 2203 397 
Q 2534 397 2845 478 
Q 3156 559 3463 722 
L 3463 178 
Q 3153 47 2828 -22 
Q 2503 -91 2169 -91 
Q 1331 -91 842 396 
Q 353 884 353 1716 
Q 353 2575 817 3079 
Q 1281 3584 2069 3584 
Q 2775 3584 3186 3129 
Q 3597 2675 3597 1894 
z
M 3022 2063 
Q 3016 2534 2758 2815 
Q 2500 3097 2075 3097 
Q 1594 3097 1305 2825 
Q 1016 2553 972 2059 
L 3022 2063 
z
" transform="scale(0.015625)"/>
        <path id="DejaVuSans-6e" d="M 3513 2113 
L 3513 0 
L 2938 0 
L 2938 2094 
Q 2938 2591 2744 2837 
Q 2550 3084 2163 3084 
Q 1697 3084 1428 2787 
Q 1159 2491 1159 1978 
L 1159 0 
L 581 0 
L 581 3500 
L 1159 3500 
L 1159 2956 
Q 1366 3272 1645 3428 
Q 1925 3584 2291 3584 
Q 2894 3584 3203 3211 
Q 3513 2838 3513 2113 
z
" transform="scale(0.015625)"/>
        <path id="DejaVuSans-79" d="M 2059 -325 
Q 1816 -950 1584 -1140 
Q 1353 -1331 966 -1331 
L 506 -1331 
L 506 -850 
L 844 -850 
Q 1081 -850 1212 -737 
Q 1344 -625 1503 -206 
L 1606 56 
L 191 3500 
L 800 3500 
L 1894 763 
L 2988 3500 
L 3597 3500 
L 2059 -325 
z
" transform="scale(0.015625)"/>
       </defs>
       <use xlink:href="#DejaVuSans-70"/>
       <use xlink:href="#DejaVuSans-6f" transform="translate(63.476562 0)"/>
       <use xlink:href="#DejaVuSans-73" transform="translate(124.658203 0)"/>
       <use xlink:href="#DejaVuSans-69" transform="translate(176.757812 0)"/>
       <use xlink:href="#DejaVuSans-74" transform="translate(204.541016 0)"/>
       <use xlink:href="#DejaVuSans-69" transform="translate(243.75 0)"/>
       <use xlink:href="#DejaVuSans-76" transform="translate(271.533203 0)"/>
       <use xlink:href="#DejaVuSans-65" transform="translate(330.712891 0)"/>
       <use xlink:href="#DejaVuSans-5f" transform="translate(392.236328 0)"/>
       <use xlink:href="#DejaVuSans-6f" transform="translate(442.236328 0)"/>
       <use xlink:href="#DejaVuSans-6e" transform="translate(503.417969 0)"/>
       <use xlink:href="#DejaVuSans-6c" transform="translate(566.796875 0)"/>
       <use xlink:href="#DejaVuSans-79" transform="translate(594.580078 0)"/>
      </g>
     </g>
    </g>
   </g>
   <g id="matplotlib.axis_2">
    <g id="ytick_1">
     <g id="line2d_6">
      <path d="M 43.78125 264.130194 
L 333.587917 264.130194 
" clip-path="url(#pfbf665a632)" style="fill: none; stroke: #b0b0b0; stroke-opacity: 0.25; stroke-width: 0.8; stroke-linecap: square"/>
     </g>
     <g id="line2d_7">
      <defs>
       <path id="m640c9acf14" d="M 0 0 
L -3.5 0 
" style="stroke: #000000; stroke-width: 0.8"/>
      </defs>
      <g>
       <use xlink:href="#m640c9acf14" x="43.78125" y="264.130194" style="stroke: #000000; stroke-width: 0.8"/>
      </g>
     </g>
     <g id="text_6">
      <!-- 0.0 -->
      <g transform="translate(20.878125 267.929413) scale(0.1 -0.1)">
       <use xlink:href="#DejaVuSans-30"/>
       <use xlink:href="#DejaVuSans-2e" transform="translate(63.623047 0)"/>
       <use xlink:href="#DejaVuSans-30" transform="translate(95.410156 0)"/>
      </g>
     </g>
    </g>
    <g id="ytick_2">
     <g id="line2d_8">
      <path d="M 43.78125 220.591695 
L 333.587917 220.591695 
" clip-path="url(#pfbf665a632)" style="fill: none; stroke: #b0b0b0; stroke-opacity: 0.25; stroke-width: 0.8; stroke-linecap: square"/>
     </g>
     <g id="line2d_9">
      <g>
       <use xlink:href="#m640c9acf14" x="43.78125" y="220.591695" style="stroke: #000000; stroke-width: 0.8"/>
      </g>
     </g>
     <g id="text_7">
      <!-- 0.2 -->
      <g transform="translate(20.878125 224.390914) scale(0.1 -0.1)">
       <defs>
        <path id="DejaVuSans-32" d="M 1228 531 
L 3431 531 
L 3431 0 
L 469 0 
L 469 531 
Q 828 903 1448 1529 
Q 2069 2156 2228 2338 
Q 2531 2678 2651 2914 
Q 2772 3150 2772 3378 
Q 2772 3750 2511 3984 
Q 2250 4219 1831 4219 
Q 1534 4219 1204 4116 
Q 875 4013 500 3803 
L 500 4441 
Q 881 4594 1212 4672 
Q 1544 4750 1819 4750 
Q 2544 4750 2975 4387 
Q 3406 4025 3406 3419 
Q 3406 3131 3298 2873 
Q 3191 2616 2906 2266 
Q 2828 2175 2409 1742 
Q 1991 1309 1228 531 
z
" transform="scale(0.015625)"/>
       </defs>
       <use xlink:href="#DejaVuSans-30"/>
       <use xlink:href="#DejaVuSans-2e" transform="translate(63.623047 0)"/>
       <use xlink:href="#DejaVuSans-32" transform="translate(95.410156 0)"/>
      </g>
     </g>
    </g>
    <g id="ytick_3">
     <g id="line2d_10">
      <path d="M 43.78125 177.053195 
L 333.587917 177.053195 
" clip-path="url(#pfbf665a632)" style="fill: none; stroke: #b0b0b0; stroke-opacity: 0.25; stroke-width: 0.8; stroke-linecap: square"/>
     </g>
     <g id="line2d_11">
      <g>
       <use xlink:href="#m640c9acf14" x="43.78125" y="177.053195" style="stroke: #000000; stroke-width: 0.8"/>
      </g>
     </g>
     <g id="text_8">
      <!-- 0.4 -->
      <g transform="translate(20.878125 180.852414) scale(0.1 -0.1)">
       <defs>
        <path id="DejaVuSans-34" d="M 2419 4116 
L 825 1625 
L 2419 1625 
L 2419 4116 
z
M 2253 4666 
L 3047 4666 
L 3047 1625 
L 3713 1625 
L 3713 1100 
L 3047 1100 
L 3047 0 
L 2419 0 
L 2419 1100 
L 313 1100 
L 313 1709 
L 2253 4666 
z
" transform="scale(0.015625)"/>
       </defs>
       <use xlink:href="#DejaVuSans-30"/>
       <use xlink:href="#DejaVuSans-2e" transform="translate(63.623047 0)"/>
       <use xlink:href="#DejaVuSans-34" transform="translate(95.410156 0)"/>
      </g>
     </g>
    </g>
    <g id="ytick_4">
     <g id="line2d_12">
      <path d="M 43.78125 133.514696 
L 333.587917 133.514696 
" clip-path="url(#pfbf665a632)" style="fill: none; stroke: #b0b0b0; stroke-opacity: 0.25; stroke-width: 0.8; stroke-linecap: square"/>
     </g>
     <g id="line2d_13">
      <g>
       <use xlink:href="#m640c9acf14" x="43.78125" y="133.514696" style="stroke: #000000; stroke-width: 0.8"/>
      </g>
     </g>
     <g id="text_9">
      <!-- 0.6 -->
      <g transform="translate(20.878125 137.313914) scale(0.1 -0.1)">
       <defs>
        <path id="DejaVuSans-36" d="M 2113 2584 
Q 1688 2584 1439 2293 
Q 1191 2003 1191 1497 
Q 1191 994 1439 701 
Q 1688 409 2113 409 
Q 2538 409 2786 701 
Q 3034 994 3034 1497 
Q 3034 2003 2786 2293 
Q 2538 2584 2113 2584 
z
M 3366 4563 
L 3366 3988 
Q 3128 4100 2886 4159 
Q 2644 4219 2406 4219 
Q 1781 4219 1451 3797 
Q 1122 3375 1075 2522 
Q 1259 2794 1537 2939 
Q 1816 3084 2150 3084 
Q 2853 3084 3261 2657 
Q 3669 2231 3669 1497 
Q 3669 778 3244 343 
Q 2819 -91 2113 -91 
Q 1303 -91 875 529 
Q 447 1150 447 2328 
Q 447 3434 972 4092 
Q 1497 4750 2381 4750 
Q 2619 4750 2861 4703 
Q 3103 4656 3366 4563 
z
" transform="scale(0.015625)"/>
       </defs>
       <use xlink:href="#DejaVuSans-30"/>
       <use xlink:href="#DejaVuSans-2e" transform="translate(63.623047 0)"/>
       <use xlink:href="#DejaVuSans-36" transform="translate(95.410156 0)"/>
      </g>
     </g>
    </g>
    <g id="ytick_5">
     <g id="line2d_14">
      <path d="M 43.78125 89.976196 
L 333.587917 89.976196 
" clip-path="url(#pfbf665a632)" style="fill: none; stroke: #b0b0b0; stroke-opacity: 0.25; stroke-width: 0.8; stroke-linecap: square"/>
     </g>
     <g id="line2d_15">
      <g>
       <use xlink:href="#m640c9acf14" x="43.78125" y="89.976196" style="stroke: #000000; stroke-width: 0.8"/>
      </g>
     </g>
     <g id="text_10">
      <!-- 0.8 -->
      <g transform="translate(20.878125 93.775415) scale(0.1 -0.1)">
       <defs>
        <path id="DejaVuSans-38" d="M 2034 2216 
Q 1584 2216 1326 1975 
Q 1069 1734 1069 1313 
Q 1069 891 1326 650 
Q 1584 409 2034 409 
Q 2484 409 2743 651 
Q 3003 894 3003 1313 
Q 3003 1734 2745 1975 
Q 2488 2216 2034 2216 
z
M 1403 2484 
Q 997 2584 770 2862 
Q 544 3141 544 3541 
Q 544 4100 942 4425 
Q 1341 4750 2034 4750 
Q 2731 4750 3128 4425 
Q 3525 4100 3525 3541 
Q 3525 3141 3298 2862 
Q 3072 2584 2669 2484 
Q 3125 2378 3379 2068 
Q 3634 1759 3634 1313 
Q 3634 634 3220 271 
Q 2806 -91 2034 -91 
Q 1263 -91 848 271 
Q 434 634 434 1313 
Q 434 1759 690 2068 
Q 947 2378 1403 2484 
z
M 1172 3481 
Q 1172 3119 1398 2916 
Q 1625 2713 2034 2713 
Q 2441 2713 2670 2916 
Q 2900 3119 2900 3481 
Q 2900 3844 2670 4047 
Q 2441 4250 2034 4250 
Q 1625 4250 1398 4047 
Q 1172 3844 1172 3481 
z
" transform="scale(0.015625)"/>
       </defs>
       <use xlink:href="#DejaVuSans-30"/>
       <use xlink:href="#DejaVuSans-2e" transform="translate(63.623047 0)"/>
       <use xlink:href="#DejaVuSans-38" transform="translate(95.410156 0)"/>
      </g>
     </g>
    </g>
    <g id="text_11">
     <!-- Value -->
     <g transform="translate(14.798438 176.473733) rotate(-90) scale(0.1 -0.1)">
      <defs>
       <path id="DejaVuSans-56" d="M 1831 0 
L 50 4666 
L 709 4666 
L 2188 738 
L 3669 4666 
L 4325 4666 
L 2547 0 
L 1831 0 
z
" transform="scale(0.015625)"/>
       <path id="DejaVuSans-75" d="M 544 1381 
L 544 3500 
L 1119 3500 
L 1119 1403 
Q 1119 906 1312 657 
Q 1506 409 1894 409 
Q 2359 409 2629 706 
Q 2900 1003 2900 1516 
L 2900 3500 
L 3475 3500 
L 3475 0 
L 2900 0 
L 2900 538 
Q 2691 219 2414 64 
Q 2138 -91 1772 -91 
Q 1169 -91 856 284 
Q 544 659 544 1381 
z
M 1991 3584 
L 1991 3584 
z
" transform="scale(0.015625)"/>
      </defs>
      <use xlink:href="#DejaVuSans-56"/>
      <use xlink:href="#DejaVuSans-61" transform="translate(60.658203 0)"/>
      <use xlink:href="#DejaVuSans-6c" transform="translate(121.9375 0)"/>
      <use xlink:href="#DejaVuSans-75" transform="translate(149.720703 0)"/>
      <use xlink:href="#DejaVuSans-65" transform="translate(213.099609 0)"/>
     </g>
    </g>
   </g>
   <g id="line2d_16">
    <path d="M 56.95428 61.354771 
L 122.819432 264.130194 
L 188.684583 264.130194 
L 254.549735 264.130194 
L 320.414886 264.130194 
" clip-path="url(#pfbf665a632)" style="fill: none"/>
    <defs>
     <path id="m43caeca676" d="M 0 3 
C 0.795609 3 1.55874 2.683901 2.12132 2.12132 
C 2.683901 1.55874 3 0.795609 3 0 
C 3 -0.795609 2.683901 -1.55874 2.12132 -2.12132 
C 1.55874 -2.683901 0.795609 -3 0 -3 
C -0.795609 -3 -1.55874 -2.683901 -2.12132 -2.12132 
C -2.683901 -1.55874 -3 -0.795609 -3 0 
C -3 0.795609 -2.683901 1.55874 -2.12132 2.12132 
C -1.55874 2.683901 -0.795609 3 0 3 
z
" style="stroke: #1f77b4"/>
    </defs>
    <g clip-path="url(#pfbf665a632)">
     <use xlink:href="#m43caeca676" x="56.95428" y="61.354771" style="fill: #1f77b4; stroke: #1f77b4"/>
     <use xlink:href="#m43caeca676" x="122.819432" y="264.130194" style="fill: #1f77b4; stroke: #1f77b4"/>
     <use xlink:href="#m43caeca676" x="188.684583" y="264.130194" style="fill: #1f77b4; stroke: #1f77b4"/>
     <use xlink:href="#m43caeca676" x="254.549735" y="264.130194" style="fill: #1f77b4; stroke: #1f77b4"/>
     <use xlink:href="#m43caeca676" x="320.414886" y="264.130194" style="fill: #1f77b4; stroke: #1f77b4"/>
    </g>
   </g>
   <g id="LineCollection_1">
    <path d="M 56.95428 264.130194 
L 56.95428 61.354771 
" clip-path="url(#pfbf665a632)" style="fill: none; stroke: #1f77b4; stroke-opacity: 0.65; stroke-width: 2"/>
    <path d="M 122.819432 264.130194 
L 122.819432 264.130194 
" clip-path="url(#pfbf665a632)" style="fill: none; stroke: #1f77b4; stroke-opacity: 0.65; stroke-width: 2"/>
    <path d="M 188.684583 264.130194 
L 188.684583 264.130194 
" clip-path="url(#pfbf665a632)" style="fill: none; stroke: #1f77b4; stroke-opacity: 0.65; stroke-width: 2"/>
    <path d="M 254.549735 264.130194 
L 254.549735 264.130194 
" clip-path="url(#pfbf665a632)" style="fill: none; stroke: #1f77b4; stroke-opacity: 0.65; stroke-width: 2"/>
    <path d="M 320.414886 264.130194 
L 320.414886 264.130194 
" clip-path="url(#pfbf665a632)" style="fill: none; stroke: #1f77b4; stroke-opacity: 0.65; stroke-width: 2"/>
   </g>
   <g id="patch_3">
    <path d="M 43.78125 274.268965 
L 43.78125 51.216 
" style="fill: none; stroke: #000000; stroke-width: 0.8; stroke-linejoin: miter; stroke-linecap: square"/>
   </g>
   <g id="patch_4">
    <path d="M 43.78125 274.268965 
L 333.587917 274.268965 
" style="fill: none; stroke: #000000; stroke-width: 0.8; stroke-linejoin: miter; stroke-linecap: square"/>
   </g>
   <g id="text_12">
    <!-- Zero-risk ratio -->
    <g transform="translate(146.128646 45.216) scale(0.12 -0.12)">
     <defs>
      <path id="DejaVuSans-5a" d="M 359 4666 
L 4025 4666 
L 4025 4184 
L 1075 531 
L 4097 531 
L 4097 0 
L 288 0 
L 288 481 
L 3238 4134 
L 359 4134 
L 359 4666 
z
" transform="scale(0.015625)"/>
      <path id="DejaVuSans-2d" d="M 313 2009 
L 1997 2009 
L 1997 1497 
L 313 1497 
L 313 2009 
z
" transform="scale(0.015625)"/>
      <path id="DejaVuSans-6b" d="M 581 4863 
L 1159 4863 
L 1159 1991 
L 2875 3500 
L 3609 3500 
L 1753 1863 
L 3688 0 
L 2938 0 
L 1159 1709 
L 1159 0 
L 581 0 
L 581 4863 
z
" transform="scale(0.015625)"/>
      <path id="DejaVuSans-20" transform="scale(0.015625)"/>
     </defs>
     <use xlink:href="#DejaVuSans-5a"/>
     <use xlink:href="#DejaVuSans-65" transform="translate(68.505859 0)"/>
     <use xlink:href="#DejaVuSans-72" transform="translate(130.029297 0)"/>
     <use xlink:href="#DejaVuSans-6f" transform="translate(168.892578 0)"/>
     <use xlink:href="#DejaVuSans-2d" transform="translate(231.949219 0)"/>
     <use xlink:href="#DejaVuSans-72" transform="translate(268.033203 0)"/>
     <use xlink:href="#DejaVuSans-69" transform="translate(309.146484 0)"/>
     <use xlink:href="#DejaVuSans-73" transform="translate(336.929688 0)"/>
     <use xlink:href="#DejaVuSans-6b" transform="translate(389.029297 0)"/>
     <use xlink:href="#DejaVuSans-20" transform="translate(446.939453 0)"/>
     <use xlink:href="#DejaVuSans-72" transform="translate(478.726562 0)"/>
     <use xlink:href="#DejaVuSans-61" transform="translate(519.839844 0)"/>
     <use xlink:href="#DejaVuSans-74" transform="translate(581.119141 0)"/>
     <use xlink:href="#DejaVuSans-69" transform="translate(620.328125 0)"/>
     <use xlink:href="#DejaVuSans-6f" transform="translate(648.111328 0)"/>
    </g>
   </g>
  </g>
  <g id="axes_2">
   <g id="patch_5">
    <path d="M 373.617917 274.268965 
L 663.424583 274.268965 
L 663.424583 51.216 
L 373.617917 51.216 
z
" style="fill: #ffffff"/>
   </g>
   <g id="matplotlib.axis_3">
    <g id="xtick_6">
     <g id="line2d_17">
      <g>
       <use xlink:href="#mf34f91dcf0" x="386.790947" y="274.268965" style="stroke: #000000; stroke-width: 0.8"/>
      </g>
     </g>
     <g id="text_13">
      <!-- raw -->
      <g transform="translate(369.553181 296.624333) rotate(-28) scale(0.1 -0.1)">
       <use xlink:href="#DejaVuSans-72"/>
       <use xlink:href="#DejaVuSans-61" transform="translate(41.113281 0)"/>
       <use xlink:href="#DejaVuSans-77" transform="translate(102.392578 0)"/>
      </g>
     </g>
    </g>
    <g id="xtick_7">
     <g id="line2d_18">
      <g>
       <use xlink:href="#mf34f91dcf0" x="452.656098" y="274.268965" style="stroke: #000000; stroke-width: 0.8"/>
      </g>
     </g>
     <g id="text_14">
      <!-- floor_0.001 -->
      <g transform="translate(401.861297 314.3975) rotate(-28) scale(0.1 -0.1)">
       <use xlink:href="#DejaVuSans-66"/>
       <use xlink:href="#DejaVuSans-6c" transform="translate(35.205078 0)"/>
       <use xlink:href="#DejaVuSans-6f" transform="translate(62.988281 0)"/>
       <use xlink:href="#DejaVuSans-6f" transform="translate(124.169922 0)"/>
       <use xlink:href="#DejaVuSans-72" transform="translate(185.351562 0)"/>
       <use xlink:href="#DejaVuSans-5f" transform="translate(226.464844 0)"/>
       <use xlink:href="#DejaVuSans-30" transform="translate(276.464844 0)"/>
       <use xlink:href="#DejaVuSans-2e" transform="translate(340.087891 0)"/>
       <use xlink:href="#DejaVuSans-30" transform="translate(371.875 0)"/>
       <use xlink:href="#DejaVuSans-30" transform="translate(435.498047 0)"/>
       <use xlink:href="#DejaVuSans-31" transform="translate(499.121094 0)"/>
      </g>
     </g>
    </g>
    <g id="xtick_8">
     <g id="line2d_19">
      <g>
       <use xlink:href="#mf34f91dcf0" x="518.52125" y="274.268965" style="stroke: #000000; stroke-width: 0.8"/>
      </g>
     </g>
     <g id="text_15">
      <!-- floor_0.01 -->
      <g transform="translate(473.344202 311.410487) rotate(-28) scale(0.1 -0.1)">
       <use xlink:href="#DejaVuSans-66"/>
       <use xlink:href="#DejaVuSans-6c" transform="translate(35.205078 0)"/>
       <use xlink:href="#DejaVuSans-6f" transform="translate(62.988281 0)"/>
       <use xlink:href="#DejaVuSans-6f" transform="translate(124.169922 0)"/>
       <use xlink:href="#DejaVuSans-72" transform="translate(185.351562 0)"/>
       <use xlink:href="#DejaVuSans-5f" transform="translate(226.464844 0)"/>
       <use xlink:href="#DejaVuSans-30" transform="translate(276.464844 0)"/>
       <use xlink:href="#DejaVuSans-2e" transform="translate(340.087891 0)"/>
       <use xlink:href="#DejaVuSans-30" transform="translate(371.875 0)"/>
       <use xlink:href="#DejaVuSans-31" transform="translate(435.498047 0)"/>
      </g>
     </g>
    </g>
    <g id="xtick_9">
     <g id="line2d_20">
      <g>
       <use xlink:href="#mf34f91dcf0" x="584.386402" y="274.268965" style="stroke: #000000; stroke-width: 0.8"/>
      </g>
     </g>
     <g id="text_16">
      <!-- floor_0.05 -->
      <g transform="translate(539.209354 311.410487) rotate(-28) scale(0.1 -0.1)">
       <use xlink:href="#DejaVuSans-66"/>
       <use xlink:href="#DejaVuSans-6c" transform="translate(35.205078 0)"/>
       <use xlink:href="#DejaVuSans-6f" transform="translate(62.988281 0)"/>
       <use xlink:href="#DejaVuSans-6f" transform="translate(124.169922 0)"/>
       <use xlink:href="#DejaVuSans-72" transform="translate(185.351562 0)"/>
       <use xlink:href="#DejaVuSans-5f" transform="translate(226.464844 0)"/>
       <use xlink:href="#DejaVuSans-30" transform="translate(276.464844 0)"/>
       <use xlink:href="#DejaVuSans-2e" transform="translate(340.087891 0)"/>
       <use xlink:href="#DejaVuSans-30" transform="translate(371.875 0)"/>
       <use xlink:href="#DejaVuSans-35" transform="translate(435.498047 0)"/>
      </g>
     </g>
    </g>
    <g id="xtick_10">
     <g id="line2d_21">
      <g>
       <use xlink:href="#mf34f91dcf0" x="650.251553" y="274.268965" style="stroke: #000000; stroke-width: 0.8"/>
      </g>
     </g>
     <g id="text_17">
      <!-- positive_only -->
      <g transform="translate(591.419169 318.671158) rotate(-28) scale(0.1 -0.1)">
       <use xlink:href="#DejaVuSans-70"/>
       <use xlink:href="#DejaVuSans-6f" transform="translate(63.476562 0)"/>
       <use xlink:href="#DejaVuSans-73" transform="translate(124.658203 0)"/>
       <use xlink:href="#DejaVuSans-69" transform="translate(176.757812 0)"/>
       <use xlink:href="#DejaVuSans-74" transform="translate(204.541016 0)"/>
       <use xlink:href="#DejaVuSans-69" transform="translate(243.75 0)"/>
       <use xlink:href="#DejaVuSans-76" transform="translate(271.533203 0)"/>
       <use xlink:href="#DejaVuSans-65" transform="translate(330.712891 0)"/>
       <use xlink:href="#DejaVuSans-5f" transform="translate(392.236328 0)"/>
       <use xlink:href="#DejaVuSans-6f" transform="translate(442.236328 0)"/>
       <use xlink:href="#DejaVuSans-6e" transform="translate(503.417969 0)"/>
       <use xlink:href="#DejaVuSans-6c" transform="translate(566.796875 0)"/>
       <use xlink:href="#DejaVuSans-79" transform="translate(594.580078 0)"/>
      </g>
     </g>
    </g>
   </g>
   <g id="matplotlib.axis_4">
    <g id="ytick_6">
     <g id="line2d_22">
      <path d="M 373.617917 264.130194 
L 663.424583 264.130194 
" clip-path="url(#pd35e8046ac)" style="fill: none; stroke: #b0b0b0; stroke-opacity: 0.25; stroke-width: 0.8; stroke-linecap: square"/>
     </g>
     <g id="line2d_23">
      <g>
       <use xlink:href="#m640c9acf14" x="373.617917" y="264.130194" style="stroke: #000000; stroke-width: 0.8"/>
      </g>
     </g>
     <g id="text_18">
      <!-- 0.00 -->
      <g transform="translate(344.352292 267.929413) scale(0.1 -0.1)">
       <use xlink:href="#DejaVuSans-30"/>
       <use xlink:href="#DejaVuSans-2e" transform="translate(63.623047 0)"/>
       <use xlink:href="#DejaVuSans-30" transform="translate(95.410156 0)"/>
       <use xlink:href="#DejaVuSans-30" transform="translate(159.033203 0)"/>
      </g>
     </g>
    </g>
    <g id="ytick_7">
     <g id="line2d_24">
      <path d="M 373.617917 222.99678 
L 663.424583 222.99678 
" clip-path="url(#pd35e8046ac)" style="fill: none; stroke: #b0b0b0; stroke-opacity: 0.25; stroke-width: 0.8; stroke-linecap: square"/>
     </g>
     <g id="line2d_25">
      <g>
       <use xlink:href="#m640c9acf14" x="373.617917" y="222.99678" style="stroke: #000000; stroke-width: 0.8"/>
      </g>
     </g>
     <g id="text_19">
      <!-- 0.05 -->
      <g transform="translate(344.352292 226.795998) scale(0.1 -0.1)">
       <use xlink:href="#DejaVuSans-30"/>
       <use xlink:href="#DejaVuSans-2e" transform="translate(63.623047 0)"/>
       <use xlink:href="#DejaVuSans-30" transform="translate(95.410156 0)"/>
       <use xlink:href="#DejaVuSans-35" transform="translate(159.033203 0)"/>
      </g>
     </g>
    </g>
    <g id="ytick_8">
     <g id="line2d_26">
      <path d="M 373.617917 181.863365 
L 663.424583 181.863365 
" clip-path="url(#pd35e8046ac)" style="fill: none; stroke: #b0b0b0; stroke-opacity: 0.25; stroke-width: 0.8; stroke-linecap: square"/>
     </g>
     <g id="line2d_27">
      <g>
       <use xlink:href="#m640c9acf14" x="373.617917" y="181.863365" style="stroke: #000000; stroke-width: 0.8"/>
      </g>
     </g>
     <g id="text_20">
      <!-- 0.10 -->
      <g transform="translate(344.352292 185.662584) scale(0.1 -0.1)">
       <use xlink:href="#DejaVuSans-30"/>
       <use xlink:href="#DejaVuSans-2e" transform="translate(63.623047 0)"/>
       <use xlink:href="#DejaVuSans-31" transform="translate(95.410156 0)"/>
       <use xlink:href="#DejaVuSans-30" transform="translate(159.033203 0)"/>
      </g>
     </g>
    </g>
    <g id="ytick_9">
     <g id="line2d_28">
      <path d="M 373.617917 140.72995 
L 663.424583 140.72995 
" clip-path="url(#pd35e8046ac)" style="fill: none; stroke: #b0b0b0; stroke-opacity: 0.25; stroke-width: 0.8; stroke-linecap: square"/>
     </g>
     <g id="line2d_29">
      <g>
       <use xlink:href="#m640c9acf14" x="373.617917" y="140.72995" style="stroke: #000000; stroke-width: 0.8"/>
      </g>
     </g>
     <g id="text_21">
      <!-- 0.15 -->
      <g transform="translate(344.352292 144.529169) scale(0.1 -0.1)">
       <use xlink:href="#DejaVuSans-30"/>
       <use xlink:href="#DejaVuSans-2e" transform="translate(63.623047 0)"/>
       <use xlink:href="#DejaVuSans-31" transform="translate(95.410156 0)"/>
       <use xlink:href="#DejaVuSans-35" transform="translate(159.033203 0)"/>
      </g>
     </g>
    </g>
    <g id="ytick_10">
     <g id="line2d_30">
      <path d="M 373.617917 99.596536 
L 663.424583 99.596536 
" clip-path="url(#pd35e8046ac)" style="fill: none; stroke: #b0b0b0; stroke-opacity: 0.25; stroke-width: 0.8; stroke-linecap: square"/>
     </g>
     <g id="line2d_31">
      <g>
       <use xlink:href="#m640c9acf14" x="373.617917" y="99.596536" style="stroke: #000000; stroke-width: 0.8"/>
      </g>
     </g>
     <g id="text_22">
      <!-- 0.20 -->
      <g transform="translate(344.352292 103.395754) scale(0.1 -0.1)">
       <use xlink:href="#DejaVuSans-30"/>
       <use xlink:href="#DejaVuSans-2e" transform="translate(63.623047 0)"/>
       <use xlink:href="#DejaVuSans-32" transform="translate(95.410156 0)"/>
       <use xlink:href="#DejaVuSans-30" transform="translate(159.033203 0)"/>
      </g>
     </g>
    </g>
    <g id="ytick_11">
     <g id="line2d_32">
      <path d="M 373.617917 58.463121 
L 663.424583 58.463121 
" clip-path="url(#pd35e8046ac)" style="fill: none; stroke: #b0b0b0; stroke-opacity: 0.25; stroke-width: 0.8; stroke-linecap: square"/>
     </g>
     <g id="line2d_33">
      <g>
       <use xlink:href="#m640c9acf14" x="373.617917" y="58.463121" style="stroke: #000000; stroke-width: 0.8"/>
      </g>
     </g>
     <g id="text_23">
      <!-- 0.25 -->
      <g transform="translate(344.352292 62.26234) scale(0.1 -0.1)">
       <use xlink:href="#DejaVuSans-30"/>
       <use xlink:href="#DejaVuSans-2e" transform="translate(63.623047 0)"/>
       <use xlink:href="#DejaVuSans-32" transform="translate(95.410156 0)"/>
       <use xlink:href="#DejaVuSans-35" transform="translate(159.033203 0)"/>
      </g>
     </g>
    </g>
   </g>
   <g id="line2d_34">
    <path d="M 386.790947 69.664858 
L 452.656098 69.470375 
L 518.52125 67.720211 
L 584.386402 61.354771 
L 650.251553 72.64503 
" clip-path="url(#pd35e8046ac)" style="fill: none"/>
    <g clip-path="url(#pd35e8046ac)">
     <use xlink:href="#m43caeca676" x="386.790947" y="69.664858" style="fill: #1f77b4; stroke: #1f77b4"/>
     <use xlink:href="#m43caeca676" x="452.656098" y="69.470375" style="fill: #1f77b4; stroke: #1f77b4"/>
     <use xlink:href="#m43caeca676" x="518.52125" y="67.720211" style="fill: #1f77b4; stroke: #1f77b4"/>
     <use xlink:href="#m43caeca676" x="584.386402" y="61.354771" style="fill: #1f77b4; stroke: #1f77b4"/>
     <use xlink:href="#m43caeca676" x="650.251553" y="72.64503" style="fill: #1f77b4; stroke: #1f77b4"/>
    </g>
   </g>
   <g id="LineCollection_2">
    <path d="M 386.790947 264.130194 
L 386.790947 69.664858 
" clip-path="url(#pd35e8046ac)" style="fill: none; stroke: #1f77b4; stroke-opacity: 0.65; stroke-width: 2"/>
    <path d="M 452.656098 264.130194 
L 452.656098 69.470375 
" clip-path="url(#pd35e8046ac)" style="fill: none; stroke: #1f77b4; stroke-opacity: 0.65; stroke-width: 2"/>
    <path d="M 518.52125 264.130194 
L 518.52125 67.720211 
" clip-path="url(#pd35e8046ac)" style="fill: none; stroke: #1f77b4; stroke-opacity: 0.65; stroke-width: 2"/>
    <path d="M 584.386402 264.130194 
L 584.386402 61.354771 
" clip-path="url(#pd35e8046ac)" style="fill: none; stroke: #1f77b4; stroke-opacity: 0.65; stroke-width: 2"/>
    <path d="M 650.251553 264.130194 
L 650.251553 72.64503 
" clip-path="url(#pd35e8046ac)" style="fill: none; stroke: #1f77b4; stroke-opacity: 0.65; stroke-width: 2"/>
   </g>
   <g id="patch_6">
    <path d="M 373.617917 274.268965 
L 373.617917 51.216 
" style="fill: none; stroke: #000000; stroke-width: 0.8; stroke-linejoin: miter; stroke-linecap: square"/>
   </g>
   <g id="patch_7">
    <path d="M 373.617917 274.268965 
L 663.424583 274.268965 
" style="fill: none; stroke: #000000; stroke-width: 0.8; stroke-linejoin: miter; stroke-linecap: square"/>
   </g>
   <g id="text_24">
    <!-- TailGap -->
    <g transform="translate(496.700938 45.216) scale(0.12 -0.12)">
     <defs>
      <path id="DejaVuSans-54" d="M -19 4666 
L 3928 4666 
L 3928 4134 
L 2272 4134 
L 2272 0 
L 1638 0 
L 1638 4134 
L -19 4134 
L -19 4666 
z
" transform="scale(0.015625)"/>
      <path id="DejaVuSans-47" d="M 3809 666 
L 3809 1919 
L 2778 1919 
L 2778 2438 
L 4434 2438 
L 4434 434 
Q 4069 175 3628 42 
Q 3188 -91 2688 -91 
Q 1594 -91 976 548 
Q 359 1188 359 2328 
Q 359 3472 976 4111 
Q 1594 4750 2688 4750 
Q 3144 4750 3555 4637 
Q 3966 4525 4313 4306 
L 4313 3634 
Q 3963 3931 3569 4081 
Q 3175 4231 2741 4231 
Q 1884 4231 1454 3753 
Q 1025 3275 1025 2328 
Q 1025 1384 1454 906 
Q 1884 428 2741 428 
Q 3075 428 3337 486 
Q 3600 544 3809 666 
z
" transform="scale(0.015625)"/>
     </defs>
     <use xlink:href="#DejaVuSans-54"/>
     <use xlink:href="#DejaVuSans-61" transform="translate(44.583984 0)"/>
     <use xlink:href="#DejaVuSans-69" transform="translate(105.863281 0)"/>
     <use xlink:href="#DejaVuSans-6c" transform="translate(133.646484 0)"/>
     <use xlink:href="#DejaVuSans-47" transform="translate(161.429688 0)"/>
     <use xlink:href="#DejaVuSans-61" transform="translate(238.919922 0)"/>
     <use xlink:href="#DejaVuSans-70" transform="translate(300.199219 0)"/>
    </g>
   </g>
  </g>
  <g id="axes_3">
   <g id="patch_8">
    <path d="M 703.454583 274.268965 
L 993.26125 274.268965 
L 993.26125 51.216 
L 703.454583 51.216 
z
" style="fill: #ffffff"/>
   </g>
   <g id="matplotlib.axis_5">
    <g id="xtick_11">
     <g id="line2d_35">
      <g>
       <use xlink:href="#mf34f91dcf0" x="716.627614" y="274.268965" style="stroke: #000000; stroke-width: 0.8"/>
      </g>
     </g>
     <g id="text_25">
      <!-- raw -->
      <g transform="translate(699.389848 296.624333) rotate(-28) scale(0.1 -0.1)">
       <use xlink:href="#DejaVuSans-72"/>
       <use xlink:href="#DejaVuSans-61" transform="translate(41.113281 0)"/>
       <use xlink:href="#DejaVuSans-77" transform="translate(102.392578 0)"/>
      </g>
     </g>
    </g>
    <g id="xtick_12">
     <g id="line2d_36">
      <g>
       <use xlink:href="#mf34f91dcf0" x="782.492765" y="274.268965" style="stroke: #000000; stroke-width: 0.8"/>
      </g>
     </g>
     <g id="text_26">
      <!-- floor_0.001 -->
      <g transform="translate(731.697963 314.3975) rotate(-28) scale(0.1 -0.1)">
       <use xlink:href="#DejaVuSans-66"/>
       <use xlink:href="#DejaVuSans-6c" transform="translate(35.205078 0)"/>
       <use xlink:href="#DejaVuSans-6f" transform="translate(62.988281 0)"/>
       <use xlink:href="#DejaVuSans-6f" transform="translate(124.169922 0)"/>
       <use xlink:href="#DejaVuSans-72" transform="translate(185.351562 0)"/>
       <use xlink:href="#DejaVuSans-5f" transform="translate(226.464844 0)"/>
       <use xlink:href="#DejaVuSans-30" transform="translate(276.464844 0)"/>
       <use xlink:href="#DejaVuSans-2e" transform="translate(340.087891 0)"/>
       <use xlink:href="#DejaVuSans-30" transform="translate(371.875 0)"/>
       <use xlink:href="#DejaVuSans-30" transform="translate(435.498047 0)"/>
       <use xlink:href="#DejaVuSans-31" transform="translate(499.121094 0)"/>
      </g>
     </g>
    </g>
    <g id="xtick_13">
     <g id="line2d_37">
      <g>
       <use xlink:href="#mf34f91dcf0" x="848.357917" y="274.268965" style="stroke: #000000; stroke-width: 0.8"/>
      </g>
     </g>
     <g id="text_27">
      <!-- floor_0.01 -->
      <g transform="translate(803.180869 311.410487) rotate(-28) scale(0.1 -0.1)">
       <use xlink:href="#DejaVuSans-66"/>
       <use xlink:href="#DejaVuSans-6c" transform="translate(35.205078 0)"/>
       <use xlink:href="#DejaVuSans-6f" transform="translate(62.988281 0)"/>
       <use xlink:href="#DejaVuSans-6f" transform="translate(124.169922 0)"/>
       <use xlink:href="#DejaVuSans-72" transform="translate(185.351562 0)"/>
       <use xlink:href="#DejaVuSans-5f" transform="translate(226.464844 0)"/>
       <use xlink:href="#DejaVuSans-30" transform="translate(276.464844 0)"/>
       <use xlink:href="#DejaVuSans-2e" transform="translate(340.087891 0)"/>
       <use xlink:href="#DejaVuSans-30" transform="translate(371.875 0)"/>
       <use xlink:href="#DejaVuSans-31" transform="translate(435.498047 0)"/>
      </g>
     </g>
    </g>
    <g id="xtick_14">
     <g id="line2d_38">
      <g>
       <use xlink:href="#mf34f91dcf0" x="914.223068" y="274.268965" style="stroke: #000000; stroke-width: 0.8"/>
      </g>
     </g>
     <g id="text_28">
      <!-- floor_0.05 -->
      <g transform="translate(869.046021 311.410487) rotate(-28) scale(0.1 -0.1)">
       <use xlink:href="#DejaVuSans-66"/>
       <use xlink:href="#DejaVuSans-6c" transform="translate(35.205078 0)"/>
       <use xlink:href="#DejaVuSans-6f" transform="translate(62.988281 0)"/>
       <use xlink:href="#DejaVuSans-6f" transform="translate(124.169922 0)"/>
       <use xlink:href="#DejaVuSans-72" transform="translate(185.351562 0)"/>
       <use xlink:href="#DejaVuSans-5f" transform="translate(226.464844 0)"/>
       <use xlink:href="#DejaVuSans-30" transform="translate(276.464844 0)"/>
       <use xlink:href="#DejaVuSans-2e" transform="translate(340.087891 0)"/>
       <use xlink:href="#DejaVuSans-30" transform="translate(371.875 0)"/>
       <use xlink:href="#DejaVuSans-35" transform="translate(435.498047 0)"/>
      </g>
     </g>
    </g>
    <g id="xtick_15">
     <g id="line2d_39">
      <g>
       <use xlink:href="#mf34f91dcf0" x="980.08822" y="274.268965" style="stroke: #000000; stroke-width: 0.8"/>
      </g>
     </g>
     <g id="text_29">
      <!-- positive_only -->
      <g transform="translate(921.255836 318.671158) rotate(-28) scale(0.1 -0.1)">
       <use xlink:href="#DejaVuSans-70"/>
       <use xlink:href="#DejaVuSans-6f" transform="translate(63.476562 0)"/>
       <use xlink:href="#DejaVuSans-73" transform="translate(124.658203 0)"/>
       <use xlink:href="#DejaVuSans-69" transform="translate(176.757812 0)"/>
       <use xlink:href="#DejaVuSans-74" transform="translate(204.541016 0)"/>
       <use xlink:href="#DejaVuSans-69" transform="translate(243.75 0)"/>
       <use xlink:href="#DejaVuSans-76" transform="translate(271.533203 0)"/>
       <use xlink:href="#DejaVuSans-65" transform="translate(330.712891 0)"/>
       <use xlink:href="#DejaVuSans-5f" transform="translate(392.236328 0)"/>
       <use xlink:href="#DejaVuSans-6f" transform="translate(442.236328 0)"/>
       <use xlink:href="#DejaVuSans-6e" transform="translate(503.417969 0)"/>
       <use xlink:href="#DejaVuSans-6c" transform="translate(566.796875 0)"/>
       <use xlink:href="#DejaVuSans-79" transform="translate(594.580078 0)"/>
      </g>
     </g>
    </g>
   </g>
   <g id="matplotlib.axis_6">
    <g id="ytick_12">
     <g id="line2d_40">
      <path d="M 703.454583 264.130194 
L 993.26125 264.130194 
" clip-path="url(#p5136198b12)" style="fill: none; stroke: #b0b0b0; stroke-opacity: 0.25; stroke-width: 0.8; stroke-linecap: square"/>
     </g>
     <g id="line2d_41">
      <g>
       <use xlink:href="#m640c9acf14" x="703.454583" y="264.130194" style="stroke: #000000; stroke-width: 0.8"/>
      </g>
     </g>
     <g id="text_30">
      <!-- 0.00 -->
      <g transform="translate(674.188958 267.929413) scale(0.1 -0.1)">
       <use xlink:href="#DejaVuSans-30"/>
       <use xlink:href="#DejaVuSans-2e" transform="translate(63.623047 0)"/>
       <use xlink:href="#DejaVuSans-30" transform="translate(95.410156 0)"/>
       <use xlink:href="#DejaVuSans-30" transform="translate(159.033203 0)"/>
      </g>
     </g>
    </g>
    <g id="ytick_13">
     <g id="line2d_42">
      <path d="M 703.454583 238.652105 
L 993.26125 238.652105 
" clip-path="url(#p5136198b12)" style="fill: none; stroke: #b0b0b0; stroke-opacity: 0.25; stroke-width: 0.8; stroke-linecap: square"/>
     </g>
     <g id="line2d_43">
      <g>
       <use xlink:href="#m640c9acf14" x="703.454583" y="238.652105" style="stroke: #000000; stroke-width: 0.8"/>
      </g>
     </g>
     <g id="text_31">
      <!-- 0.02 -->
      <g transform="translate(674.188958 242.451324) scale(0.1 -0.1)">
       <use xlink:href="#DejaVuSans-30"/>
       <use xlink:href="#DejaVuSans-2e" transform="translate(63.623047 0)"/>
       <use xlink:href="#DejaVuSans-30" transform="translate(95.410156 0)"/>
       <use xlink:href="#DejaVuSans-32" transform="translate(159.033203 0)"/>
      </g>
     </g>
    </g>
    <g id="ytick_14">
     <g id="line2d_44">
      <path d="M 703.454583 213.174015 
L 993.26125 213.174015 
" clip-path="url(#p5136198b12)" style="fill: none; stroke: #b0b0b0; stroke-opacity: 0.25; stroke-width: 0.8; stroke-linecap: square"/>
     </g>
     <g id="line2d_45">
      <g>
       <use xlink:href="#m640c9acf14" x="703.454583" y="213.174015" style="stroke: #000000; stroke-width: 0.8"/>
      </g>
     </g>
     <g id="text_32">
      <!-- 0.04 -->
      <g transform="translate(674.188958 216.973234) scale(0.1 -0.1)">
       <use xlink:href="#DejaVuSans-30"/>
       <use xlink:href="#DejaVuSans-2e" transform="translate(63.623047 0)"/>
       <use xlink:href="#DejaVuSans-30" transform="translate(95.410156 0)"/>
       <use xlink:href="#DejaVuSans-34" transform="translate(159.033203 0)"/>
      </g>
     </g>
    </g>
    <g id="ytick_15">
     <g id="line2d_46">
      <path d="M 703.454583 187.695926 
L 993.26125 187.695926 
" clip-path="url(#p5136198b12)" style="fill: none; stroke: #b0b0b0; stroke-opacity: 0.25; stroke-width: 0.8; stroke-linecap: square"/>
     </g>
     <g id="line2d_47">
      <g>
       <use xlink:href="#m640c9acf14" x="703.454583" y="187.695926" style="stroke: #000000; stroke-width: 0.8"/>
      </g>
     </g>
     <g id="text_33">
      <!-- 0.06 -->
      <g transform="translate(674.188958 191.495144) scale(0.1 -0.1)">
       <use xlink:href="#DejaVuSans-30"/>
       <use xlink:href="#DejaVuSans-2e" transform="translate(63.623047 0)"/>
       <use xlink:href="#DejaVuSans-30" transform="translate(95.410156 0)"/>
       <use xlink:href="#DejaVuSans-36" transform="translate(159.033203 0)"/>
      </g>
     </g>
    </g>
    <g id="ytick_16">
     <g id="line2d_48">
      <path d="M 703.454583 162.217836 
L 993.26125 162.217836 
" clip-path="url(#p5136198b12)" style="fill: none; stroke: #b0b0b0; stroke-opacity: 0.25; stroke-width: 0.8; stroke-linecap: square"/>
     </g>
     <g id="line2d_49">
      <g>
       <use xlink:href="#m640c9acf14" x="703.454583" y="162.217836" style="stroke: #000000; stroke-width: 0.8"/>
      </g>
     </g>
     <g id="text_34">
      <!-- 0.08 -->
      <g transform="translate(674.188958 166.017055) scale(0.1 -0.1)">
       <use xlink:href="#DejaVuSans-30"/>
       <use xlink:href="#DejaVuSans-2e" transform="translate(63.623047 0)"/>
       <use xlink:href="#DejaVuSans-30" transform="translate(95.410156 0)"/>
       <use xlink:href="#DejaVuSans-38" transform="translate(159.033203 0)"/>
      </g>
     </g>
    </g>
    <g id="ytick_17">
     <g id="line2d_50">
      <path d="M 703.454583 136.739747 
L 993.26125 136.739747 
" clip-path="url(#p5136198b12)" style="fill: none; stroke: #b0b0b0; stroke-opacity: 0.25; stroke-width: 0.8; stroke-linecap: square"/>
     </g>
     <g id="line2d_51">
      <g>
       <use xlink:href="#m640c9acf14" x="703.454583" y="136.739747" style="stroke: #000000; stroke-width: 0.8"/>
      </g>
     </g>
     <g id="text_35">
      <!-- 0.10 -->
      <g transform="translate(674.188958 140.538965) scale(0.1 -0.1)">
       <use xlink:href="#DejaVuSans-30"/>
       <use xlink:href="#DejaVuSans-2e" transform="translate(63.623047 0)"/>
       <use xlink:href="#DejaVuSans-31" transform="translate(95.410156 0)"/>
       <use xlink:href="#DejaVuSans-30" transform="translate(159.033203 0)"/>
      </g>
     </g>
    </g>
    <g id="ytick_18">
     <g id="line2d_52">
      <path d="M 703.454583 111.261657 
L 993.26125 111.261657 
" clip-path="url(#p5136198b12)" style="fill: none; stroke: #b0b0b0; stroke-opacity: 0.25; stroke-width: 0.8; stroke-linecap: square"/>
     </g>
     <g id="line2d_53">
      <g>
       <use xlink:href="#m640c9acf14" x="703.454583" y="111.261657" style="stroke: #000000; stroke-width: 0.8"/>
      </g>
     </g>
     <g id="text_36">
      <!-- 0.12 -->
      <g transform="translate(674.188958 115.060876) scale(0.1 -0.1)">
       <use xlink:href="#DejaVuSans-30"/>
       <use xlink:href="#DejaVuSans-2e" transform="translate(63.623047 0)"/>
       <use xlink:href="#DejaVuSans-31" transform="translate(95.410156 0)"/>
       <use xlink:href="#DejaVuSans-32" transform="translate(159.033203 0)"/>
      </g>
     </g>
    </g>
    <g id="ytick_19">
     <g id="line2d_54">
      <path d="M 703.454583 85.783568 
L 993.26125 85.783568 
" clip-path="url(#p5136198b12)" style="fill: none; stroke: #b0b0b0; stroke-opacity: 0.25; stroke-width: 0.8; stroke-linecap: square"/>
     </g>
     <g id="line2d_55">
      <g>
       <use xlink:href="#m640c9acf14" x="703.454583" y="85.783568" style="stroke: #000000; stroke-width: 0.8"/>
      </g>
     </g>
     <g id="text_37">
      <!-- 0.14 -->
      <g transform="translate(674.188958 89.582786) scale(0.1 -0.1)">
       <use xlink:href="#DejaVuSans-30"/>
       <use xlink:href="#DejaVuSans-2e" transform="translate(63.623047 0)"/>
       <use xlink:href="#DejaVuSans-31" transform="translate(95.410156 0)"/>
       <use xlink:href="#DejaVuSans-34" transform="translate(159.033203 0)"/>
      </g>
     </g>
    </g>
    <g id="ytick_20">
     <g id="line2d_56">
      <path d="M 703.454583 60.305478 
L 993.26125 60.305478 
" clip-path="url(#p5136198b12)" style="fill: none; stroke: #b0b0b0; stroke-opacity: 0.25; stroke-width: 0.8; stroke-linecap: square"/>
     </g>
     <g id="line2d_57">
      <g>
       <use xlink:href="#m640c9acf14" x="703.454583" y="60.305478" style="stroke: #000000; stroke-width: 0.8"/>
      </g>
     </g>
     <g id="text_38">
      <!-- 0.16 -->
      <g transform="translate(674.188958 64.104697) scale(0.1 -0.1)">
       <use xlink:href="#DejaVuSans-30"/>
       <use xlink:href="#DejaVuSans-2e" transform="translate(63.623047 0)"/>
       <use xlink:href="#DejaVuSans-31" transform="translate(95.410156 0)"/>
       <use xlink:href="#DejaVuSans-36" transform="translate(159.033203 0)"/>
      </g>
     </g>
    </g>
   </g>
   <g id="line2d_58">
    <path d="M 716.627614 158.410818 
L 782.492765 158.503648 
L 848.357917 159.3303 
L 914.223068 162.803133 
L 980.08822 61.354771 
" clip-path="url(#p5136198b12)" style="fill: none"/>
    <g clip-path="url(#p5136198b12)">
     <use xlink:href="#m43caeca676" x="716.627614" y="158.410818" style="fill: #1f77b4; stroke: #1f77b4"/>
     <use xlink:href="#m43caeca676" x="782.492765" y="158.503648" style="fill: #1f77b4; stroke: #1f77b4"/>
     <use xlink:href="#m43caeca676" x="848.357917" y="159.3303" style="fill: #1f77b4; stroke: #1f77b4"/>
     <use xlink:href="#m43caeca676" x="914.223068" y="162.803133" style="fill: #1f77b4; stroke: #1f77b4"/>
     <use xlink:href="#m43caeca676" x="980.08822" y="61.354771" style="fill: #1f77b4; stroke: #1f77b4"/>
    </g>
   </g>
   <g id="LineCollection_3">
    <path d="M 716.627614 264.130194 
L 716.627614 158.410818 
" clip-path="url(#p5136198b12)" style="fill: none; stroke: #1f77b4; stroke-opacity: 0.65; stroke-width: 2"/>
    <path d="M 782.492765 264.130194 
L 782.492765 158.503648 
" clip-path="url(#p5136198b12)" style="fill: none; stroke: #1f77b4; stroke-opacity: 0.65; stroke-width: 2"/>
    <path d="M 848.357917 264.130194 
L 848.357917 159.3303 
" clip-path="url(#p5136198b12)" style="fill: none; stroke: #1f77b4; stroke-opacity: 0.65; stroke-width: 2"/>
    <path d="M 914.223068 264.130194 
L 914.223068 162.803133 
" clip-path="url(#p5136198b12)" style="fill: none; stroke: #1f77b4; stroke-opacity: 0.65; stroke-width: 2"/>
    <path d="M 980.08822 264.130194 
L 980.08822 61.354771 
" clip-path="url(#p5136198b12)" style="fill: none; stroke: #1f77b4; stroke-opacity: 0.65; stroke-width: 2"/>
   </g>
   <g id="patch_9">
    <path d="M 703.454583 274.268965 
L 703.454583 51.216 
" style="fill: none; stroke: #000000; stroke-width: 0.8; stroke-linejoin: miter; stroke-linecap: square"/>
   </g>
   <g id="patch_10">
    <path d="M 703.454583 274.268965 
L 993.26125 274.268965 
" style="fill: none; stroke: #000000; stroke-width: 0.8; stroke-linejoin: miter; stroke-linecap: square"/>
   </g>
   <g id="text_39">
    <!-- Std -->
    <g transform="translate(838.387604 45.216) scale(0.12 -0.12)">
     <defs>
      <path id="DejaVuSans-53" d="M 3425 4513 
L 3425 3897 
Q 3066 4069 2747 4153 
Q 2428 4238 2131 4238 
Q 1616 4238 1336 4038 
Q 1056 3838 1056 3469 
Q 1056 3159 1242 3001 
Q 1428 2844 1947 2747 
L 2328 2669 
Q 3034 2534 3370 2195 
Q 3706 1856 3706 1288 
Q 3706 609 3251 259 
Q 2797 -91 1919 -91 
Q 1588 -91 1214 -16 
Q 841 59 441 206 
L 441 856 
Q 825 641 1194 531 
Q 1563 422 1919 422 
Q 2459 422 2753 634 
Q 3047 847 3047 1241 
Q 3047 1584 2836 1778 
Q 2625 1972 2144 2069 
L 1759 2144 
Q 1053 2284 737 2584 
Q 422 2884 422 3419 
Q 422 4038 858 4394 
Q 1294 4750 2059 4750 
Q 2388 4750 2728 4690 
Q 3069 4631 3425 4513 
z
" transform="scale(0.015625)"/>
      <path id="DejaVuSans-64" d="M 2906 2969 
L 2906 4863 
L 3481 4863 
L 3481 0 
L 2906 0 
L 2906 525 
Q 2725 213 2448 61 
Q 2172 -91 1784 -91 
Q 1150 -91 751 415 
Q 353 922 353 1747 
Q 353 2572 751 3078 
Q 1150 3584 1784 3584 
Q 2172 3584 2448 3432 
Q 2725 3281 2906 2969 
z
M 947 1747 
Q 947 1113 1208 752 
Q 1469 391 1925 391 
Q 2381 391 2643 752 
Q 2906 1113 2906 1747 
Q 2906 2381 2643 2742 
Q 2381 3103 1925 3103 
Q 1469 3103 1208 2742 
Q 947 2381 947 1747 
z
" transform="scale(0.015625)"/>
     </defs>
     <use xlink:href="#DejaVuSans-53"/>
     <use xlink:href="#DejaVuSans-74" transform="translate(63.476562 0)"/>
     <use xlink:href="#DejaVuSans-64" transform="translate(102.685547 0)"/>
    </g>
   </g>
  </g>
  <g id="text_40">
   <!-- Figure 9: Exposure floor removes raw zero-risk degeneration -->
   <g transform="translate(293.379063 16.318125) scale(0.12 -0.12)">
    <defs>
     <path id="DejaVuSans-Bold-46" d="M 588 4666 
L 3834 4666 
L 3834 3756 
L 1791 3756 
L 1791 2888 
L 3713 2888 
L 3713 1978 
L 1791 1978 
L 1791 0 
L 588 0 
L 588 4666 
z
" transform="scale(0.015625)"/>
     <path id="DejaVuSans-Bold-69" d="M 538 3500 
L 1656 3500 
L 1656 0 
L 538 0 
L 538 3500 
z
M 538 4863 
L 1656 4863 
L 1656 3950 
L 538 3950 
L 538 4863 
z
" transform="scale(0.015625)"/>
     <path id="DejaVuSans-Bold-67" d="M 2919 594 
Q 2688 288 2409 144 
Q 2131 0 1766 0 
Q 1125 0 706 504 
Q 288 1009 288 1791 
Q 288 2575 706 3076 
Q 1125 3578 1766 3578 
Q 2131 3578 2409 3434 
Q 2688 3291 2919 2981 
L 2919 3500 
L 4044 3500 
L 4044 353 
Q 4044 -491 3511 -936 
Q 2978 -1381 1966 -1381 
Q 1638 -1381 1331 -1331 
Q 1025 -1281 716 -1178 
L 716 -306 
Q 1009 -475 1290 -558 
Q 1572 -641 1856 -641 
Q 2406 -641 2662 -400 
Q 2919 -159 2919 353 
L 2919 594 
z
M 2181 2772 
Q 1834 2772 1640 2515 
Q 1447 2259 1447 1791 
Q 1447 1309 1634 1061 
Q 1822 813 2181 813 
Q 2531 813 2725 1069 
Q 2919 1325 2919 1791 
Q 2919 2259 2725 2515 
Q 2531 2772 2181 2772 
z
" transform="scale(0.015625)"/>
     <path id="DejaVuSans-Bold-75" d="M 500 1363 
L 500 3500 
L 1625 3500 
L 1625 3150 
Q 1625 2866 1622 2436 
Q 1619 2006 1619 1863 
Q 1619 1441 1641 1255 
Q 1663 1069 1716 984 
Q 1784 875 1895 815 
Q 2006 756 2150 756 
Q 2500 756 2700 1025 
Q 2900 1294 2900 1772 
L 2900 3500 
L 4019 3500 
L 4019 0 
L 2900 0 
L 2900 506 
Q 2647 200 2364 54 
Q 2081 -91 1741 -91 
Q 1134 -91 817 281 
Q 500 653 500 1363 
z
" transform="scale(0.015625)"/>
     <path id="DejaVuSans-Bold-72" d="M 3138 2547 
Q 2991 2616 2845 2648 
Q 2700 2681 2553 2681 
Q 2122 2681 1889 2404 
Q 1656 2128 1656 1613 
L 1656 0 
L 538 0 
L 538 3500 
L 1656 3500 
L 1656 2925 
Q 1872 3269 2151 3426 
Q 2431 3584 2822 3584 
Q 2878 3584 2943 3579 
Q 3009 3575 3134 3559 
L 3138 2547 
z
" transform="scale(0.015625)"/>
     <path id="DejaVuSans-Bold-65" d="M 4031 1759 
L 4031 1441 
L 1416 1441 
Q 1456 1047 1700 850 
Q 1944 653 2381 653 
Q 2734 653 3104 758 
Q 3475 863 3866 1075 
L 3866 213 
Q 3469 63 3072 -14 
Q 2675 -91 2278 -91 
Q 1328 -91 801 392 
Q 275 875 275 1747 
Q 275 2603 792 3093 
Q 1309 3584 2216 3584 
Q 3041 3584 3536 3087 
Q 4031 2591 4031 1759 
z
M 2881 2131 
Q 2881 2450 2695 2645 
Q 2509 2841 2209 2841 
Q 1884 2841 1681 2658 
Q 1478 2475 1428 2131 
L 2881 2131 
z
" transform="scale(0.015625)"/>
     <path id="DejaVuSans-Bold-20" transform="scale(0.015625)"/>
     <path id="DejaVuSans-Bold-39" d="M 641 103 
L 641 966 
Q 928 831 1190 764 
Q 1453 697 1709 697 
Q 2247 697 2547 995 
Q 2847 1294 2900 1881 
Q 2688 1725 2447 1647 
Q 2206 1569 1925 1569 
Q 1209 1569 770 1986 
Q 331 2403 331 3084 
Q 331 3838 820 4291 
Q 1309 4744 2131 4744 
Q 3044 4744 3544 4128 
Q 4044 3513 4044 2388 
Q 4044 1231 3459 570 
Q 2875 -91 1856 -91 
Q 1528 -91 1228 -42 
Q 928 6 641 103 
z
M 2125 2350 
Q 2441 2350 2600 2554 
Q 2759 2759 2759 3169 
Q 2759 3575 2600 3781 
Q 2441 3988 2125 3988 
Q 1809 3988 1650 3781 
Q 1491 3575 1491 3169 
Q 1491 2759 1650 2554 
Q 1809 2350 2125 2350 
z
" transform="scale(0.015625)"/>
     <path id="DejaVuSans-Bold-3a" d="M 716 3500 
L 1844 3500 
L 1844 2291 
L 716 2291 
L 716 3500 
z
M 716 1209 
L 1844 1209 
L 1844 0 
L 716 0 
L 716 1209 
z
" transform="scale(0.015625)"/>
     <path id="DejaVuSans-Bold-45" d="M 588 4666 
L 3834 4666 
L 3834 3756 
L 1791 3756 
L 1791 2888 
L 3713 2888 
L 3713 1978 
L 1791 1978 
L 1791 909 
L 3903 909 
L 3903 0 
L 588 0 
L 588 4666 
z
" transform="scale(0.015625)"/>
     <path id="DejaVuSans-Bold-78" d="M 1422 1791 
L 159 3500 
L 1344 3500 
L 2059 2463 
L 2784 3500 
L 3969 3500 
L 2706 1797 
L 4031 0 
L 2847 0 
L 2059 1106 
L 1281 0 
L 97 0 
L 1422 1791 
z
" transform="scale(0.015625)"/>
     <path id="DejaVuSans-Bold-70" d="M 1656 506 
L 1656 -1331 
L 538 -1331 
L 538 3500 
L 1656 3500 
L 1656 2988 
Q 1888 3294 2169 3439 
Q 2450 3584 2816 3584 
Q 3463 3584 3878 3070 
Q 4294 2556 4294 1747 
Q 4294 938 3878 423 
Q 3463 -91 2816 -91 
Q 2450 -91 2169 54 
Q 1888 200 1656 506 
z
M 2400 2772 
Q 2041 2772 1848 2508 
Q 1656 2244 1656 1747 
Q 1656 1250 1848 986 
Q 2041 722 2400 722 
Q 2759 722 2948 984 
Q 3138 1247 3138 1747 
Q 3138 2247 2948 2509 
Q 2759 2772 2400 2772 
z
" transform="scale(0.015625)"/>
     <path id="DejaVuSans-Bold-6f" d="M 2203 2784 
Q 1831 2784 1636 2517 
Q 1441 2250 1441 1747 
Q 1441 1244 1636 976 
Q 1831 709 2203 709 
Q 2569 709 2762 976 
Q 2956 1244 2956 1747 
Q 2956 2250 2762 2517 
Q 2569 2784 2203 2784 
z
M 2203 3584 
Q 3106 3584 3614 3096 
Q 4122 2609 4122 1747 
Q 4122 884 3614 396 
Q 3106 -91 2203 -91 
Q 1297 -91 786 396 
Q 275 884 275 1747 
Q 275 2609 786 3096 
Q 1297 3584 2203 3584 
z
" transform="scale(0.015625)"/>
     <path id="DejaVuSans-Bold-73" d="M 3272 3391 
L 3272 2541 
Q 2913 2691 2578 2766 
Q 2244 2841 1947 2841 
Q 1628 2841 1473 2761 
Q 1319 2681 1319 2516 
Q 1319 2381 1436 2309 
Q 1553 2238 1856 2203 
L 2053 2175 
Q 2913 2066 3209 1816 
Q 3506 1566 3506 1031 
Q 3506 472 3093 190 
Q 2681 -91 1863 -91 
Q 1516 -91 1145 -36 
Q 775 19 384 128 
L 384 978 
Q 719 816 1070 734 
Q 1422 653 1784 653 
Q 2113 653 2278 743 
Q 2444 834 2444 1013 
Q 2444 1163 2330 1236 
Q 2216 1309 1875 1350 
L 1678 1375 
Q 931 1469 631 1722 
Q 331 1975 331 2491 
Q 331 3047 712 3315 
Q 1094 3584 1881 3584 
Q 2191 3584 2531 3537 
Q 2872 3491 3272 3391 
z
" transform="scale(0.015625)"/>
     <path id="DejaVuSans-Bold-66" d="M 2841 4863 
L 2841 4128 
L 2222 4128 
Q 1984 4128 1890 4042 
Q 1797 3956 1797 3744 
L 1797 3500 
L 2753 3500 
L 2753 2700 
L 1797 2700 
L 1797 0 
L 678 0 
L 678 2700 
L 122 2700 
L 122 3500 
L 678 3500 
L 678 3744 
Q 678 4316 997 4589 
Q 1316 4863 1984 4863 
L 2841 4863 
z
" transform="scale(0.015625)"/>
     <path id="DejaVuSans-Bold-6c" d="M 538 4863 
L 1656 4863 
L 1656 0 
L 538 0 
L 538 4863 
z
" transform="scale(0.015625)"/>
     <path id="DejaVuSans-Bold-6d" d="M 3781 2919 
Q 3994 3244 4286 3414 
Q 4578 3584 4928 3584 
Q 5531 3584 5847 3212 
Q 6163 2841 6163 2131 
L 6163 0 
L 5038 0 
L 5038 1825 
Q 5041 1866 5042 1909 
Q 5044 1953 5044 2034 
Q 5044 2406 4934 2573 
Q 4825 2741 4581 2741 
Q 4263 2741 4089 2478 
Q 3916 2216 3909 1719 
L 3909 0 
L 2784 0 
L 2784 1825 
Q 2784 2406 2684 2573 
Q 2584 2741 2328 2741 
Q 2006 2741 1831 2477 
Q 1656 2213 1656 1722 
L 1656 0 
L 531 0 
L 531 3500 
L 1656 3500 
L 1656 2988 
Q 1863 3284 2130 3434 
Q 2397 3584 2719 3584 
Q 3081 3584 3359 3409 
Q 3638 3234 3781 2919 
z
" transform="scale(0.015625)"/>
     <path id="DejaVuSans-Bold-76" d="M 97 3500 
L 1216 3500 
L 2088 1081 
L 2956 3500 
L 4078 3500 
L 2700 0 
L 1472 0 
L 97 3500 
z
" transform="scale(0.015625)"/>
     <path id="DejaVuSans-Bold-61" d="M 2106 1575 
Q 1756 1575 1579 1456 
Q 1403 1338 1403 1106 
Q 1403 894 1545 773 
Q 1688 653 1941 653 
Q 2256 653 2472 879 
Q 2688 1106 2688 1447 
L 2688 1575 
L 2106 1575 
z
M 3816 1997 
L 3816 0 
L 2688 0 
L 2688 519 
Q 2463 200 2181 54 
Q 1900 -91 1497 -91 
Q 953 -91 614 226 
Q 275 544 275 1050 
Q 275 1666 698 1953 
Q 1122 2241 2028 2241 
L 2688 2241 
L 2688 2328 
Q 2688 2594 2478 2717 
Q 2269 2841 1825 2841 
Q 1466 2841 1156 2769 
Q 847 2697 581 2553 
L 581 3406 
Q 941 3494 1303 3539 
Q 1666 3584 2028 3584 
Q 2975 3584 3395 3211 
Q 3816 2838 3816 1997 
z
" transform="scale(0.015625)"/>
     <path id="DejaVuSans-Bold-77" d="M 225 3500 
L 1313 3500 
L 1900 1088 
L 2491 3500 
L 3425 3500 
L 4013 1113 
L 4603 3500 
L 5691 3500 
L 4769 0 
L 3547 0 
L 2956 2406 
L 2369 0 
L 1147 0 
L 225 3500 
z
" transform="scale(0.015625)"/>
     <path id="DejaVuSans-Bold-7a" d="M 366 3500 
L 3419 3500 
L 3419 2719 
L 1575 800 
L 3419 800 
L 3419 0 
L 288 0 
L 288 781 
L 2131 2700 
L 366 2700 
L 366 3500 
z
" transform="scale(0.015625)"/>
     <path id="DejaVuSans-Bold-2d" d="M 347 2297 
L 2309 2297 
L 2309 1388 
L 347 1388 
L 347 2297 
z
" transform="scale(0.015625)"/>
     <path id="DejaVuSans-Bold-6b" d="M 538 4863 
L 1656 4863 
L 1656 2216 
L 2944 3500 
L 4244 3500 
L 2534 1894 
L 4378 0 
L 3022 0 
L 1656 1459 
L 1656 0 
L 538 0 
L 538 4863 
z
" transform="scale(0.015625)"/>
     <path id="DejaVuSans-Bold-64" d="M 2919 2988 
L 2919 4863 
L 4044 4863 
L 4044 0 
L 2919 0 
L 2919 506 
Q 2688 197 2409 53 
Q 2131 -91 1766 -91 
Q 1119 -91 703 423 
Q 288 938 288 1747 
Q 288 2556 703 3070 
Q 1119 3584 1766 3584 
Q 2128 3584 2408 3439 
Q 2688 3294 2919 2988 
z
M 2181 722 
Q 2541 722 2730 984 
Q 2919 1247 2919 1747 
Q 2919 2247 2730 2509 
Q 2541 2772 2181 2772 
Q 1825 2772 1636 2509 
Q 1447 2247 1447 1747 
Q 1447 1247 1636 984 
Q 1825 722 2181 722 
z
" transform="scale(0.015625)"/>
     <path id="DejaVuSans-Bold-6e" d="M 4056 2131 
L 4056 0 
L 2931 0 
L 2931 347 
L 2931 1631 
Q 2931 2084 2911 2256 
Q 2891 2428 2841 2509 
Q 2775 2619 2662 2680 
Q 2550 2741 2406 2741 
Q 2056 2741 1856 2470 
Q 1656 2200 1656 1722 
L 1656 0 
L 538 0 
L 538 3500 
L 1656 3500 
L 1656 2988 
Q 1909 3294 2193 3439 
Q 2478 3584 2822 3584 
Q 3428 3584 3742 3212 
Q 4056 2841 4056 2131 
z
" transform="scale(0.015625)"/>
     <path id="DejaVuSans-Bold-74" d="M 1759 4494 
L 1759 3500 
L 2913 3500 
L 2913 2700 
L 1759 2700 
L 1759 1216 
Q 1759 972 1856 886 
Q 1953 800 2241 800 
L 2816 800 
L 2816 0 
L 1856 0 
Q 1194 0 917 276 
Q 641 553 641 1216 
L 641 2700 
L 84 2700 
L 84 3500 
L 641 3500 
L 641 4494 
L 1759 4494 
z
" transform="scale(0.015625)"/>
    </defs>
    <use xlink:href="#DejaVuSans-Bold-46"/>
    <use xlink:href="#DejaVuSans-Bold-69" transform="translate(68.310547 0)"/>
    <use xlink:href="#DejaVuSans-Bold-67" transform="translate(102.587891 0)"/>
    <use xlink:href="#DejaVuSans-Bold-75" transform="translate(174.169922 0)"/>
    <use xlink:href="#DejaVuSans-Bold-72" transform="translate(245.361328 0)"/>
    <use xlink:href="#DejaVuSans-Bold-65" transform="translate(294.677734 0)"/>
    <use xlink:href="#DejaVuSans-Bold-20" transform="translate(362.5 0)"/>
    <use xlink:href="#DejaVuSans-Bold-39" transform="translate(397.314453 0)"/>
    <use xlink:href="#DejaVuSans-Bold-3a" transform="translate(466.894531 0)"/>
    <use xlink:href="#DejaVuSans-Bold-20" transform="translate(506.884766 0)"/>
    <use xlink:href="#DejaVuSans-Bold-45" transform="translate(541.699219 0)"/>
    <use xlink:href="#DejaVuSans-Bold-78" transform="translate(610.009766 0)"/>
    <use xlink:href="#DejaVuSans-Bold-70" transform="translate(674.511719 0)"/>
    <use xlink:href="#DejaVuSans-Bold-6f" transform="translate(746.09375 0)"/>
    <use xlink:href="#DejaVuSans-Bold-73" transform="translate(814.794922 0)"/>
    <use xlink:href="#DejaVuSans-Bold-75" transform="translate(874.316406 0)"/>
    <use xlink:href="#DejaVuSans-Bold-72" transform="translate(945.507812 0)"/>
    <use xlink:href="#DejaVuSans-Bold-65" transform="translate(994.824219 0)"/>
    <use xlink:href="#DejaVuSans-Bold-20" transform="translate(1062.646484 0)"/>
    <use xlink:href="#DejaVuSans-Bold-66" transform="translate(1097.460938 0)"/>
    <use xlink:href="#DejaVuSans-Bold-6c" transform="translate(1140.966797 0)"/>
    <use xlink:href="#DejaVuSans-Bold-6f" transform="translate(1175.244141 0)"/>
    <use xlink:href="#DejaVuSans-Bold-6f" transform="translate(1243.945312 0)"/>
    <use xlink:href="#DejaVuSans-Bold-72" transform="translate(1312.646484 0)"/>
    <use xlink:href="#DejaVuSans-Bold-20" transform="translate(1361.962891 0)"/>
    <use xlink:href="#DejaVuSans-Bold-72" transform="translate(1396.777344 0)"/>
    <use xlink:href="#DejaVuSans-Bold-65" transform="translate(1446.09375 0)"/>
    <use xlink:href="#DejaVuSans-Bold-6d" transform="translate(1513.916016 0)"/>
    <use xlink:href="#DejaVuSans-Bold-6f" transform="translate(1618.115234 0)"/>
    <use xlink:href="#DejaVuSans-Bold-76" transform="translate(1686.816406 0)"/>
    <use xlink:href="#DejaVuSans-Bold-65" transform="translate(1752.001953 0)"/>
    <use xlink:href="#DejaVuSans-Bold-73" transform="translate(1819.824219 0)"/>
    <use xlink:href="#DejaVuSans-Bold-20" transform="translate(1879.345703 0)"/>
    <use xlink:href="#DejaVuSans-Bold-72" transform="translate(1914.160156 0)"/>
    <use xlink:href="#DejaVuSans-Bold-61" transform="translate(1963.476562 0)"/>
    <use xlink:href="#DejaVuSans-Bold-77" transform="translate(2030.957031 0)"/>
    <use xlink:href="#DejaVuSans-Bold-20" transform="translate(2123.339844 0)"/>
    <use xlink:href="#DejaVuSans-Bold-7a" transform="translate(2158.154297 0)"/>
    <use xlink:href="#DejaVuSans-Bold-65" transform="translate(2216.357422 0)"/>
    <use xlink:href="#DejaVuSans-Bold-72" transform="translate(2284.179688 0)"/>
    <use xlink:href="#DejaVuSans-Bold-6f" transform="translate(2333.496094 0)"/>
    <use xlink:href="#DejaVuSans-Bold-2d" transform="translate(2402.197266 0)"/>
    <use xlink:href="#DejaVuSans-Bold-72" transform="translate(2443.701172 0)"/>
    <use xlink:href="#DejaVuSans-Bold-69" transform="translate(2493.017578 0)"/>
    <use xlink:href="#DejaVuSans-Bold-73" transform="translate(2527.294922 0)"/>
    <use xlink:href="#DejaVuSans-Bold-6b" transform="translate(2586.816406 0)"/>
    <use xlink:href="#DejaVuSans-Bold-20" transform="translate(2653.320312 0)"/>
    <use xlink:href="#DejaVuSans-Bold-64" transform="translate(2688.134766 0)"/>
    <use xlink:href="#DejaVuSans-Bold-65" transform="translate(2759.716797 0)"/>
    <use xlink:href="#DejaVuSans-Bold-67" transform="translate(2827.539062 0)"/>
    <use xlink:href="#DejaVuSans-Bold-65" transform="translate(2899.121094 0)"/>
    <use xlink:href="#DejaVuSans-Bold-6e" transform="translate(2966.943359 0)"/>
    <use xlink:href="#DejaVuSans-Bold-65" transform="translate(3038.134766 0)"/>
    <use xlink:href="#DejaVuSans-Bold-72" transform="translate(3105.957031 0)"/>
    <use xlink:href="#DejaVuSans-Bold-61" transform="translate(3155.273438 0)"/>
    <use xlink:href="#DejaVuSans-Bold-74" transform="translate(3222.753906 0)"/>
    <use xlink:href="#DejaVuSans-Bold-69" transform="translate(3270.556641 0)"/>
    <use xlink:href="#DejaVuSans-Bold-6f" transform="translate(3304.833984 0)"/>
    <use xlink:href="#DejaVuSans-Bold-6e" transform="translate(3373.535156 0)"/>
   </g>
  </g>
 </g>
 <defs>
  <clipPath id="pfbf665a632">
   <rect x="43.78125" y="51.216" width="289.806667" height="223.052965"/>
  </clipPath>
  <clipPath id="pd35e8046ac">
   <rect x="373.617917" y="51.216" width="289.806667" height="223.052965"/>
  </clipPath>
  <clipPath id="p5136198b12">
   <rect x="703.454583" y="51.216" width="289.806667" height="223.052965"/>
  </clipPath>
 </defs>
</svg>
