<?xml version="1.0" encoding="utf-8" standalone="no"?>
<!DOCTYPE svg PUBLIC "-//W3C//DTD SVG 1.1//EN"
  "http://www.w3.org/Graphics/SVG/1.1/DTD/svg11.dtd">
<svg xmlns:xlink="http://www.w3.org/1999/xlink" width="640.433125pt" height="365.83625pt" viewBox="0 0 640.433125 365.83625" xmlns="http://www.w3.org/2000/svg" version="1.1">
 <metadata>
  <rdf:RDF xmlns:dc="http://purl.org/dc/elements/1.1/" xmlns:cc="http://creativecommons.org/ns#" xmlns:rdf="http://www.w3.org/1999/02/22-rdf-syntax-ns#">
   <cc:Work>
    <dc:type rdf:resource="http://purl.org/dc/dcmitype/StillImage"/>
    <dc:date>2026-06-25T15:52:10.285620</dc:date>
    <dc:format>image/svg+xml</dc:format>
    <dc:creator>
     <cc:Agent>
      <dc:title>Matplotlib v3.10.9, https://matplotlib.org/</dc:title>
     </cc:Agent>
    </dc:creator>
   </cc:Work>
  </rdf:RDF>
 </metadata>
 <defs>
  <style type="text/css">*{stroke-linejoin: round; stroke-linecap: butt}</style>
 </defs>
 <g id="figure_1">
  <g id="patch_1">
   <path d="M 0 365.83625 
L 640.433125 365.83625 
L 640.433125 0 
L 0 0 
z
" style="fill: #ffffff"/>
  </g>
  <g id="axes_1">
   <g id="patch_2">
    <path d="M 40.603125 341.958125 
L 633.233125 341.958125 
L 633.233125 22.318125 
L 40.603125 22.318125 
z
" style="fill: #ffffff"/>
   </g>
   <g id="patch_3">
    <path d="M 67.540852 341.958125 
L 113.719813 341.958125 
L 113.719813 139.689374 
L 67.540852 139.689374 
z
" clip-path="url(#p874f983425)" style="fill: #1f77b4"/>
   </g>
   <g id="patch_4">
    <path d="M 375.400593 341.958125 
L 421.579554 341.958125 
L 421.579554 172.141915 
L 375.400593 172.141915 
z
" clip-path="url(#p874f983425)" style="fill: #1f77b4"/>
   </g>
   <g id="patch_5">
    <path d="M 113.719813 341.958125 
L 159.898774 341.958125 
L 159.898774 37.539077 
L 113.719813 37.539077 
z
" clip-path="url(#p874f983425)" style="fill: #ff7f0e"/>
   </g>
   <g id="patch_6">
    <path d="M 421.579554 341.958125 
L 467.758515 341.958125 
L 467.758515 124.586674 
L 421.579554 124.586674 
z
" clip-path="url(#p874f983425)" style="fill: #ff7f0e"/>
   </g>
   <g id="patch_7">
    <path d="M 159.898774 341.958125 
L 206.077735 341.958125 
L 206.077735 292.505423 
L 159.898774 292.505423 
z
" clip-path="url(#p874f983425)" style="fill: #2ca02c"/>
   </g>
   <g id="patch_8">
    <path d="M 467.758515 341.958125 
L 513.937476 341.958125 
L 513.937476 313.506314 
L 467.758515 313.506314 
z
" clip-path="url(#p874f983425)" style="fill: #2ca02c"/>
   </g>
   <g id="patch_9">
    <path d="M 206.077735 341.958125 
L 252.256696 341.958125 
L 252.256696 264.350197 
L 206.077735 264.350197 
z
" clip-path="url(#p874f983425)" style="fill: #d62728"/>
   </g>
   <g id="patch_10">
    <path d="M 513.937476 341.958125 
L 560.116437 341.958125 
L 560.116437 292.380523 
L 513.937476 292.380523 
z
" clip-path="url(#p874f983425)" style="fill: #d62728"/>
   </g>
   <g id="patch_11">
    <path d="M 252.256696 341.958125 
L 298.435657 341.958125 
L 298.435657 273.3544 
L 252.256696 273.3544 
z
" clip-path="url(#p874f983425)" style="fill: #9467bd"/>
   </g>
   <g id="patch_12">
    <path d="M 560.116437 341.958125 
L 606.295398 341.958125 
L 606.295398 257.905234 
L 560.116437 257.905234 
z
" clip-path="url(#p874f983425)" style="fill: #9467bd"/>
   </g>
   <g id="matplotlib.axis_1">
    <g id="xtick_1">
     <g id="line2d_1">
      <defs>
       <path id="mc3b3761364" d="M 0 0 
L 0 3.5 
" style="stroke: #000000; stroke-width: 0.8"/>
      </defs>
      <g>
       <use xlink:href="#mc3b3761364" x="182.988255" y="341.958125" style="stroke: #000000; stroke-width: 0.8"/>
      </g>
     </g>
     <g id="text_1">
      <!-- Set A -->
      <g transform="translate(169.767942 356.556562) scale(0.1 -0.1)">
       <defs>
        <path id="DejaVuSans-53" d="M 3425 4513 
L 3425 3897 
Q 3066 4069 2747 4153 
Q 2428 4238 2131 4238 
Q 1616 4238 1336 4038 
Q 1056 3838 1056 3469 
Q 1056 3159 1242 3001 
Q 1428 2844 1947 2747 
L 2328 2669 
Q 3034 2534 3370 2195 
Q 3706 1856 3706 1288 
Q 3706 609 3251 259 
Q 2797 -91 1919 -91 
Q 1588 -91 1214 -16 
Q 841 59 441 206 
L 441 856 
Q 825 641 1194 531 
Q 1563 422 1919 422 
Q 2459 422 2753 634 
Q 3047 847 3047 1241 
Q 3047 1584 2836 1778 
Q 2625 1972 2144 2069 
L 1759 2144 
Q 1053 2284 737 2584 
Q 422 2884 422 3419 
Q 422 4038 858 4394 
Q 1294 4750 2059 4750 
Q 2388 4750 2728 4690 
Q 3069 4631 3425 4513 
z
" transform="scale(0.015625)"/>
        <path id="DejaVuSans-65" d="M 3597 1894 
L 3597 1613 
L 953 1613 
Q 991 1019 1311 708 
Q 1631 397 2203 397 
Q 2534 397 2845 478 
Q 3156 559 3463 722 
L 3463 178 
Q 3153 47 2828 -22 
Q 2503 -91 2169 -91 
Q 1331 -91 842 396 
Q 353 884 353 1716 
Q 353 2575 817 3079 
Q 1281 3584 2069 3584 
Q 2775 3584 3186 3129 
Q 3597 2675 3597 1894 
z
M 3022 2063 
Q 3016 2534 2758 2815 
Q 2500 3097 2075 3097 
Q 1594 3097 1305 2825 
Q 1016 2553 972 2059 
L 3022 2063 
z
" transform="scale(0.015625)"/>
        <path id="DejaVuSans-74" d="M 1172 4494 
L 1172 3500 
L 2356 3500 
L 2356 3053 
L 1172 3053 
L 1172 1153 
Q 1172 725 1289 603 
Q 1406 481 1766 481 
L 2356 481 
L 2356 0 
L 1766 0 
Q 1100 0 847 248 
Q 594 497 594 1153 
L 594 3053 
L 172 3053 
L 172 3500 
L 594 3500 
L 594 4494 
L 1172 4494 
z
" transform="scale(0.015625)"/>
        <path id="DejaVuSans-20" transform="scale(0.015625)"/>
        <path id="DejaVuSans-41" d="M 2188 4044 
L 1331 1722 
L 3047 1722 
L 2188 4044 
z
M 1831 4666 
L 2547 4666 
L 4325 0 
L 3669 0 
L 3244 1197 
L 1141 1197 
L 716 0 
L 50 0 
L 1831 4666 
z
" transform="scale(0.015625)"/>
       </defs>
       <use xlink:href="#DejaVuSans-53"/>
       <use xlink:href="#DejaVuSans-65" transform="translate(63.476562 0)"/>
       <use xlink:href="#DejaVuSans-74" transform="translate(125 0)"/>
       <use xlink:href="#DejaVuSans-20" transform="translate(164.208984 0)"/>
       <use xlink:href="#DejaVuSans-41" transform="translate(195.996094 0)"/>
      </g>
     </g>
    </g>
    <g id="xtick_2">
     <g id="line2d_2">
      <g>
       <use xlink:href="#mc3b3761364" x="490.847995" y="341.958125" style="stroke: #000000; stroke-width: 0.8"/>
      </g>
     </g>
     <g id="text_2">
      <!-- Set B -->
      <g transform="translate(477.617526 356.556562) scale(0.1 -0.1)">
       <defs>
        <path id="DejaVuSans-42" d="M 1259 2228 
L 1259 519 
L 2272 519 
Q 2781 519 3026 730 
Q 3272 941 3272 1375 
Q 3272 1813 3026 2020 
Q 2781 2228 2272 2228 
L 1259 2228 
z
M 1259 4147 
L 1259 2741 
L 2194 2741 
Q 2656 2741 2882 2914 
Q 3109 3088 3109 3444 
Q 3109 3797 2882 3972 
Q 2656 4147 2194 4147 
L 1259 4147 
z
M 628 4666 
L 2241 4666 
Q 2963 4666 3353 4366 
Q 3744 4066 3744 3513 
Q 3744 3084 3544 2831 
Q 3344 2578 2956 2516 
Q 3422 2416 3680 2098 
Q 3938 1781 3938 1306 
Q 3938 681 3513 340 
Q 3088 0 2303 0 
L 628 0 
L 628 4666 
z
" transform="scale(0.015625)"/>
       </defs>
       <use xlink:href="#DejaVuSans-53"/>
       <use xlink:href="#DejaVuSans-65" transform="translate(63.476562 0)"/>
       <use xlink:href="#DejaVuSans-74" transform="translate(125 0)"/>
       <use xlink:href="#DejaVuSans-20" transform="translate(164.208984 0)"/>
       <use xlink:href="#DejaVuSans-42" transform="translate(195.996094 0)"/>
      </g>
     </g>
    </g>
   </g>
   <g id="matplotlib.axis_2">
    <g id="ytick_1">
     <g id="line2d_3">
      <path d="M 40.603125 341.958125 
L 633.233125 341.958125 
" clip-path="url(#p874f983425)" style="fill: none; stroke: #b0b0b0; stroke-opacity: 0.25; stroke-width: 0.8; stroke-linecap: square"/>
     </g>
     <g id="line2d_4">
      <defs>
       <path id="mcb3d0cbc28" d="M 0 0 
L -3.5 0 
" style="stroke: #000000; stroke-width: 0.8"/>
      </defs>
      <g>
       <use xlink:href="#mcb3d0cbc28" x="40.603125" y="341.958125" style="stroke: #000000; stroke-width: 0.8"/>
      </g>
     </g>
     <g id="text_3">
      <!-- 0 -->
      <g transform="translate(27.240625 345.757344) scale(0.1 -0.1)">
       <defs>
        <path id="DejaVuSans-30" d="M 2034 4250 
Q 1547 4250 1301 3770 
Q 1056 3291 1056 2328 
Q 1056 1369 1301 889 
Q 1547 409 2034 409 
Q 2525 409 2770 889 
Q 3016 1369 3016 2328 
Q 3016 3291 2770 3770 
Q 2525 4250 2034 4250 
z
M 2034 4750 
Q 2819 4750 3233 4129 
Q 3647 3509 3647 2328 
Q 3647 1150 3233 529 
Q 2819 -91 2034 -91 
Q 1250 -91 836 529 
Q 422 1150 422 2328 
Q 422 3509 836 4129 
Q 1250 4750 2034 4750 
z
" transform="scale(0.015625)"/>
       </defs>
       <use xlink:href="#DejaVuSans-30"/>
      </g>
     </g>
    </g>
    <g id="ytick_2">
     <g id="line2d_5">
      <path d="M 40.603125 293.029377 
L 633.233125 293.029377 
" clip-path="url(#p874f983425)" style="fill: none; stroke: #b0b0b0; stroke-opacity: 0.25; stroke-width: 0.8; stroke-linecap: square"/>
     </g>
     <g id="line2d_6">
      <g>
       <use xlink:href="#mcb3d0cbc28" x="40.603125" y="293.029377" style="stroke: #000000; stroke-width: 0.8"/>
      </g>
     </g>
     <g id="text_4">
      <!-- 5 -->
      <g transform="translate(27.240625 296.828596) scale(0.1 -0.1)">
       <defs>
        <path id="DejaVuSans-35" d="M 691 4666 
L 3169 4666 
L 3169 4134 
L 1269 4134 
L 1269 2991 
Q 1406 3038 1543 3061 
Q 1681 3084 1819 3084 
Q 2600 3084 3056 2656 
Q 3513 2228 3513 1497 
Q 3513 744 3044 326 
Q 2575 -91 1722 -91 
Q 1428 -91 1123 -41 
Q 819 9 494 109 
L 494 744 
Q 775 591 1075 516 
Q 1375 441 1709 441 
Q 2250 441 2565 725 
Q 2881 1009 2881 1497 
Q 2881 1984 2565 2268 
Q 2250 2553 1709 2553 
Q 1456 2553 1204 2497 
Q 953 2441 691 2322 
L 691 4666 
z
" transform="scale(0.015625)"/>
       </defs>
       <use xlink:href="#DejaVuSans-35"/>
      </g>
     </g>
    </g>
    <g id="ytick_3">
     <g id="line2d_7">
      <path d="M 40.603125 244.10063 
L 633.233125 244.10063 
" clip-path="url(#p874f983425)" style="fill: none; stroke: #b0b0b0; stroke-opacity: 0.25; stroke-width: 0.8; stroke-linecap: square"/>
     </g>
     <g id="line2d_8">
      <g>
       <use xlink:href="#mcb3d0cbc28" x="40.603125" y="244.10063" style="stroke: #000000; stroke-width: 0.8"/>
      </g>
     </g>
     <g id="text_5">
      <!-- 10 -->
      <g transform="translate(20.878125 247.899848) scale(0.1 -0.1)">
       <defs>
        <path id="DejaVuSans-31" d="M 794 531 
L 1825 531 
L 1825 4091 
L 703 3866 
L 703 4441 
L 1819 4666 
L 2450 4666 
L 2450 531 
L 3481 531 
L 3481 0 
L 794 0 
L 794 531 
z
" transform="scale(0.015625)"/>
       </defs>
       <use xlink:href="#DejaVuSans-31"/>
       <use xlink:href="#DejaVuSans-30" transform="translate(63.623047 0)"/>
      </g>
     </g>
    </g>
    <g id="ytick_4">
     <g id="line2d_9">
      <path d="M 40.603125 195.171882 
L 633.233125 195.171882 
" clip-path="url(#p874f983425)" style="fill: none; stroke: #b0b0b0; stroke-opacity: 0.25; stroke-width: 0.8; stroke-linecap: square"/>
     </g>
     <g id="line2d_10">
      <g>
       <use xlink:href="#mcb3d0cbc28" x="40.603125" y="195.171882" style="stroke: #000000; stroke-width: 0.8"/>
      </g>
     </g>
     <g id="text_6">
      <!-- 15 -->
      <g transform="translate(20.878125 198.971101) scale(0.1 -0.1)">
       <use xlink:href="#DejaVuSans-31"/>
       <use xlink:href="#DejaVuSans-35" transform="translate(63.623047 0)"/>
      </g>
     </g>
    </g>
    <g id="ytick_5">
     <g id="line2d_11">
      <path d="M 40.603125 146.243134 
L 633.233125 146.243134 
" clip-path="url(#p874f983425)" style="fill: none; stroke: #b0b0b0; stroke-opacity: 0.25; stroke-width: 0.8; stroke-linecap: square"/>
     </g>
     <g id="line2d_12">
      <g>
       <use xlink:href="#mcb3d0cbc28" x="40.603125" y="146.243134" style="stroke: #000000; stroke-width: 0.8"/>
      </g>
     </g>
     <g id="text_7">
      <!-- 20 -->
      <g transform="translate(20.878125 150.042353) scale(0.1 -0.1)">
       <defs>
        <path id="DejaVuSans-32" d="M 1228 531 
L 3431 531 
L 3431 0 
L 469 0 
L 469 531 
Q 828 903 1448 1529 
Q 2069 2156 2228 2338 
Q 2531 2678 2651 2914 
Q 2772 3150 2772 3378 
Q 2772 3750 2511 3984 
Q 2250 4219 1831 4219 
Q 1534 4219 1204 4116 
Q 875 4013 500 3803 
L 500 4441 
Q 881 4594 1212 4672 
Q 1544 4750 1819 4750 
Q 2544 4750 2975 4387 
Q 3406 4025 3406 3419 
Q 3406 3131 3298 2873 
Q 3191 2616 2906 2266 
Q 2828 2175 2409 1742 
Q 1991 1309 1228 531 
z
" transform="scale(0.015625)"/>
       </defs>
       <use xlink:href="#DejaVuSans-32"/>
       <use xlink:href="#DejaVuSans-30" transform="translate(63.623047 0)"/>
      </g>
     </g>
    </g>
    <g id="ytick_6">
     <g id="line2d_13">
      <path d="M 40.603125 97.314387 
L 633.233125 97.314387 
" clip-path="url(#p874f983425)" style="fill: none; stroke: #b0b0b0; stroke-opacity: 0.25; stroke-width: 0.8; stroke-linecap: square"/>
     </g>
     <g id="line2d_14">
      <g>
       <use xlink:href="#mcb3d0cbc28" x="40.603125" y="97.314387" style="stroke: #000000; stroke-width: 0.8"/>
      </g>
     </g>
     <g id="text_8">
      <!-- 25 -->
      <g transform="translate(20.878125 101.113605) scale(0.1 -0.1)">
       <use xlink:href="#DejaVuSans-32"/>
       <use xlink:href="#DejaVuSans-35" transform="translate(63.623047 0)"/>
      </g>
     </g>
    </g>
    <g id="ytick_7">
     <g id="line2d_15">
      <path d="M 40.603125 48.385639 
L 633.233125 48.385639 
" clip-path="url(#p874f983425)" style="fill: none; stroke: #b0b0b0; stroke-opacity: 0.25; stroke-width: 0.8; stroke-linecap: square"/>
     </g>
     <g id="line2d_16">
      <g>
       <use xlink:href="#mcb3d0cbc28" x="40.603125" y="48.385639" style="stroke: #000000; stroke-width: 0.8"/>
      </g>
     </g>
     <g id="text_9">
      <!-- 30 -->
      <g transform="translate(20.878125 52.184858) scale(0.1 -0.1)">
       <defs>
        <path id="DejaVuSans-33" d="M 2597 2516 
Q 3050 2419 3304 2112 
Q 3559 1806 3559 1356 
Q 3559 666 3084 287 
Q 2609 -91 1734 -91 
Q 1441 -91 1130 -33 
Q 819 25 488 141 
L 488 750 
Q 750 597 1062 519 
Q 1375 441 1716 441 
Q 2309 441 2620 675 
Q 2931 909 2931 1356 
Q 2931 1769 2642 2001 
Q 2353 2234 1838 2234 
L 1294 2234 
L 1294 2753 
L 1863 2753 
Q 2328 2753 2575 2939 
Q 2822 3125 2822 3475 
Q 2822 3834 2567 4026 
Q 2313 4219 1838 4219 
Q 1578 4219 1281 4162 
Q 984 4106 628 3988 
L 628 4550 
Q 988 4650 1302 4700 
Q 1616 4750 1894 4750 
Q 2613 4750 3031 4423 
Q 3450 4097 3450 3541 
Q 3450 3153 3228 2886 
Q 3006 2619 2597 2516 
z
" transform="scale(0.015625)"/>
       </defs>
       <use xlink:href="#DejaVuSans-33"/>
       <use xlink:href="#DejaVuSans-30" transform="translate(63.623047 0)"/>
      </g>
     </g>
    </g>
    <g id="text_10">
     <!-- Improvement / extra cost (percentage points) -->
     <g transform="translate(14.798438 296.524062) rotate(-90) scale(0.1 -0.1)">
      <defs>
       <path id="DejaVuSans-49" d="M 628 4666 
L 1259 4666 
L 1259 0 
L 628 0 
L 628 4666 
z
" transform="scale(0.015625)"/>
       <path id="DejaVuSans-6d" d="M 3328 2828 
Q 3544 3216 3844 3400 
Q 4144 3584 4550 3584 
Q 5097 3584 5394 3201 
Q 5691 2819 5691 2113 
L 5691 0 
L 5113 0 
L 5113 2094 
Q 5113 2597 4934 2840 
Q 4756 3084 4391 3084 
Q 3944 3084 3684 2787 
Q 3425 2491 3425 1978 
L 3425 0 
L 2847 0 
L 2847 2094 
Q 2847 2600 2669 2842 
Q 2491 3084 2119 3084 
Q 1678 3084 1418 2786 
Q 1159 2488 1159 1978 
L 1159 0 
L 581 0 
L 581 3500 
L 1159 3500 
L 1159 2956 
Q 1356 3278 1631 3431 
Q 1906 3584 2284 3584 
Q 2666 3584 2933 3390 
Q 3200 3197 3328 2828 
z
" transform="scale(0.015625)"/>
       <path id="DejaVuSans-70" d="M 1159 525 
L 1159 -1331 
L 581 -1331 
L 581 3500 
L 1159 3500 
L 1159 2969 
Q 1341 3281 1617 3432 
Q 1894 3584 2278 3584 
Q 2916 3584 3314 3078 
Q 3713 2572 3713 1747 
Q 3713 922 3314 415 
Q 2916 -91 2278 -91 
Q 1894 -91 1617 61 
Q 1341 213 1159 525 
z
M 3116 1747 
Q 3116 2381 2855 2742 
Q 2594 3103 2138 3103 
Q 1681 3103 1420 2742 
Q 1159 2381 1159 1747 
Q 1159 1113 1420 752 
Q 1681 391 2138 391 
Q 2594 391 2855 752 
Q 3116 1113 3116 1747 
z
" transform="scale(0.015625)"/>
       <path id="DejaVuSans-72" d="M 2631 2963 
Q 2534 3019 2420 3045 
Q 2306 3072 2169 3072 
Q 1681 3072 1420 2755 
Q 1159 2438 1159 1844 
L 1159 0 
L 581 0 
L 581 3500 
L 1159 3500 
L 1159 2956 
Q 1341 3275 1631 3429 
Q 1922 3584 2338 3584 
Q 2397 3584 2469 3576 
Q 2541 3569 2628 3553 
L 2631 2963 
z
" transform="scale(0.015625)"/>
       <path id="DejaVuSans-6f" d="M 1959 3097 
Q 1497 3097 1228 2736 
Q 959 2375 959 1747 
Q 959 1119 1226 758 
Q 1494 397 1959 397 
Q 2419 397 2687 759 
Q 2956 1122 2956 1747 
Q 2956 2369 2687 2733 
Q 2419 3097 1959 3097 
z
M 1959 3584 
Q 2709 3584 3137 3096 
Q 3566 2609 3566 1747 
Q 3566 888 3137 398 
Q 2709 -91 1959 -91 
Q 1206 -91 779 398 
Q 353 888 353 1747 
Q 353 2609 779 3096 
Q 1206 3584 1959 3584 
z
" transform="scale(0.015625)"/>
       <path id="DejaVuSans-76" d="M 191 3500 
L 800 3500 
L 1894 563 
L 2988 3500 
L 3597 3500 
L 2284 0 
L 1503 0 
L 191 3500 
z
" transform="scale(0.015625)"/>
       <path id="DejaVuSans-6e" d="M 3513 2113 
L 3513 0 
L 2938 0 
L 2938 2094 
Q 2938 2591 2744 2837 
Q 2550 3084 2163 3084 
Q 1697 3084 1428 2787 
Q 1159 2491 1159 1978 
L 1159 0 
L 581 0 
L 581 3500 
L 1159 3500 
L 1159 2956 
Q 1366 3272 1645 3428 
Q 1925 3584 2291 3584 
Q 2894 3584 3203 3211 
Q 3513 2838 3513 2113 
z
" transform="scale(0.015625)"/>
       <path id="DejaVuSans-2f" d="M 1625 4666 
L 2156 4666 
L 531 -594 
L 0 -594 
L 1625 4666 
z
" transform="scale(0.015625)"/>
       <path id="DejaVuSans-78" d="M 3513 3500 
L 2247 1797 
L 3578 0 
L 2900 0 
L 1881 1375 
L 863 0 
L 184 0 
L 1544 1831 
L 300 3500 
L 978 3500 
L 1906 2253 
L 2834 3500 
L 3513 3500 
z
" transform="scale(0.015625)"/>
       <path id="DejaVuSans-61" d="M 2194 1759 
Q 1497 1759 1228 1600 
Q 959 1441 959 1056 
Q 959 750 1161 570 
Q 1363 391 1709 391 
Q 2188 391 2477 730 
Q 2766 1069 2766 1631 
L 2766 1759 
L 2194 1759 
z
M 3341 1997 
L 3341 0 
L 2766 0 
L 2766 531 
Q 2569 213 2275 61 
Q 1981 -91 1556 -91 
Q 1019 -91 701 211 
Q 384 513 384 1019 
Q 384 1609 779 1909 
Q 1175 2209 1959 2209 
L 2766 2209 
L 2766 2266 
Q 2766 2663 2505 2880 
Q 2244 3097 1772 3097 
Q 1472 3097 1187 3025 
Q 903 2953 641 2809 
L 641 3341 
Q 956 3463 1253 3523 
Q 1550 3584 1831 3584 
Q 2591 3584 2966 3190 
Q 3341 2797 3341 1997 
z
" transform="scale(0.015625)"/>
       <path id="DejaVuSans-63" d="M 3122 3366 
L 3122 2828 
Q 2878 2963 2633 3030 
Q 2388 3097 2138 3097 
Q 1578 3097 1268 2742 
Q 959 2388 959 1747 
Q 959 1106 1268 751 
Q 1578 397 2138 397 
Q 2388 397 2633 464 
Q 2878 531 3122 666 
L 3122 134 
Q 2881 22 2623 -34 
Q 2366 -91 2075 -91 
Q 1284 -91 818 406 
Q 353 903 353 1747 
Q 353 2603 823 3093 
Q 1294 3584 2113 3584 
Q 2378 3584 2631 3529 
Q 2884 3475 3122 3366 
z
" transform="scale(0.015625)"/>
       <path id="DejaVuSans-73" d="M 2834 3397 
L 2834 2853 
Q 2591 2978 2328 3040 
Q 2066 3103 1784 3103 
Q 1356 3103 1142 2972 
Q 928 2841 928 2578 
Q 928 2378 1081 2264 
Q 1234 2150 1697 2047 
L 1894 2003 
Q 2506 1872 2764 1633 
Q 3022 1394 3022 966 
Q 3022 478 2636 193 
Q 2250 -91 1575 -91 
Q 1294 -91 989 -36 
Q 684 19 347 128 
L 347 722 
Q 666 556 975 473 
Q 1284 391 1588 391 
Q 1994 391 2212 530 
Q 2431 669 2431 922 
Q 2431 1156 2273 1281 
Q 2116 1406 1581 1522 
L 1381 1569 
Q 847 1681 609 1914 
Q 372 2147 372 2553 
Q 372 3047 722 3315 
Q 1072 3584 1716 3584 
Q 2034 3584 2315 3537 
Q 2597 3491 2834 3397 
z
" transform="scale(0.015625)"/>
       <path id="DejaVuSans-28" d="M 1984 4856 
Q 1566 4138 1362 3434 
Q 1159 2731 1159 2009 
Q 1159 1288 1364 580 
Q 1569 -128 1984 -844 
L 1484 -844 
Q 1016 -109 783 600 
Q 550 1309 550 2009 
Q 550 2706 781 3412 
Q 1013 4119 1484 4856 
L 1984 4856 
z
" transform="scale(0.015625)"/>
       <path id="DejaVuSans-67" d="M 2906 1791 
Q 2906 2416 2648 2759 
Q 2391 3103 1925 3103 
Q 1463 3103 1205 2759 
Q 947 2416 947 1791 
Q 947 1169 1205 825 
Q 1463 481 1925 481 
Q 2391 481 2648 825 
Q 2906 1169 2906 1791 
z
M 3481 434 
Q 3481 -459 3084 -895 
Q 2688 -1331 1869 -1331 
Q 1566 -1331 1297 -1286 
Q 1028 -1241 775 -1147 
L 775 -588 
Q 1028 -725 1275 -790 
Q 1522 -856 1778 -856 
Q 2344 -856 2625 -561 
Q 2906 -266 2906 331 
L 2906 616 
Q 2728 306 2450 153 
Q 2172 0 1784 0 
Q 1141 0 747 490 
Q 353 981 353 1791 
Q 353 2603 747 3093 
Q 1141 3584 1784 3584 
Q 2172 3584 2450 3431 
Q 2728 3278 2906 2969 
L 2906 3500 
L 3481 3500 
L 3481 434 
z
" transform="scale(0.015625)"/>
       <path id="DejaVuSans-69" d="M 603 3500 
L 1178 3500 
L 1178 0 
L 603 0 
L 603 3500 
z
M 603 4863 
L 1178 4863 
L 1178 4134 
L 603 4134 
L 603 4863 
z
" transform="scale(0.015625)"/>
       <path id="DejaVuSans-29" d="M 513 4856 
L 1013 4856 
Q 1481 4119 1714 3412 
Q 1947 2706 1947 2009 
Q 1947 1309 1714 600 
Q 1481 -109 1013 -844 
L 513 -844 
Q 928 -128 1133 580 
Q 1338 1288 1338 2009 
Q 1338 2731 1133 3434 
Q 928 4138 513 4856 
z
" transform="scale(0.015625)"/>
      </defs>
      <use xlink:href="#DejaVuSans-49"/>
      <use xlink:href="#DejaVuSans-6d" transform="translate(29.492188 0)"/>
      <use xlink:href="#DejaVuSans-70" transform="translate(126.904297 0)"/>
      <use xlink:href="#DejaVuSans-72" transform="translate(190.380859 0)"/>
      <use xlink:href="#DejaVuSans-6f" transform="translate(229.244141 0)"/>
      <use xlink:href="#DejaVuSans-76" transform="translate(290.425781 0)"/>
      <use xlink:href="#DejaVuSans-65" transform="translate(349.605469 0)"/>
      <use xlink:href="#DejaVuSans-6d" transform="translate(411.128906 0)"/>
      <use xlink:href="#DejaVuSans-65" transform="translate(508.541016 0)"/>
      <use xlink:href="#DejaVuSans-6e" transform="translate(570.064453 0)"/>
      <use xlink:href="#DejaVuSans-74" transform="translate(633.443359 0)"/>
      <use xlink:href="#DejaVuSans-20" transform="translate(672.652344 0)"/>
      <use xlink:href="#DejaVuSans-2f" transform="translate(704.439453 0)"/>
      <use xlink:href="#DejaVuSans-20" transform="translate(738.130859 0)"/>
      <use xlink:href="#DejaVuSans-65" transform="translate(769.917969 0)"/>
      <use xlink:href="#DejaVuSans-78" transform="translate(829.691406 0)"/>
      <use xlink:href="#DejaVuSans-74" transform="translate(888.871094 0)"/>
      <use xlink:href="#DejaVuSans-72" transform="translate(928.080078 0)"/>
      <use xlink:href="#DejaVuSans-61" transform="translate(969.193359 0)"/>
      <use xlink:href="#DejaVuSans-20" transform="translate(1030.472656 0)"/>
      <use xlink:href="#DejaVuSans-63" transform="translate(1062.259766 0)"/>
      <use xlink:href="#DejaVuSans-6f" transform="translate(1117.240234 0)"/>
      <use xlink:href="#DejaVuSans-73" transform="translate(1178.421875 0)"/>
      <use xlink:href="#DejaVuSans-74" transform="translate(1230.521484 0)"/>
      <use xlink:href="#DejaVuSans-20" transform="translate(1269.730469 0)"/>
      <use xlink:href="#DejaVuSans-28" transform="translate(1301.517578 0)"/>
      <use xlink:href="#DejaVuSans-70" transform="translate(1340.53125 0)"/>
      <use xlink:href="#DejaVuSans-65" transform="translate(1404.007812 0)"/>
      <use xlink:href="#DejaVuSans-72" transform="translate(1465.53125 0)"/>
      <use xlink:href="#DejaVuSans-63" transform="translate(1504.394531 0)"/>
      <use xlink:href="#DejaVuSans-65" transform="translate(1559.375 0)"/>
      <use xlink:href="#DejaVuSans-6e" transform="translate(1620.898438 0)"/>
      <use xlink:href="#DejaVuSans-74" transform="translate(1684.277344 0)"/>
      <use xlink:href="#DejaVuSans-61" transform="translate(1723.486328 0)"/>
      <use xlink:href="#DejaVuSans-67" transform="translate(1784.765625 0)"/>
      <use xlink:href="#DejaVuSans-65" transform="translate(1848.242188 0)"/>
      <use xlink:href="#DejaVuSans-20" transform="translate(1909.765625 0)"/>
      <use xlink:href="#DejaVuSans-70" transform="translate(1941.552734 0)"/>
      <use xlink:href="#DejaVuSans-6f" transform="translate(2005.029297 0)"/>
      <use xlink:href="#DejaVuSans-69" transform="translate(2066.210938 0)"/>
      <use xlink:href="#DejaVuSans-6e" transform="translate(2093.994141 0)"/>
      <use xlink:href="#DejaVuSans-74" transform="translate(2157.373047 0)"/>
      <use xlink:href="#DejaVuSans-73" transform="translate(2196.582031 0)"/>
      <use xlink:href="#DejaVuSans-29" transform="translate(2248.681641 0)"/>
     </g>
    </g>
   </g>
   <g id="patch_13">
    <path d="M 40.603125 341.958125 
L 40.603125 22.318125 
" style="fill: none; stroke: #000000; stroke-width: 0.8; stroke-linejoin: miter; stroke-linecap: square"/>
   </g>
   <g id="patch_14">
    <path d="M 633.233125 341.958125 
L 633.233125 22.318125 
" style="fill: none; stroke: #000000; stroke-width: 0.8; stroke-linejoin: miter; stroke-linecap: square"/>
   </g>
   <g id="patch_15">
    <path d="M 40.603125 341.958125 
L 633.233125 341.958125 
" style="fill: none; stroke: #000000; stroke-width: 0.8; stroke-linejoin: miter; stroke-linecap: square"/>
   </g>
   <g id="patch_16">
    <path d="M 40.603125 22.318125 
L 633.233125 22.318125 
" style="fill: none; stroke: #000000; stroke-width: 0.8; stroke-linejoin: miter; stroke-linecap: square"/>
   </g>
   <g id="text_11">
    <!-- Concentration-aware lambda=1 improvement over lambda=0 (10seed) -->
    <g transform="translate(121.559375 16.318125) scale(0.12 -0.12)">
     <defs>
      <path id="DejaVuSans-43" d="M 4122 4306 
L 4122 3641 
Q 3803 3938 3442 4084 
Q 3081 4231 2675 4231 
Q 1875 4231 1450 3742 
Q 1025 3253 1025 2328 
Q 1025 1406 1450 917 
Q 1875 428 2675 428 
Q 3081 428 3442 575 
Q 3803 722 4122 1019 
L 4122 359 
Q 3791 134 3420 21 
Q 3050 -91 2638 -91 
Q 1578 -91 968 557 
Q 359 1206 359 2328 
Q 359 3453 968 4101 
Q 1578 4750 2638 4750 
Q 3056 4750 3426 4639 
Q 3797 4528 4122 4306 
z
" transform="scale(0.015625)"/>
      <path id="DejaVuSans-2d" d="M 313 2009 
L 1997 2009 
L 1997 1497 
L 313 1497 
L 313 2009 
z
" transform="scale(0.015625)"/>
      <path id="DejaVuSans-77" d="M 269 3500 
L 844 3500 
L 1563 769 
L 2278 3500 
L 2956 3500 
L 3675 769 
L 4391 3500 
L 4966 3500 
L 4050 0 
L 3372 0 
L 2619 2869 
L 1863 0 
L 1184 0 
L 269 3500 
z
" transform="scale(0.015625)"/>
      <path id="DejaVuSans-6c" d="M 603 4863 
L 1178 4863 
L 1178 0 
L 603 0 
L 603 4863 
z
" transform="scale(0.015625)"/>
      <path id="DejaVuSans-62" d="M 3116 1747 
Q 3116 2381 2855 2742 
Q 2594 3103 2138 3103 
Q 1681 3103 1420 2742 
Q 1159 2381 1159 1747 
Q 1159 1113 1420 752 
Q 1681 391 2138 391 
Q 2594 391 2855 752 
Q 3116 1113 3116 1747 
z
M 1159 2969 
Q 1341 3281 1617 3432 
Q 1894 3584 2278 3584 
Q 2916 3584 3314 3078 
Q 3713 2572 3713 1747 
Q 3713 922 3314 415 
Q 2916 -91 2278 -91 
Q 1894 -91 1617 61 
Q 1341 213 1159 525 
L 1159 0 
L 581 0 
L 581 4863 
L 1159 4863 
L 1159 2969 
z
" transform="scale(0.015625)"/>
      <path id="DejaVuSans-64" d="M 2906 2969 
L 2906 4863 
L 3481 4863 
L 3481 0 
L 2906 0 
L 2906 525 
Q 2725 213 2448 61 
Q 2172 -91 1784 -91 
Q 1150 -91 751 415 
Q 353 922 353 1747 
Q 353 2572 751 3078 
Q 1150 3584 1784 3584 
Q 2172 3584 2448 3432 
Q 2725 3281 2906 2969 
z
M 947 1747 
Q 947 1113 1208 752 
Q 1469 391 1925 391 
Q 2381 391 2643 752 
Q 2906 1113 2906 1747 
Q 2906 2381 2643 2742 
Q 2381 3103 1925 3103 
Q 1469 3103 1208 2742 
Q 947 2381 947 1747 
z
" transform="scale(0.015625)"/>
      <path id="DejaVuSans-3d" d="M 678 2906 
L 4684 2906 
L 4684 2381 
L 678 2381 
L 678 2906 
z
M 678 1631 
L 4684 1631 
L 4684 1100 
L 678 1100 
L 678 1631 
z
" transform="scale(0.015625)"/>
     </defs>
     <use xlink:href="#DejaVuSans-43"/>
     <use xlink:href="#DejaVuSans-6f" transform="translate(69.824219 0)"/>
     <use xlink:href="#DejaVuSans-6e" transform="translate(131.005859 0)"/>
     <use xlink:href="#DejaVuSans-63" transform="translate(194.384766 0)"/>
     <use xlink:href="#DejaVuSans-65" transform="translate(249.365234 0)"/>
     <use xlink:href="#DejaVuSans-6e" transform="translate(310.888672 0)"/>
     <use xlink:href="#DejaVuSans-74" transform="translate(374.267578 0)"/>
     <use xlink:href="#DejaVuSans-72" transform="translate(413.476562 0)"/>
     <use xlink:href="#DejaVuSans-61" transform="translate(454.589844 0)"/>
     <use xlink:href="#DejaVuSans-74" transform="translate(515.869141 0)"/>
     <use xlink:href="#DejaVuSans-69" transform="translate(555.078125 0)"/>
     <use xlink:href="#DejaVuSans-6f" transform="translate(582.861328 0)"/>
     <use xlink:href="#DejaVuSans-6e" transform="translate(644.042969 0)"/>
     <use xlink:href="#DejaVuSans-2d" transform="translate(707.421875 0)"/>
     <use xlink:href="#DejaVuSans-61" transform="translate(743.505859 0)"/>
     <use xlink:href="#DejaVuSans-77" transform="translate(804.785156 0)"/>
     <use xlink:href="#DejaVuSans-61" transform="translate(886.572266 0)"/>
     <use xlink:href="#DejaVuSans-72" transform="translate(947.851562 0)"/>
     <use xlink:href="#DejaVuSans-65" transform="translate(986.714844 0)"/>
     <use xlink:href="#DejaVuSans-20" transform="translate(1048.238281 0)"/>
     <use xlink:href="#DejaVuSans-6c" transform="translate(1080.025391 0)"/>
     <use xlink:href="#DejaVuSans-61" transform="translate(1107.808594 0)"/>
     <use xlink:href="#DejaVuSans-6d" transform="translate(1169.087891 0)"/>
     <use xlink:href="#DejaVuSans-62" transform="translate(1266.5 0)"/>
     <use xlink:href="#DejaVuSans-64" transform="translate(1329.976562 0)"/>
     <use xlink:href="#DejaVuSans-61" transform="translate(1393.453125 0)"/>
     <use xlink:href="#DejaVuSans-3d" transform="translate(1454.732422 0)"/>
     <use xlink:href="#DejaVuSans-31" transform="translate(1538.521484 0)"/>
     <use xlink:href="#DejaVuSans-20" transform="translate(1602.144531 0)"/>
     <use xlink:href="#DejaVuSans-69" transform="translate(1633.931641 0)"/>
     <use xlink:href="#DejaVuSans-6d" transform="translate(1661.714844 0)"/>
     <use xlink:href="#DejaVuSans-70" transform="translate(1759.126953 0)"/>
     <use xlink:href="#DejaVuSans-72" transform="translate(1822.603516 0)"/>
     <use xlink:href="#DejaVuSans-6f" transform="translate(1861.466797 0)"/>
     <use xlink:href="#DejaVuSans-76" transform="translate(1922.648438 0)"/>
     <use xlink:href="#DejaVuSans-65" transform="translate(1981.828125 0)"/>
     <use xlink:href="#DejaVuSans-6d" transform="translate(2043.351562 0)"/>
     <use xlink:href="#DejaVuSans-65" transform="translate(2140.763672 0)"/>
     <use xlink:href="#DejaVuSans-6e" transform="translate(2202.287109 0)"/>
     <use xlink:href="#DejaVuSans-74" transform="translate(2265.666016 0)"/>
     <use xlink:href="#DejaVuSans-20" transform="translate(2304.875 0)"/>
     <use xlink:href="#DejaVuSans-6f" transform="translate(2336.662109 0)"/>
     <use xlink:href="#DejaVuSans-76" transform="translate(2397.84375 0)"/>
     <use xlink:href="#DejaVuSans-65" transform="translate(2457.023438 0)"/>
     <use xlink:href="#DejaVuSans-72" transform="translate(2518.546875 0)"/>
     <use xlink:href="#DejaVuSans-20" transform="translate(2559.660156 0)"/>
     <use xlink:href="#DejaVuSans-6c" transform="translate(2591.447266 0)"/>
     <use xlink:href="#DejaVuSans-61" transform="translate(2619.230469 0)"/>
     <use xlink:href="#DejaVuSans-6d" transform="translate(2680.509766 0)"/>
     <use xlink:href="#DejaVuSans-62" transform="translate(2777.921875 0)"/>
     <use xlink:href="#DejaVuSans-64" transform="translate(2841.398438 0)"/>
     <use xlink:href="#DejaVuSans-61" transform="translate(2904.875 0)"/>
     <use xlink:href="#DejaVuSans-3d" transform="translate(2966.154297 0)"/>
     <use xlink:href="#DejaVuSans-30" transform="translate(3049.943359 0)"/>
     <use xlink:href="#DejaVuSans-20" transform="translate(3113.566406 0)"/>
     <use xlink:href="#DejaVuSans-28" transform="translate(3145.353516 0)"/>
     <use xlink:href="#DejaVuSans-31" transform="translate(3184.367188 0)"/>
     <use xlink:href="#DejaVuSans-30" transform="translate(3247.990234 0)"/>
     <use xlink:href="#DejaVuSans-73" transform="translate(3311.613281 0)"/>
     <use xlink:href="#DejaVuSans-65" transform="translate(3363.712891 0)"/>
     <use xlink:href="#DejaVuSans-65" transform="translate(3425.236328 0)"/>
     <use xlink:href="#DejaVuSans-64" transform="translate(3486.759766 0)"/>
     <use xlink:href="#DejaVuSans-29" transform="translate(3550.236328 0)"/>
    </g>
   </g>
   <g id="legend_1">
    <g id="patch_17">
     <path d="M 332.070625 38.916562 
L 352.070625 38.916562 
L 352.070625 31.916562 
L 332.070625 31.916562 
z
" style="fill: #1f77b4"/>
    </g>
    <g id="text_12">
     <!-- Risk -->
     <g transform="translate(360.070625 38.916562) scale(0.1 -0.1)">
      <defs>
       <path id="DejaVuSans-52" d="M 2841 2188 
Q 3044 2119 3236 1894 
Q 3428 1669 3622 1275 
L 4263 0 
L 3584 0 
L 2988 1197 
Q 2756 1666 2539 1819 
Q 2322 1972 1947 1972 
L 1259 1972 
L 1259 0 
L 628 0 
L 628 4666 
L 2053 4666 
Q 2853 4666 3247 4331 
Q 3641 3997 3641 3322 
Q 3641 2881 3436 2590 
Q 3231 2300 2841 2188 
z
M 1259 4147 
L 1259 2491 
L 2053 2491 
Q 2509 2491 2742 2702 
Q 2975 2913 2975 3322 
Q 2975 3731 2742 3939 
Q 2509 4147 2053 4147 
L 1259 4147 
z
" transform="scale(0.015625)"/>
       <path id="DejaVuSans-6b" d="M 581 4863 
L 1159 4863 
L 1159 1991 
L 2875 3500 
L 3609 3500 
L 1753 1863 
L 3688 0 
L 2938 0 
L 1159 1709 
L 1159 0 
L 581 0 
L 581 4863 
z
" transform="scale(0.015625)"/>
      </defs>
      <use xlink:href="#DejaVuSans-52"/>
      <use xlink:href="#DejaVuSans-69" transform="translate(69.482422 0)"/>
      <use xlink:href="#DejaVuSans-73" transform="translate(97.265625 0)"/>
      <use xlink:href="#DejaVuSans-6b" transform="translate(149.365234 0)"/>
     </g>
    </g>
    <g id="patch_18">
     <path d="M 332.070625 53.594687 
L 352.070625 53.594687 
L 352.070625 46.594687 
L 332.070625 46.594687 
z
" style="fill: #ff7f0e"/>
    </g>
    <g id="text_13">
     <!-- CVaR90 -->
     <g transform="translate(360.070625 53.594687) scale(0.1 -0.1)">
      <defs>
       <path id="DejaVuSans-56" d="M 1831 0 
L 50 4666 
L 709 4666 
L 2188 738 
L 3669 4666 
L 4325 4666 
L 2547 0 
L 1831 0 
z
" transform="scale(0.015625)"/>
       <path id="DejaVuSans-39" d="M 703 97 
L 703 672 
Q 941 559 1184 500 
Q 1428 441 1663 441 
Q 2288 441 2617 861 
Q 2947 1281 2994 2138 
Q 2813 1869 2534 1725 
Q 2256 1581 1919 1581 
Q 1219 1581 811 2004 
Q 403 2428 403 3163 
Q 403 3881 828 4315 
Q 1253 4750 1959 4750 
Q 2769 4750 3195 4129 
Q 3622 3509 3622 2328 
Q 3622 1225 3098 567 
Q 2575 -91 1691 -91 
Q 1453 -91 1209 -44 
Q 966 3 703 97 
z
M 1959 2075 
Q 2384 2075 2632 2365 
Q 2881 2656 2881 3163 
Q 2881 3666 2632 3958 
Q 2384 4250 1959 4250 
Q 1534 4250 1286 3958 
Q 1038 3666 1038 3163 
Q 1038 2656 1286 2365 
Q 1534 2075 1959 2075 
z
" transform="scale(0.015625)"/>
      </defs>
      <use xlink:href="#DejaVuSans-43"/>
      <use xlink:href="#DejaVuSans-56" transform="translate(69.824219 0)"/>
      <use xlink:href="#DejaVuSans-61" transform="translate(130.482422 0)"/>
      <use xlink:href="#DejaVuSans-52" transform="translate(191.761719 0)"/>
      <use xlink:href="#DejaVuSans-39" transform="translate(261.244141 0)"/>
      <use xlink:href="#DejaVuSans-30" transform="translate(324.867188 0)"/>
     </g>
    </g>
    <g id="patch_19">
     <path d="M 418.920625 38.916562 
L 438.920625 38.916562 
L 438.920625 31.916562 
L 418.920625 31.916562 
z
" style="fill: #2ca02c"/>
    </g>
    <g id="text_14">
     <!-- Edge Gini -->
     <g transform="translate(446.920625 38.916562) scale(0.1 -0.1)">
      <defs>
       <path id="DejaVuSans-45" d="M 628 4666 
L 3578 4666 
L 3578 4134 
L 1259 4134 
L 1259 2753 
L 3481 2753 
L 3481 2222 
L 1259 2222 
L 1259 531 
L 3634 531 
L 3634 0 
L 628 0 
L 628 4666 
z
" transform="scale(0.015625)"/>
       <path id="DejaVuSans-47" d="M 3809 666 
L 3809 1919 
L 2778 1919 
L 2778 2438 
L 4434 2438 
L 4434 434 
Q 4069 175 3628 42 
Q 3188 -91 2688 -91 
Q 1594 -91 976 548 
Q 359 1188 359 2328 
Q 359 3472 976 4111 
Q 1594 4750 2688 4750 
Q 3144 4750 3555 4637 
Q 3966 4525 4313 4306 
L 4313 3634 
Q 3963 3931 3569 4081 
Q 3175 4231 2741 4231 
Q 1884 4231 1454 3753 
Q 1025 3275 1025 2328 
Q 1025 1384 1454 906 
Q 1884 428 2741 428 
Q 3075 428 3337 486 
Q 3600 544 3809 666 
z
" transform="scale(0.015625)"/>
      </defs>
      <use xlink:href="#DejaVuSans-45"/>
      <use xlink:href="#DejaVuSans-64" transform="translate(63.183594 0)"/>
      <use xlink:href="#DejaVuSans-67" transform="translate(126.660156 0)"/>
      <use xlink:href="#DejaVuSans-65" transform="translate(190.136719 0)"/>
      <use xlink:href="#DejaVuSans-20" transform="translate(251.660156 0)"/>
      <use xlink:href="#DejaVuSans-47" transform="translate(283.447266 0)"/>
      <use xlink:href="#DejaVuSans-69" transform="translate(360.9375 0)"/>
      <use xlink:href="#DejaVuSans-6e" transform="translate(388.720703 0)"/>
      <use xlink:href="#DejaVuSans-69" transform="translate(452.099609 0)"/>
     </g>
    </g>
    <g id="patch_20">
     <path d="M 418.920625 53.594687 
L 438.920625 53.594687 
L 438.920625 46.594687 
L 418.920625 46.594687 
z
" style="fill: #d62728"/>
    </g>
    <g id="text_15">
     <!-- Top10 Share -->
     <g transform="translate(446.920625 53.594687) scale(0.1 -0.1)">
      <defs>
       <path id="DejaVuSans-54" d="M -19 4666 
L 3928 4666 
L 3928 4134 
L 2272 4134 
L 2272 0 
L 1638 0 
L 1638 4134 
L -19 4134 
L -19 4666 
z
" transform="scale(0.015625)"/>
       <path id="DejaVuSans-68" d="M 3513 2113 
L 3513 0 
L 2938 0 
L 2938 2094 
Q 2938 2591 2744 2837 
Q 2550 3084 2163 3084 
Q 1697 3084 1428 2787 
Q 1159 2491 1159 1978 
L 1159 0 
L 581 0 
L 581 4863 
L 1159 4863 
L 1159 2956 
Q 1366 3272 1645 3428 
Q 1925 3584 2291 3584 
Q 2894 3584 3203 3211 
Q 3513 2838 3513 2113 
z
" transform="scale(0.015625)"/>
      </defs>
      <use xlink:href="#DejaVuSans-54"/>
      <use xlink:href="#DejaVuSans-6f" transform="translate(44.083984 0)"/>
      <use xlink:href="#DejaVuSans-70" transform="translate(105.265625 0)"/>
      <use xlink:href="#DejaVuSans-31" transform="translate(168.742188 0)"/>
      <use xlink:href="#DejaVuSans-30" transform="translate(232.365234 0)"/>
      <use xlink:href="#DejaVuSans-20" transform="translate(295.988281 0)"/>
      <use xlink:href="#DejaVuSans-53" transform="translate(327.775391 0)"/>
      <use xlink:href="#DejaVuSans-68" transform="translate(391.251953 0)"/>
      <use xlink:href="#DejaVuSans-61" transform="translate(454.630859 0)"/>
      <use xlink:href="#DejaVuSans-72" transform="translate(515.910156 0)"/>
      <use xlink:href="#DejaVuSans-65" transform="translate(554.773438 0)"/>
     </g>
    </g>
    <g id="patch_21">
     <path d="M 528.551875 38.916562 
L 548.551875 38.916562 
L 548.551875 31.916562 
L 528.551875 31.916562 
z
" style="fill: #9467bd"/>
    </g>
    <g id="text_16">
     <!-- Extra Cost pp -->
     <g transform="translate(556.551875 38.916562) scale(0.1 -0.1)">
      <use xlink:href="#DejaVuSans-45"/>
      <use xlink:href="#DejaVuSans-78" transform="translate(63.183594 0)"/>
      <use xlink:href="#DejaVuSans-74" transform="translate(122.363281 0)"/>
      <use xlink:href="#DejaVuSans-72" transform="translate(161.572266 0)"/>
      <use xlink:href="#DejaVuSans-61" transform="translate(202.685547 0)"/>
      <use xlink:href="#DejaVuSans-20" transform="translate(263.964844 0)"/>
      <use xlink:href="#DejaVuSans-43" transform="translate(295.751953 0)"/>
      <use xlink:href="#DejaVuSans-6f" transform="translate(365.576172 0)"/>
      <use xlink:href="#DejaVuSans-73" transform="translate(426.757812 0)"/>
      <use xlink:href="#DejaVuSans-74" transform="translate(478.857422 0)"/>
      <use xlink:href="#DejaVuSans-20" transform="translate(518.066406 0)"/>
      <use xlink:href="#DejaVuSans-70" transform="translate(549.853516 0)"/>
      <use xlink:href="#DejaVuSans-70" transform="translate(613.330078 0)"/>
     </g>
    </g>
   </g>
  </g>
 </g>
 <defs>
  <clipPath id="p874f983425">
   <rect x="40.603125" y="22.318125" width="592.63" height="319.64"/>
  </clipPath>
 </defs>
</svg>
