<?xml version="1.0" encoding="utf-8" standalone="no"?>
<!DOCTYPE svg PUBLIC "-//W3C//DTD SVG 1.1//EN"
  "http://www.w3.org/Graphics/SVG/1.1/DTD/svg11.dtd">
<svg xmlns:xlink="http://www.w3.org/1999/xlink" width="784.46125pt" height="365.827353pt" viewBox="0 0 784.46125 365.827353" xmlns="http://www.w3.org/2000/svg" version="1.1">
 <metadata>
  <rdf:RDF xmlns:dc="http://purl.org/dc/elements/1.1/" xmlns:cc="http://creativecommons.org/ns#" xmlns:rdf="http://www.w3.org/1999/02/22-rdf-syntax-ns#">
   <cc:Work>
    <dc:type rdf:resource="http://purl.org/dc/dcmitype/StillImage"/>
    <dc:date>2026-06-25T15:52:07.704670</dc:date>
    <dc:format>image/svg+xml</dc:format>
    <dc:creator>
     <cc:Agent>
      <dc:title>Matplotlib v3.10.9, https://matplotlib.org/</dc:title>
     </cc:Agent>
    </dc:creator>
   </cc:Work>
  </rdf:RDF>
 </metadata>
 <defs>
  <style type="text/css">*{stroke-linejoin: round; stroke-linecap: butt}</style>
 </defs>
 <g id="figure_1">
  <g id="patch_1">
   <path d="M 0 365.827353 
L 784.46125 365.827353 
L 784.46125 0 
L 0 0 
z
" style="fill: #ffffff"/>
  </g>
  <g id="axes_1">
   <g id="patch_2">
    <path d="M 43.78125 316.401482 
L 777.26125 316.401482 
L 777.26125 22.318125 
L 43.78125 22.318125 
z
" style="fill: #ffffff"/>
   </g>
   <g id="patch_3">
    <path d="M 77.12125 316.401482 
L 99.147676 316.401482 
L 99.147676 247.847201 
L 77.12125 247.847201 
z
" clip-path="url(#p97afa18494)" style="fill: #1f77b4"/>
   </g>
   <g id="patch_4">
    <path d="M 177.24137 316.401482 
L 199.267797 316.401482 
L 199.267797 260.322963 
L 177.24137 260.322963 
z
" clip-path="url(#p97afa18494)" style="fill: #1f77b4"/>
   </g>
   <g id="patch_5">
    <path d="M 277.36149 316.401482 
L 299.387917 316.401482 
L 299.387917 246.399267 
L 277.36149 246.399267 
z
" clip-path="url(#p97afa18494)" style="fill: #1f77b4"/>
   </g>
   <g id="patch_6">
    <path d="M 377.48161 316.401482 
L 399.508037 316.401482 
L 399.508037 257.521481 
L 377.48161 257.521481 
z
" clip-path="url(#p97afa18494)" style="fill: #1f77b4"/>
   </g>
   <g id="patch_7">
    <path d="M 477.60173 316.401482 
L 499.628157 316.401482 
L 499.628157 276.245823 
L 477.60173 276.245823 
z
" clip-path="url(#p97afa18494)" style="fill: #1f77b4"/>
   </g>
   <g id="patch_8">
    <path d="M 577.721851 316.401482 
L 599.748277 316.401482 
L 599.748277 250.093968 
L 577.721851 250.093968 
z
" clip-path="url(#p97afa18494)" style="fill: #1f77b4"/>
   </g>
   <g id="patch_9">
    <path d="M 677.841971 316.401482 
L 699.868397 316.401482 
L 699.868397 251.528146 
L 677.841971 251.528146 
z
" clip-path="url(#p97afa18494)" style="fill: #1f77b4"/>
   </g>
   <g id="patch_10">
    <path d="M 99.147676 316.401482 
L 121.174103 316.401482 
L 121.174103 54.16506 
L 99.147676 54.16506 
z
" clip-path="url(#p97afa18494)" style="fill: #ff7f0e"/>
   </g>
   <g id="patch_11">
    <path d="M 199.267797 316.401482 
L 221.294223 316.401482 
L 221.294223 62.388732 
L 199.267797 62.388732 
z
" clip-path="url(#p97afa18494)" style="fill: #ff7f0e"/>
   </g>
   <g id="patch_12">
    <path d="M 299.387917 316.401482 
L 321.414343 316.401482 
L 321.414343 48.393416 
L 299.387917 48.393416 
z
" clip-path="url(#p97afa18494)" style="fill: #ff7f0e"/>
   </g>
   <g id="patch_13">
    <path d="M 399.508037 316.401482 
L 421.534463 316.401482 
L 421.534463 57.785634 
L 399.508037 57.785634 
z
" clip-path="url(#p97afa18494)" style="fill: #ff7f0e"/>
   </g>
   <g id="patch_14">
    <path d="M 499.628157 316.401482 
L 521.654583 316.401482 
L 521.654583 50.867257 
L 499.628157 50.867257 
z
" clip-path="url(#p97afa18494)" style="fill: #ff7f0e"/>
   </g>
   <g id="patch_15">
    <path d="M 599.748277 316.401482 
L 621.774703 316.401482 
L 621.774703 56.532473 
L 599.748277 56.532473 
z
" clip-path="url(#p97afa18494)" style="fill: #ff7f0e"/>
   </g>
   <g id="patch_16">
    <path d="M 699.868397 316.401482 
L 721.894824 316.401482 
L 721.894824 58.786322 
L 699.868397 58.786322 
z
" clip-path="url(#p97afa18494)" style="fill: #ff7f0e"/>
   </g>
   <g id="patch_17">
    <path d="M 121.174103 316.401482 
L 143.200529 316.401482 
L 143.200529 122.719342 
L 121.174103 122.719342 
z
" clip-path="url(#p97afa18494)" style="fill: #2ca02c"/>
   </g>
   <g id="patch_18">
    <path d="M 221.294223 316.401482 
L 243.320649 316.401482 
L 243.320649 118.467251 
L 221.294223 118.467251 
z
" clip-path="url(#p97afa18494)" style="fill: #2ca02c"/>
   </g>
   <g id="patch_19">
    <path d="M 321.414343 316.401482 
L 343.44077 316.401482 
L 343.44077 118.395631 
L 321.414343 118.395631 
z
" clip-path="url(#p97afa18494)" style="fill: #2ca02c"/>
   </g>
   <g id="patch_20">
    <path d="M 421.534463 316.401482 
L 443.56089 316.401482 
L 443.56089 116.665635 
L 421.534463 116.665635 
z
" clip-path="url(#p97afa18494)" style="fill: #2ca02c"/>
   </g>
   <g id="patch_21">
    <path d="M 521.654583 316.401482 
L 543.68101 316.401482 
L 543.68101 91.022917 
L 521.654583 91.022917 
z
" clip-path="url(#p97afa18494)" style="fill: #2ca02c"/>
   </g>
   <g id="patch_22">
    <path d="M 621.774703 316.401482 
L 643.80113 316.401482 
L 643.80113 122.839987 
L 621.774703 122.839987 
z
" clip-path="url(#p97afa18494)" style="fill: #2ca02c"/>
   </g>
   <g id="patch_23">
    <path d="M 721.894824 316.401482 
L 743.92125 316.401482 
L 743.92125 123.659658 
L 721.894824 123.659658 
z
" clip-path="url(#p97afa18494)" style="fill: #2ca02c"/>
   </g>
   <g id="matplotlib.axis_1">
    <g id="xtick_1">
     <g id="line2d_1">
      <defs>
       <path id="m7d05d917f7" d="M 0 0 
L 0 3.5 
" style="stroke: #000000; stroke-width: 0.8"/>
      </defs>
      <g>
       <use xlink:href="#m7d05d917f7" x="110.16089" y="316.401482" style="stroke: #000000; stroke-width: 0.8"/>
      </g>
     </g>
     <g id="text_1">
      <!-- GCN -->
      <g transform="translate(88.576672 338.1388) rotate(-20) scale(0.1 -0.1)">
       <defs>
        <path id="DejaVuSans-47" d="M 3809 666 
L 3809 1919 
L 2778 1919 
L 2778 2438 
L 4434 2438 
L 4434 434 
Q 4069 175 3628 42 
Q 3188 -91 2688 -91 
Q 1594 -91 976 548 
Q 359 1188 359 2328 
Q 359 3472 976 4111 
Q 1594 4750 2688 4750 
Q 3144 4750 3555 4637 
Q 3966 4525 4313 4306 
L 4313 3634 
Q 3963 3931 3569 4081 
Q 3175 4231 2741 4231 
Q 1884 4231 1454 3753 
Q 1025 3275 1025 2328 
Q 1025 1384 1454 906 
Q 1884 428 2741 428 
Q 3075 428 3337 486 
Q 3600 544 3809 666 
z
" transform="scale(0.015625)"/>
        <path id="DejaVuSans-43" d="M 4122 4306 
L 4122 3641 
Q 3803 3938 3442 4084 
Q 3081 4231 2675 4231 
Q 1875 4231 1450 3742 
Q 1025 3253 1025 2328 
Q 1025 1406 1450 917 
Q 1875 428 2675 428 
Q 3081 428 3442 575 
Q 3803 722 4122 1019 
L 4122 359 
Q 3791 134 3420 21 
Q 3050 -91 2638 -91 
Q 1578 -91 968 557 
Q 359 1206 359 2328 
Q 359 3453 968 4101 
Q 1578 4750 2638 4750 
Q 3056 4750 3426 4639 
Q 3797 4528 4122 4306 
z
" transform="scale(0.015625)"/>
        <path id="DejaVuSans-4e" d="M 628 4666 
L 1478 4666 
L 3547 763 
L 3547 4666 
L 4159 4666 
L 4159 0 
L 3309 0 
L 1241 3903 
L 1241 0 
L 628 0 
L 628 4666 
z
" transform="scale(0.015625)"/>
       </defs>
       <use xlink:href="#DejaVuSans-47"/>
       <use xlink:href="#DejaVuSans-43" transform="translate(77.490234 0)"/>
       <use xlink:href="#DejaVuSans-4e" transform="translate(147.314453 0)"/>
      </g>
     </g>
    </g>
    <g id="xtick_2">
     <g id="line2d_2">
      <g>
       <use xlink:href="#m7d05d917f7" x="210.28101" y="316.401482" style="stroke: #000000; stroke-width: 0.8"/>
      </g>
     </g>
     <g id="text_2">
      <!-- Weighted-GCN -->
      <g transform="translate(140.481751 355.68764) rotate(-20) scale(0.1 -0.1)">
       <defs>
        <path id="DejaVuSans-57" d="M 213 4666 
L 850 4666 
L 1831 722 
L 2809 4666 
L 3519 4666 
L 4500 722 
L 5478 4666 
L 6119 4666 
L 4947 0 
L 4153 0 
L 3169 4050 
L 2175 0 
L 1381 0 
L 213 4666 
z
" transform="scale(0.015625)"/>
        <path id="DejaVuSans-65" d="M 3597 1894 
L 3597 1613 
L 953 1613 
Q 991 1019 1311 708 
Q 1631 397 2203 397 
Q 2534 397 2845 478 
Q 3156 559 3463 722 
L 3463 178 
Q 3153 47 2828 -22 
Q 2503 -91 2169 -91 
Q 1331 -91 842 396 
Q 353 884 353 1716 
Q 353 2575 817 3079 
Q 1281 3584 2069 3584 
Q 2775 3584 3186 3129 
Q 3597 2675 3597 1894 
z
M 3022 2063 
Q 3016 2534 2758 2815 
Q 2500 3097 2075 3097 
Q 1594 3097 1305 2825 
Q 1016 2553 972 2059 
L 3022 2063 
z
" transform="scale(0.015625)"/>
        <path id="DejaVuSans-69" d="M 603 3500 
L 1178 3500 
L 1178 0 
L 603 0 
L 603 3500 
z
M 603 4863 
L 1178 4863 
L 1178 4134 
L 603 4134 
L 603 4863 
z
" transform="scale(0.015625)"/>
        <path id="DejaVuSans-67" d="M 2906 1791 
Q 2906 2416 2648 2759 
Q 2391 3103 1925 3103 
Q 1463 3103 1205 2759 
Q 947 2416 947 1791 
Q 947 1169 1205 825 
Q 1463 481 1925 481 
Q 2391 481 2648 825 
Q 2906 1169 2906 1791 
z
M 3481 434 
Q 3481 -459 3084 -895 
Q 2688 -1331 1869 -1331 
Q 1566 -1331 1297 -1286 
Q 1028 -1241 775 -1147 
L 775 -588 
Q 1028 -725 1275 -790 
Q 1522 -856 1778 -856 
Q 2344 -856 2625 -561 
Q 2906 -266 2906 331 
L 2906 616 
Q 2728 306 2450 153 
Q 2172 0 1784 0 
Q 1141 0 747 490 
Q 353 981 353 1791 
Q 353 2603 747 3093 
Q 1141 3584 1784 3584 
Q 2172 3584 2450 3431 
Q 2728 3278 2906 2969 
L 2906 3500 
L 3481 3500 
L 3481 434 
z
" transform="scale(0.015625)"/>
        <path id="DejaVuSans-68" d="M 3513 2113 
L 3513 0 
L 2938 0 
L 2938 2094 
Q 2938 2591 2744 2837 
Q 2550 3084 2163 3084 
Q 1697 3084 1428 2787 
Q 1159 2491 1159 1978 
L 1159 0 
L 581 0 
L 581 4863 
L 1159 4863 
L 1159 2956 
Q 1366 3272 1645 3428 
Q 1925 3584 2291 3584 
Q 2894 3584 3203 3211 
Q 3513 2838 3513 2113 
z
" transform="scale(0.015625)"/>
        <path id="DejaVuSans-74" d="M 1172 4494 
L 1172 3500 
L 2356 3500 
L 2356 3053 
L 1172 3053 
L 1172 1153 
Q 1172 725 1289 603 
Q 1406 481 1766 481 
L 2356 481 
L 2356 0 
L 1766 0 
Q 1100 0 847 248 
Q 594 497 594 1153 
L 594 3053 
L 172 3053 
L 172 3500 
L 594 3500 
L 594 4494 
L 1172 4494 
z
" transform="scale(0.015625)"/>
        <path id="DejaVuSans-64" d="M 2906 2969 
L 2906 4863 
L 3481 4863 
L 3481 0 
L 2906 0 
L 2906 525 
Q 2725 213 2448 61 
Q 2172 -91 1784 -91 
Q 1150 -91 751 415 
Q 353 922 353 1747 
Q 353 2572 751 3078 
Q 1150 3584 1784 3584 
Q 2172 3584 2448 3432 
Q 2725 3281 2906 2969 
z
M 947 1747 
Q 947 1113 1208 752 
Q 1469 391 1925 391 
Q 2381 391 2643 752 
Q 2906 1113 2906 1747 
Q 2906 2381 2643 2742 
Q 2381 3103 1925 3103 
Q 1469 3103 1208 2742 
Q 947 2381 947 1747 
z
" transform="scale(0.015625)"/>
        <path id="DejaVuSans-2d" d="M 313 2009 
L 1997 2009 
L 1997 1497 
L 313 1497 
L 313 2009 
z
" transform="scale(0.015625)"/>
       </defs>
       <use xlink:href="#DejaVuSans-57"/>
       <use xlink:href="#DejaVuSans-65" transform="translate(93.001953 0)"/>
       <use xlink:href="#DejaVuSans-69" transform="translate(154.525391 0)"/>
       <use xlink:href="#DejaVuSans-67" transform="translate(182.308594 0)"/>
       <use xlink:href="#DejaVuSans-68" transform="translate(245.785156 0)"/>
       <use xlink:href="#DejaVuSans-74" transform="translate(309.164062 0)"/>
       <use xlink:href="#DejaVuSans-65" transform="translate(348.373047 0)"/>
       <use xlink:href="#DejaVuSans-64" transform="translate(409.896484 0)"/>
       <use xlink:href="#DejaVuSans-2d" transform="translate(473.373047 0)"/>
       <use xlink:href="#DejaVuSans-47" transform="translate(513.082031 0)"/>
       <use xlink:href="#DejaVuSans-43" transform="translate(590.572266 0)"/>
       <use xlink:href="#DejaVuSans-4e" transform="translate(660.396484 0)"/>
      </g>
     </g>
    </g>
    <g id="xtick_3">
     <g id="line2d_3">
      <g>
       <use xlink:href="#m7d05d917f7" x="310.40113" y="316.401482" style="stroke: #000000; stroke-width: 0.8"/>
      </g>
     </g>
     <g id="text_3">
      <!-- Edge-GAT -->
      <g transform="translate(263.587634 347.321507) rotate(-20) scale(0.1 -0.1)">
       <defs>
        <path id="DejaVuSans-45" d="M 628 4666 
L 3578 4666 
L 3578 4134 
L 1259 4134 
L 1259 2753 
L 3481 2753 
L 3481 2222 
L 1259 2222 
L 1259 531 
L 3634 531 
L 3634 0 
L 628 0 
L 628 4666 
z
" transform="scale(0.015625)"/>
        <path id="DejaVuSans-41" d="M 2188 4044 
L 1331 1722 
L 3047 1722 
L 2188 4044 
z
M 1831 4666 
L 2547 4666 
L 4325 0 
L 3669 0 
L 3244 1197 
L 1141 1197 
L 716 0 
L 50 0 
L 1831 4666 
z
" transform="scale(0.015625)"/>
        <path id="DejaVuSans-54" d="M -19 4666 
L 3928 4666 
L 3928 4134 
L 2272 4134 
L 2272 0 
L 1638 0 
L 1638 4134 
L -19 4134 
L -19 4666 
z
" transform="scale(0.015625)"/>
       </defs>
       <use xlink:href="#DejaVuSans-45"/>
       <use xlink:href="#DejaVuSans-64" transform="translate(63.183594 0)"/>
       <use xlink:href="#DejaVuSans-67" transform="translate(126.660156 0)"/>
       <use xlink:href="#DejaVuSans-65" transform="translate(190.136719 0)"/>
       <use xlink:href="#DejaVuSans-2d" transform="translate(251.660156 0)"/>
       <use xlink:href="#DejaVuSans-47" transform="translate(291.369141 0)"/>
       <use xlink:href="#DejaVuSans-41" transform="translate(368.859375 0)"/>
       <use xlink:href="#DejaVuSans-54" transform="translate(429.517578 0)"/>
      </g>
     </g>
    </g>
    <g id="xtick_4">
     <g id="line2d_4">
      <g>
       <use xlink:href="#m7d05d917f7" x="410.52125" y="316.401482" style="stroke: #000000; stroke-width: 0.8"/>
      </g>
     </g>
     <g id="text_4">
      <!-- TEG-low -->
      <g transform="translate(371.41617 344.515873) rotate(-20) scale(0.1 -0.1)">
       <defs>
        <path id="DejaVuSans-6c" d="M 603 4863 
L 1178 4863 
L 1178 0 
L 603 0 
L 603 4863 
z
" transform="scale(0.015625)"/>
        <path id="DejaVuSans-6f" d="M 1959 3097 
Q 1497 3097 1228 2736 
Q 959 2375 959 1747 
Q 959 1119 1226 758 
Q 1494 397 1959 397 
Q 2419 397 2687 759 
Q 2956 1122 2956 1747 
Q 2956 2369 2687 2733 
Q 2419 3097 1959 3097 
z
M 1959 3584 
Q 2709 3584 3137 3096 
Q 3566 2609 3566 1747 
Q 3566 888 3137 398 
Q 2709 -91 1959 -91 
Q 1206 -91 779 398 
Q 353 888 353 1747 
Q 353 2609 779 3096 
Q 1206 3584 1959 3584 
z
" transform="scale(0.015625)"/>
        <path id="DejaVuSans-77" d="M 269 3500 
L 844 3500 
L 1563 769 
L 2278 3500 
L 2956 3500 
L 3675 769 
L 4391 3500 
L 4966 3500 
L 4050 0 
L 3372 0 
L 2619 2869 
L 1863 0 
L 1184 0 
L 269 3500 
z
" transform="scale(0.015625)"/>
       </defs>
       <use xlink:href="#DejaVuSans-54"/>
       <use xlink:href="#DejaVuSans-45" transform="translate(61.083984 0)"/>
       <use xlink:href="#DejaVuSans-47" transform="translate(124.267578 0)"/>
       <use xlink:href="#DejaVuSans-2d" transform="translate(201.757812 0)"/>
       <use xlink:href="#DejaVuSans-6c" transform="translate(237.841797 0)"/>
       <use xlink:href="#DejaVuSans-6f" transform="translate(265.625 0)"/>
       <use xlink:href="#DejaVuSans-77" transform="translate(326.806641 0)"/>
      </g>
     </g>
    </g>
    <g id="xtick_5">
     <g id="line2d_5">
      <g>
       <use xlink:href="#m7d05d917f7" x="510.64137" y="316.401482" style="stroke: #000000; stroke-width: 0.8"/>
      </g>
     </g>
     <g id="text_5">
      <!-- Stable-Tail GNN -->
      <g transform="translate(438.134622 356.673086) rotate(-20) scale(0.1 -0.1)">
       <defs>
        <path id="DejaVuSans-53" d="M 3425 4513 
L 3425 3897 
Q 3066 4069 2747 4153 
Q 2428 4238 2131 4238 
Q 1616 4238 1336 4038 
Q 1056 3838 1056 3469 
Q 1056 3159 1242 3001 
Q 1428 2844 1947 2747 
L 2328 2669 
Q 3034 2534 3370 2195 
Q 3706 1856 3706 1288 
Q 3706 609 3251 259 
Q 2797 -91 1919 -91 
Q 1588 -91 1214 -16 
Q 841 59 441 206 
L 441 856 
Q 825 641 1194 531 
Q 1563 422 1919 422 
Q 2459 422 2753 634 
Q 3047 847 3047 1241 
Q 3047 1584 2836 1778 
Q 2625 1972 2144 2069 
L 1759 2144 
Q 1053 2284 737 2584 
Q 422 2884 422 3419 
Q 422 4038 858 4394 
Q 1294 4750 2059 4750 
Q 2388 4750 2728 4690 
Q 3069 4631 3425 4513 
z
" transform="scale(0.015625)"/>
        <path id="DejaVuSans-61" d="M 2194 1759 
Q 1497 1759 1228 1600 
Q 959 1441 959 1056 
Q 959 750 1161 570 
Q 1363 391 1709 391 
Q 2188 391 2477 730 
Q 2766 1069 2766 1631 
L 2766 1759 
L 2194 1759 
z
M 3341 1997 
L 3341 0 
L 2766 0 
L 2766 531 
Q 2569 213 2275 61 
Q 1981 -91 1556 -91 
Q 1019 -91 701 211 
Q 384 513 384 1019 
Q 384 1609 779 1909 
Q 1175 2209 1959 2209 
L 2766 2209 
L 2766 2266 
Q 2766 2663 2505 2880 
Q 2244 3097 1772 3097 
Q 1472 3097 1187 3025 
Q 903 2953 641 2809 
L 641 3341 
Q 956 3463 1253 3523 
Q 1550 3584 1831 3584 
Q 2591 3584 2966 3190 
Q 3341 2797 3341 1997 
z
" transform="scale(0.015625)"/>
        <path id="DejaVuSans-62" d="M 3116 1747 
Q 3116 2381 2855 2742 
Q 2594 3103 2138 3103 
Q 1681 3103 1420 2742 
Q 1159 2381 1159 1747 
Q 1159 1113 1420 752 
Q 1681 391 2138 391 
Q 2594 391 2855 752 
Q 3116 1113 3116 1747 
z
M 1159 2969 
Q 1341 3281 1617 3432 
Q 1894 3584 2278 3584 
Q 2916 3584 3314 3078 
Q 3713 2572 3713 1747 
Q 3713 922 3314 415 
Q 2916 -91 2278 -91 
Q 1894 -91 1617 61 
Q 1341 213 1159 525 
L 1159 0 
L 581 0 
L 581 4863 
L 1159 4863 
L 1159 2969 
z
" transform="scale(0.015625)"/>
        <path id="DejaVuSans-20" transform="scale(0.015625)"/>
       </defs>
       <use xlink:href="#DejaVuSans-53"/>
       <use xlink:href="#DejaVuSans-74" transform="translate(63.476562 0)"/>
       <use xlink:href="#DejaVuSans-61" transform="translate(102.685547 0)"/>
       <use xlink:href="#DejaVuSans-62" transform="translate(163.964844 0)"/>
       <use xlink:href="#DejaVuSans-6c" transform="translate(227.441406 0)"/>
       <use xlink:href="#DejaVuSans-65" transform="translate(255.224609 0)"/>
       <use xlink:href="#DejaVuSans-2d" transform="translate(316.748047 0)"/>
       <use xlink:href="#DejaVuSans-54" transform="translate(343.707031 0)"/>
       <use xlink:href="#DejaVuSans-61" transform="translate(388.291016 0)"/>
       <use xlink:href="#DejaVuSans-69" transform="translate(449.570312 0)"/>
       <use xlink:href="#DejaVuSans-6c" transform="translate(477.353516 0)"/>
       <use xlink:href="#DejaVuSans-20" transform="translate(505.136719 0)"/>
       <use xlink:href="#DejaVuSans-47" transform="translate(536.923828 0)"/>
       <use xlink:href="#DejaVuSans-4e" transform="translate(614.414062 0)"/>
       <use xlink:href="#DejaVuSans-4e" transform="translate(689.21875 0)"/>
      </g>
     </g>
    </g>
    <g id="xtick_6">
     <g id="line2d_6">
      <g>
       <use xlink:href="#m7d05d917f7" x="610.76149" y="316.401482" style="stroke: #000000; stroke-width: 0.8"/>
      </g>
     </g>
     <g id="text_6">
      <!-- Fusion-rho0.25 -->
      <g transform="translate(540.279486 355.936139) rotate(-20) scale(0.1 -0.1)">
       <defs>
        <path id="DejaVuSans-46" d="M 628 4666 
L 3309 4666 
L 3309 4134 
L 1259 4134 
L 1259 2759 
L 3109 2759 
L 3109 2228 
L 1259 2228 
L 1259 0 
L 628 0 
L 628 4666 
z
" transform="scale(0.015625)"/>
        <path id="DejaVuSans-75" d="M 544 1381 
L 544 3500 
L 1119 3500 
L 1119 1403 
Q 1119 906 1312 657 
Q 1506 409 1894 409 
Q 2359 409 2629 706 
Q 2900 1003 2900 1516 
L 2900 3500 
L 3475 3500 
L 3475 0 
L 2900 0 
L 2900 538 
Q 2691 219 2414 64 
Q 2138 -91 1772 -91 
Q 1169 -91 856 284 
Q 544 659 544 1381 
z
M 1991 3584 
L 1991 3584 
z
" transform="scale(0.015625)"/>
        <path id="DejaVuSans-73" d="M 2834 3397 
L 2834 2853 
Q 2591 2978 2328 3040 
Q 2066 3103 1784 3103 
Q 1356 3103 1142 2972 
Q 928 2841 928 2578 
Q 928 2378 1081 2264 
Q 1234 2150 1697 2047 
L 1894 2003 
Q 2506 1872 2764 1633 
Q 3022 1394 3022 966 
Q 3022 478 2636 193 
Q 2250 -91 1575 -91 
Q 1294 -91 989 -36 
Q 684 19 347 128 
L 347 722 
Q 666 556 975 473 
Q 1284 391 1588 391 
Q 1994 391 2212 530 
Q 2431 669 2431 922 
Q 2431 1156 2273 1281 
Q 2116 1406 1581 1522 
L 1381 1569 
Q 847 1681 609 1914 
Q 372 2147 372 2553 
Q 372 3047 722 3315 
Q 1072 3584 1716 3584 
Q 2034 3584 2315 3537 
Q 2597 3491 2834 3397 
z
" transform="scale(0.015625)"/>
        <path id="DejaVuSans-6e" d="M 3513 2113 
L 3513 0 
L 2938 0 
L 2938 2094 
Q 2938 2591 2744 2837 
Q 2550 3084 2163 3084 
Q 1697 3084 1428 2787 
Q 1159 2491 1159 1978 
L 1159 0 
L 581 0 
L 581 3500 
L 1159 3500 
L 1159 2956 
Q 1366 3272 1645 3428 
Q 1925 3584 2291 3584 
Q 2894 3584 3203 3211 
Q 3513 2838 3513 2113 
z
" transform="scale(0.015625)"/>
        <path id="DejaVuSans-72" d="M 2631 2963 
Q 2534 3019 2420 3045 
Q 2306 3072 2169 3072 
Q 1681 3072 1420 2755 
Q 1159 2438 1159 1844 
L 1159 0 
L 581 0 
L 581 3500 
L 1159 3500 
L 1159 2956 
Q 1341 3275 1631 3429 
Q 1922 3584 2338 3584 
Q 2397 3584 2469 3576 
Q 2541 3569 2628 3553 
L 2631 2963 
z
" transform="scale(0.015625)"/>
        <path id="DejaVuSans-30" d="M 2034 4250 
Q 1547 4250 1301 3770 
Q 1056 3291 1056 2328 
Q 1056 1369 1301 889 
Q 1547 409 2034 409 
Q 2525 409 2770 889 
Q 3016 1369 3016 2328 
Q 3016 3291 2770 3770 
Q 2525 4250 2034 4250 
z
M 2034 4750 
Q 2819 4750 3233 4129 
Q 3647 3509 3647 2328 
Q 3647 1150 3233 529 
Q 2819 -91 2034 -91 
Q 1250 -91 836 529 
Q 422 1150 422 2328 
Q 422 3509 836 4129 
Q 1250 4750 2034 4750 
z
" transform="scale(0.015625)"/>
        <path id="DejaVuSans-2e" d="M 684 794 
L 1344 794 
L 1344 0 
L 684 0 
L 684 794 
z
" transform="scale(0.015625)"/>
        <path id="DejaVuSans-32" d="M 1228 531 
L 3431 531 
L 3431 0 
L 469 0 
L 469 531 
Q 828 903 1448 1529 
Q 2069 2156 2228 2338 
Q 2531 2678 2651 2914 
Q 2772 3150 2772 3378 
Q 2772 3750 2511 3984 
Q 2250 4219 1831 4219 
Q 1534 4219 1204 4116 
Q 875 4013 500 3803 
L 500 4441 
Q 881 4594 1212 4672 
Q 1544 4750 1819 4750 
Q 2544 4750 2975 4387 
Q 3406 4025 3406 3419 
Q 3406 3131 3298 2873 
Q 3191 2616 2906 2266 
Q 2828 2175 2409 1742 
Q 1991 1309 1228 531 
z
" transform="scale(0.015625)"/>
        <path id="DejaVuSans-35" d="M 691 4666 
L 3169 4666 
L 3169 4134 
L 1269 4134 
L 1269 2991 
Q 1406 3038 1543 3061 
Q 1681 3084 1819 3084 
Q 2600 3084 3056 2656 
Q 3513 2228 3513 1497 
Q 3513 744 3044 326 
Q 2575 -91 1722 -91 
Q 1428 -91 1123 -41 
Q 819 9 494 109 
L 494 744 
Q 775 591 1075 516 
Q 1375 441 1709 441 
Q 2250 441 2565 725 
Q 2881 1009 2881 1497 
Q 2881 1984 2565 2268 
Q 2250 2553 1709 2553 
Q 1456 2553 1204 2497 
Q 953 2441 691 2322 
L 691 4666 
z
" transform="scale(0.015625)"/>
       </defs>
       <use xlink:href="#DejaVuSans-46"/>
       <use xlink:href="#DejaVuSans-75" transform="translate(52.019531 0)"/>
       <use xlink:href="#DejaVuSans-73" transform="translate(115.398438 0)"/>
       <use xlink:href="#DejaVuSans-69" transform="translate(167.498047 0)"/>
       <use xlink:href="#DejaVuSans-6f" transform="translate(195.28125 0)"/>
       <use xlink:href="#DejaVuSans-6e" transform="translate(256.462891 0)"/>
       <use xlink:href="#DejaVuSans-2d" transform="translate(319.841797 0)"/>
       <use xlink:href="#DejaVuSans-72" transform="translate(355.925781 0)"/>
       <use xlink:href="#DejaVuSans-68" transform="translate(395.289062 0)"/>
       <use xlink:href="#DejaVuSans-6f" transform="translate(458.667969 0)"/>
       <use xlink:href="#DejaVuSans-30" transform="translate(519.849609 0)"/>
       <use xlink:href="#DejaVuSans-2e" transform="translate(583.472656 0)"/>
       <use xlink:href="#DejaVuSans-32" transform="translate(615.259766 0)"/>
       <use xlink:href="#DejaVuSans-35" transform="translate(678.882812 0)"/>
      </g>
     </g>
    </g>
    <g id="xtick_7">
     <g id="line2d_7">
      <g>
       <use xlink:href="#m7d05d917f7" x="710.88161" y="316.401482" style="stroke: #000000; stroke-width: 0.8"/>
      </g>
     </g>
     <g id="text_7">
      <!-- Ensemble-4 -->
      <g transform="translate(654.719641 350.724073) rotate(-20) scale(0.1 -0.1)">
       <defs>
        <path id="DejaVuSans-6d" d="M 3328 2828 
Q 3544 3216 3844 3400 
Q 4144 3584 4550 3584 
Q 5097 3584 5394 3201 
Q 5691 2819 5691 2113 
L 5691 0 
L 5113 0 
L 5113 2094 
Q 5113 2597 4934 2840 
Q 4756 3084 4391 3084 
Q 3944 3084 3684 2787 
Q 3425 2491 3425 1978 
L 3425 0 
L 2847 0 
L 2847 2094 
Q 2847 2600 2669 2842 
Q 2491 3084 2119 3084 
Q 1678 3084 1418 2786 
Q 1159 2488 1159 1978 
L 1159 0 
L 581 0 
L 581 3500 
L 1159 3500 
L 1159 2956 
Q 1356 3278 1631 3431 
Q 1906 3584 2284 3584 
Q 2666 3584 2933 3390 
Q 3200 3197 3328 2828 
z
" transform="scale(0.015625)"/>
        <path id="DejaVuSans-34" d="M 2419 4116 
L 825 1625 
L 2419 1625 
L 2419 4116 
z
M 2253 4666 
L 3047 4666 
L 3047 1625 
L 3713 1625 
L 3713 1100 
L 3047 1100 
L 3047 0 
L 2419 0 
L 2419 1100 
L 313 1100 
L 313 1709 
L 2253 4666 
z
" transform="scale(0.015625)"/>
       </defs>
       <use xlink:href="#DejaVuSans-45"/>
       <use xlink:href="#DejaVuSans-6e" transform="translate(63.183594 0)"/>
       <use xlink:href="#DejaVuSans-73" transform="translate(126.5625 0)"/>
       <use xlink:href="#DejaVuSans-65" transform="translate(178.662109 0)"/>
       <use xlink:href="#DejaVuSans-6d" transform="translate(240.185547 0)"/>
       <use xlink:href="#DejaVuSans-62" transform="translate(337.597656 0)"/>
       <use xlink:href="#DejaVuSans-6c" transform="translate(401.074219 0)"/>
       <use xlink:href="#DejaVuSans-65" transform="translate(428.857422 0)"/>
       <use xlink:href="#DejaVuSans-2d" transform="translate(490.380859 0)"/>
       <use xlink:href="#DejaVuSans-34" transform="translate(526.464844 0)"/>
      </g>
     </g>
    </g>
   </g>
   <g id="matplotlib.axis_2">
    <g id="ytick_1">
     <g id="line2d_8">
      <path d="M 43.78125 316.401482 
L 777.26125 316.401482 
" clip-path="url(#p97afa18494)" style="fill: none; stroke: #b0b0b0; stroke-opacity: 0.25; stroke-width: 0.8; stroke-linecap: square"/>
     </g>
     <g id="line2d_9">
      <defs>
       <path id="mc94d142c05" d="M 0 0 
L -3.5 0 
" style="stroke: #000000; stroke-width: 0.8"/>
      </defs>
      <g>
       <use xlink:href="#mc94d142c05" x="43.78125" y="316.401482" style="stroke: #000000; stroke-width: 0.8"/>
      </g>
     </g>
     <g id="text_8">
      <!-- 0.0 -->
      <g transform="translate(20.878125 320.200701) scale(0.1 -0.1)">
       <use xlink:href="#DejaVuSans-30"/>
       <use xlink:href="#DejaVuSans-2e" transform="translate(63.623047 0)"/>
       <use xlink:href="#DejaVuSans-30" transform="translate(95.410156 0)"/>
      </g>
     </g>
    </g>
    <g id="ytick_2">
     <g id="line2d_10">
      <path d="M 43.78125 252.213902 
L 777.26125 252.213902 
" clip-path="url(#p97afa18494)" style="fill: none; stroke: #b0b0b0; stroke-opacity: 0.25; stroke-width: 0.8; stroke-linecap: square"/>
     </g>
     <g id="line2d_11">
      <g>
       <use xlink:href="#mc94d142c05" x="43.78125" y="252.213902" style="stroke: #000000; stroke-width: 0.8"/>
      </g>
     </g>
     <g id="text_9">
      <!-- 0.1 -->
      <g transform="translate(20.878125 256.013121) scale(0.1 -0.1)">
       <defs>
        <path id="DejaVuSans-31" d="M 794 531 
L 1825 531 
L 1825 4091 
L 703 3866 
L 703 4441 
L 1819 4666 
L 2450 4666 
L 2450 531 
L 3481 531 
L 3481 0 
L 794 0 
L 794 531 
z
" transform="scale(0.015625)"/>
       </defs>
       <use xlink:href="#DejaVuSans-30"/>
       <use xlink:href="#DejaVuSans-2e" transform="translate(63.623047 0)"/>
       <use xlink:href="#DejaVuSans-31" transform="translate(95.410156 0)"/>
      </g>
     </g>
    </g>
    <g id="ytick_3">
     <g id="line2d_12">
      <path d="M 43.78125 188.026321 
L 777.26125 188.026321 
" clip-path="url(#p97afa18494)" style="fill: none; stroke: #b0b0b0; stroke-opacity: 0.25; stroke-width: 0.8; stroke-linecap: square"/>
     </g>
     <g id="line2d_13">
      <g>
       <use xlink:href="#mc94d142c05" x="43.78125" y="188.026321" style="stroke: #000000; stroke-width: 0.8"/>
      </g>
     </g>
     <g id="text_10">
      <!-- 0.2 -->
      <g transform="translate(20.878125 191.82554) scale(0.1 -0.1)">
       <use xlink:href="#DejaVuSans-30"/>
       <use xlink:href="#DejaVuSans-2e" transform="translate(63.623047 0)"/>
       <use xlink:href="#DejaVuSans-32" transform="translate(95.410156 0)"/>
      </g>
     </g>
    </g>
    <g id="ytick_4">
     <g id="line2d_14">
      <path d="M 43.78125 123.838741 
L 777.26125 123.838741 
" clip-path="url(#p97afa18494)" style="fill: none; stroke: #b0b0b0; stroke-opacity: 0.25; stroke-width: 0.8; stroke-linecap: square"/>
     </g>
     <g id="line2d_15">
      <g>
       <use xlink:href="#mc94d142c05" x="43.78125" y="123.838741" style="stroke: #000000; stroke-width: 0.8"/>
      </g>
     </g>
     <g id="text_11">
      <!-- 0.3 -->
      <g transform="translate(20.878125 127.637959) scale(0.1 -0.1)">
       <defs>
        <path id="DejaVuSans-33" d="M 2597 2516 
Q 3050 2419 3304 2112 
Q 3559 1806 3559 1356 
Q 3559 666 3084 287 
Q 2609 -91 1734 -91 
Q 1441 -91 1130 -33 
Q 819 25 488 141 
L 488 750 
Q 750 597 1062 519 
Q 1375 441 1716 441 
Q 2309 441 2620 675 
Q 2931 909 2931 1356 
Q 2931 1769 2642 2001 
Q 2353 2234 1838 2234 
L 1294 2234 
L 1294 2753 
L 1863 2753 
Q 2328 2753 2575 2939 
Q 2822 3125 2822 3475 
Q 2822 3834 2567 4026 
Q 2313 4219 1838 4219 
Q 1578 4219 1281 4162 
Q 984 4106 628 3988 
L 628 4550 
Q 988 4650 1302 4700 
Q 1616 4750 1894 4750 
Q 2613 4750 3031 4423 
Q 3450 4097 3450 3541 
Q 3450 3153 3228 2886 
Q 3006 2619 2597 2516 
z
" transform="scale(0.015625)"/>
       </defs>
       <use xlink:href="#DejaVuSans-30"/>
       <use xlink:href="#DejaVuSans-2e" transform="translate(63.623047 0)"/>
       <use xlink:href="#DejaVuSans-33" transform="translate(95.410156 0)"/>
      </g>
     </g>
    </g>
    <g id="ytick_5">
     <g id="line2d_16">
      <path d="M 43.78125 59.65116 
L 777.26125 59.65116 
" clip-path="url(#p97afa18494)" style="fill: none; stroke: #b0b0b0; stroke-opacity: 0.25; stroke-width: 0.8; stroke-linecap: square"/>
     </g>
     <g id="line2d_17">
      <g>
       <use xlink:href="#mc94d142c05" x="43.78125" y="59.65116" style="stroke: #000000; stroke-width: 0.8"/>
      </g>
     </g>
     <g id="text_12">
      <!-- 0.4 -->
      <g transform="translate(20.878125 63.450379) scale(0.1 -0.1)">
       <use xlink:href="#DejaVuSans-30"/>
       <use xlink:href="#DejaVuSans-2e" transform="translate(63.623047 0)"/>
       <use xlink:href="#DejaVuSans-34" transform="translate(95.410156 0)"/>
      </g>
     </g>
    </g>
    <g id="text_13">
     <!-- Edge risk -->
     <g transform="translate(14.798438 192.477772) rotate(-90) scale(0.1 -0.1)">
      <defs>
       <path id="DejaVuSans-6b" d="M 581 4863 
L 1159 4863 
L 1159 1991 
L 2875 3500 
L 3609 3500 
L 1753 1863 
L 3688 0 
L 2938 0 
L 1159 1709 
L 1159 0 
L 581 0 
L 581 4863 
z
" transform="scale(0.015625)"/>
      </defs>
      <use xlink:href="#DejaVuSans-45"/>
      <use xlink:href="#DejaVuSans-64" transform="translate(63.183594 0)"/>
      <use xlink:href="#DejaVuSans-67" transform="translate(126.660156 0)"/>
      <use xlink:href="#DejaVuSans-65" transform="translate(190.136719 0)"/>
      <use xlink:href="#DejaVuSans-20" transform="translate(251.660156 0)"/>
      <use xlink:href="#DejaVuSans-72" transform="translate(283.447266 0)"/>
      <use xlink:href="#DejaVuSans-69" transform="translate(324.560547 0)"/>
      <use xlink:href="#DejaVuSans-73" transform="translate(352.34375 0)"/>
      <use xlink:href="#DejaVuSans-6b" transform="translate(404.443359 0)"/>
     </g>
    </g>
   </g>
   <g id="LineCollection_1">
    <path d="M 88.134463 258.102903 
L 88.134463 237.591499 
" clip-path="url(#p97afa18494)" style="fill: none; stroke: #000000; stroke-width: 1.5"/>
    <path d="M 188.254583 268.756992 
L 188.254583 251.888935 
" clip-path="url(#p97afa18494)" style="fill: none; stroke: #000000; stroke-width: 1.5"/>
    <path d="M 288.374703 254.21499 
L 288.374703 238.583544 
" clip-path="url(#p97afa18494)" style="fill: none; stroke: #000000; stroke-width: 1.5"/>
    <path d="M 388.494824 262.595345 
L 388.494824 252.447616 
" clip-path="url(#p97afa18494)" style="fill: none; stroke: #000000; stroke-width: 1.5"/>
    <path d="M 488.614944 279.989657 
L 488.614944 272.501989 
" clip-path="url(#p97afa18494)" style="fill: none; stroke: #000000; stroke-width: 1.5"/>
    <path d="M 588.735064 258.264342 
L 588.735064 241.923594 
" clip-path="url(#p97afa18494)" style="fill: none; stroke: #000000; stroke-width: 1.5"/>
    <path d="M 688.855184 255.71066 
L 688.855184 247.345632 
" clip-path="url(#p97afa18494)" style="fill: none; stroke: #000000; stroke-width: 1.5"/>
   </g>
   <g id="line2d_18">
    <defs>
     <path id="m854d32db58" d="M 3 0 
L -3 -0 
" style="stroke: #000000"/>
    </defs>
    <g clip-path="url(#p97afa18494)">
     <use xlink:href="#m854d32db58" x="88.134463" y="258.102903" style="fill: #1f77b4; stroke: #000000"/>
     <use xlink:href="#m854d32db58" x="188.254583" y="268.756992" style="fill: #1f77b4; stroke: #000000"/>
     <use xlink:href="#m854d32db58" x="288.374703" y="254.21499" style="fill: #1f77b4; stroke: #000000"/>
     <use xlink:href="#m854d32db58" x="388.494824" y="262.595345" style="fill: #1f77b4; stroke: #000000"/>
     <use xlink:href="#m854d32db58" x="488.614944" y="279.989657" style="fill: #1f77b4; stroke: #000000"/>
     <use xlink:href="#m854d32db58" x="588.735064" y="258.264342" style="fill: #1f77b4; stroke: #000000"/>
     <use xlink:href="#m854d32db58" x="688.855184" y="255.71066" style="fill: #1f77b4; stroke: #000000"/>
    </g>
   </g>
   <g id="line2d_19">
    <g clip-path="url(#p97afa18494)">
     <use xlink:href="#m854d32db58" x="88.134463" y="237.591499" style="fill: #1f77b4; stroke: #000000"/>
     <use xlink:href="#m854d32db58" x="188.254583" y="251.888935" style="fill: #1f77b4; stroke: #000000"/>
     <use xlink:href="#m854d32db58" x="288.374703" y="238.583544" style="fill: #1f77b4; stroke: #000000"/>
     <use xlink:href="#m854d32db58" x="388.494824" y="252.447616" style="fill: #1f77b4; stroke: #000000"/>
     <use xlink:href="#m854d32db58" x="488.614944" y="272.501989" style="fill: #1f77b4; stroke: #000000"/>
     <use xlink:href="#m854d32db58" x="588.735064" y="241.923594" style="fill: #1f77b4; stroke: #000000"/>
     <use xlink:href="#m854d32db58" x="688.855184" y="247.345632" style="fill: #1f77b4; stroke: #000000"/>
    </g>
   </g>
   <g id="LineCollection_2">
    <path d="M 110.16089 68.318192 
L 110.16089 40.011928 
" clip-path="url(#p97afa18494)" style="fill: none; stroke: #000000; stroke-width: 1.5"/>
    <path d="M 210.28101 79.683299 
L 210.28101 45.094165 
" clip-path="url(#p97afa18494)" style="fill: none; stroke: #000000; stroke-width: 1.5"/>
    <path d="M 310.40113 56.244416 
L 310.40113 40.542416 
" clip-path="url(#p97afa18494)" style="fill: none; stroke: #000000; stroke-width: 1.5"/>
    <path d="M 410.52125 75.132357 
L 410.52125 40.43891 
" clip-path="url(#p97afa18494)" style="fill: none; stroke: #000000; stroke-width: 1.5"/>
    <path d="M 510.64137 65.412421 
L 510.64137 36.322094 
" clip-path="url(#p97afa18494)" style="fill: none; stroke: #000000; stroke-width: 1.5"/>
    <path d="M 610.76149 72.616179 
L 610.76149 40.448767 
" clip-path="url(#p97afa18494)" style="fill: none; stroke: #000000; stroke-width: 1.5"/>
    <path d="M 710.88161 72.235596 
L 710.88161 45.337048 
" clip-path="url(#p97afa18494)" style="fill: none; stroke: #000000; stroke-width: 1.5"/>
   </g>
   <g id="line2d_20">
    <g clip-path="url(#p97afa18494)">
     <use xlink:href="#m854d32db58" x="110.16089" y="68.318192" style="fill: #1f77b4; stroke: #000000"/>
     <use xlink:href="#m854d32db58" x="210.28101" y="79.683299" style="fill: #1f77b4; stroke: #000000"/>
     <use xlink:href="#m854d32db58" x="310.40113" y="56.244416" style="fill: #1f77b4; stroke: #000000"/>
     <use xlink:href="#m854d32db58" x="410.52125" y="75.132357" style="fill: #1f77b4; stroke: #000000"/>
     <use xlink:href="#m854d32db58" x="510.64137" y="65.412421" style="fill: #1f77b4; stroke: #000000"/>
     <use xlink:href="#m854d32db58" x="610.76149" y="72.616179" style="fill: #1f77b4; stroke: #000000"/>
     <use xlink:href="#m854d32db58" x="710.88161" y="72.235596" style="fill: #1f77b4; stroke: #000000"/>
    </g>
   </g>
   <g id="line2d_21">
    <g clip-path="url(#p97afa18494)">
     <use xlink:href="#m854d32db58" x="110.16089" y="40.011928" style="fill: #1f77b4; stroke: #000000"/>
     <use xlink:href="#m854d32db58" x="210.28101" y="45.094165" style="fill: #1f77b4; stroke: #000000"/>
     <use xlink:href="#m854d32db58" x="310.40113" y="40.542416" style="fill: #1f77b4; stroke: #000000"/>
     <use xlink:href="#m854d32db58" x="410.52125" y="40.43891" style="fill: #1f77b4; stroke: #000000"/>
     <use xlink:href="#m854d32db58" x="510.64137" y="36.322094" style="fill: #1f77b4; stroke: #000000"/>
     <use xlink:href="#m854d32db58" x="610.76149" y="40.448767" style="fill: #1f77b4; stroke: #000000"/>
     <use xlink:href="#m854d32db58" x="710.88161" y="45.337048" style="fill: #1f77b4; stroke: #000000"/>
    </g>
   </g>
   <g id="LineCollection_3">
    <path d="M 132.187316 134.29827 
L 132.187316 111.140413 
" clip-path="url(#p97afa18494)" style="fill: none; stroke: #000000; stroke-width: 1.5"/>
    <path d="M 232.307436 135.275747 
L 232.307436 101.658754 
" clip-path="url(#p97afa18494)" style="fill: none; stroke: #000000; stroke-width: 1.5"/>
    <path d="M 332.427556 131.846734 
L 332.427556 104.944528 
" clip-path="url(#p97afa18494)" style="fill: none; stroke: #000000; stroke-width: 1.5"/>
    <path d="M 432.547676 135.017629 
L 432.547676 98.313642 
" clip-path="url(#p97afa18494)" style="fill: none; stroke: #000000; stroke-width: 1.5"/>
    <path d="M 532.667797 104.030188 
L 532.667797 78.015647 
" clip-path="url(#p97afa18494)" style="fill: none; stroke: #000000; stroke-width: 1.5"/>
    <path d="M 632.787917 136.573903 
L 632.787917 109.106072 
" clip-path="url(#p97afa18494)" style="fill: none; stroke: #000000; stroke-width: 1.5"/>
    <path d="M 732.908037 136.199774 
L 732.908037 111.119542 
" clip-path="url(#p97afa18494)" style="fill: none; stroke: #000000; stroke-width: 1.5"/>
   </g>
   <g id="line2d_22">
    <g clip-path="url(#p97afa18494)">
     <use xlink:href="#m854d32db58" x="132.187316" y="134.29827" style="fill: #1f77b4; stroke: #000000"/>
     <use xlink:href="#m854d32db58" x="232.307436" y="135.275747" style="fill: #1f77b4; stroke: #000000"/>
     <use xlink:href="#m854d32db58" x="332.427556" y="131.846734" style="fill: #1f77b4; stroke: #000000"/>
     <use xlink:href="#m854d32db58" x="432.547676" y="135.017629" style="fill: #1f77b4; stroke: #000000"/>
     <use xlink:href="#m854d32db58" x="532.667797" y="104.030188" style="fill: #1f77b4; stroke: #000000"/>
     <use xlink:href="#m854d32db58" x="632.787917" y="136.573903" style="fill: #1f77b4; stroke: #000000"/>
     <use xlink:href="#m854d32db58" x="732.908037" y="136.199774" style="fill: #1f77b4; stroke: #000000"/>
    </g>
   </g>
   <g id="line2d_23">
    <g clip-path="url(#p97afa18494)">
     <use xlink:href="#m854d32db58" x="132.187316" y="111.140413" style="fill: #1f77b4; stroke: #000000"/>
     <use xlink:href="#m854d32db58" x="232.307436" y="101.658754" style="fill: #1f77b4; stroke: #000000"/>
     <use xlink:href="#m854d32db58" x="332.427556" y="104.944528" style="fill: #1f77b4; stroke: #000000"/>
     <use xlink:href="#m854d32db58" x="432.547676" y="98.313642" style="fill: #1f77b4; stroke: #000000"/>
     <use xlink:href="#m854d32db58" x="532.667797" y="78.015647" style="fill: #1f77b4; stroke: #000000"/>
     <use xlink:href="#m854d32db58" x="632.787917" y="109.106072" style="fill: #1f77b4; stroke: #000000"/>
     <use xlink:href="#m854d32db58" x="732.908037" y="111.119542" style="fill: #1f77b4; stroke: #000000"/>
    </g>
   </g>
   <g id="patch_24">
    <path d="M 43.78125 316.401482 
L 43.78125 22.318125 
" style="fill: none; stroke: #000000; stroke-width: 0.8; stroke-linejoin: miter; stroke-linecap: square"/>
   </g>
   <g id="patch_25">
    <path d="M 777.26125 316.401482 
L 777.26125 22.318125 
" style="fill: none; stroke: #000000; stroke-width: 0.8; stroke-linejoin: miter; stroke-linecap: square"/>
   </g>
   <g id="patch_26">
    <path d="M 43.78125 316.401482 
L 777.26125 316.401482 
" style="fill: none; stroke: #000000; stroke-width: 0.8; stroke-linejoin: miter; stroke-linecap: square"/>
   </g>
   <g id="patch_27">
    <path d="M 43.78125 22.318125 
L 777.26125 22.318125 
" style="fill: none; stroke: #000000; stroke-width: 0.8; stroke-linejoin: miter; stroke-linecap: square"/>
   </g>
   <g id="text_14">
    <!-- Tail quantile comparison (10seed mean +/- std) -->
    <g transform="translate(267.740937 16.318125) scale(0.12 -0.12)">
     <defs>
      <path id="DejaVuSans-71" d="M 947 1747 
Q 947 1113 1208 752 
Q 1469 391 1925 391 
Q 2381 391 2643 752 
Q 2906 1113 2906 1747 
Q 2906 2381 2643 2742 
Q 2381 3103 1925 3103 
Q 1469 3103 1208 2742 
Q 947 2381 947 1747 
z
M 2906 525 
Q 2725 213 2448 61 
Q 2172 -91 1784 -91 
Q 1150 -91 751 415 
Q 353 922 353 1747 
Q 353 2572 751 3078 
Q 1150 3584 1784 3584 
Q 2172 3584 2448 3432 
Q 2725 3281 2906 2969 
L 2906 3500 
L 3481 3500 
L 3481 -1331 
L 2906 -1331 
L 2906 525 
z
" transform="scale(0.015625)"/>
      <path id="DejaVuSans-63" d="M 3122 3366 
L 3122 2828 
Q 2878 2963 2633 3030 
Q 2388 3097 2138 3097 
Q 1578 3097 1268 2742 
Q 959 2388 959 1747 
Q 959 1106 1268 751 
Q 1578 397 2138 397 
Q 2388 397 2633 464 
Q 2878 531 3122 666 
L 3122 134 
Q 2881 22 2623 -34 
Q 2366 -91 2075 -91 
Q 1284 -91 818 406 
Q 353 903 353 1747 
Q 353 2603 823 3093 
Q 1294 3584 2113 3584 
Q 2378 3584 2631 3529 
Q 2884 3475 3122 3366 
z
" transform="scale(0.015625)"/>
      <path id="DejaVuSans-70" d="M 1159 525 
L 1159 -1331 
L 581 -1331 
L 581 3500 
L 1159 3500 
L 1159 2969 
Q 1341 3281 1617 3432 
Q 1894 3584 2278 3584 
Q 2916 3584 3314 3078 
Q 3713 2572 3713 1747 
Q 3713 922 3314 415 
Q 2916 -91 2278 -91 
Q 1894 -91 1617 61 
Q 1341 213 1159 525 
z
M 3116 1747 
Q 3116 2381 2855 2742 
Q 2594 3103 2138 3103 
Q 1681 3103 1420 2742 
Q 1159 2381 1159 1747 
Q 1159 1113 1420 752 
Q 1681 391 2138 391 
Q 2594 391 2855 752 
Q 3116 1113 3116 1747 
z
" transform="scale(0.015625)"/>
      <path id="DejaVuSans-28" d="M 1984 4856 
Q 1566 4138 1362 3434 
Q 1159 2731 1159 2009 
Q 1159 1288 1364 580 
Q 1569 -128 1984 -844 
L 1484 -844 
Q 1016 -109 783 600 
Q 550 1309 550 2009 
Q 550 2706 781 3412 
Q 1013 4119 1484 4856 
L 1984 4856 
z
" transform="scale(0.015625)"/>
      <path id="DejaVuSans-2b" d="M 2944 4013 
L 2944 2272 
L 4684 2272 
L 4684 1741 
L 2944 1741 
L 2944 0 
L 2419 0 
L 2419 1741 
L 678 1741 
L 678 2272 
L 2419 2272 
L 2419 4013 
L 2944 4013 
z
" transform="scale(0.015625)"/>
      <path id="DejaVuSans-2f" d="M 1625 4666 
L 2156 4666 
L 531 -594 
L 0 -594 
L 1625 4666 
z
" transform="scale(0.015625)"/>
      <path id="DejaVuSans-29" d="M 513 4856 
L 1013 4856 
Q 1481 4119 1714 3412 
Q 1947 2706 1947 2009 
Q 1947 1309 1714 600 
Q 1481 -109 1013 -844 
L 513 -844 
Q 928 -128 1133 580 
Q 1338 1288 1338 2009 
Q 1338 2731 1133 3434 
Q 928 4138 513 4856 
z
" transform="scale(0.015625)"/>
     </defs>
     <use xlink:href="#DejaVuSans-54"/>
     <use xlink:href="#DejaVuSans-61" transform="translate(44.583984 0)"/>
     <use xlink:href="#DejaVuSans-69" transform="translate(105.863281 0)"/>
     <use xlink:href="#DejaVuSans-6c" transform="translate(133.646484 0)"/>
     <use xlink:href="#DejaVuSans-20" transform="translate(161.429688 0)"/>
     <use xlink:href="#DejaVuSans-71" transform="translate(193.216797 0)"/>
     <use xlink:href="#DejaVuSans-75" transform="translate(256.693359 0)"/>
     <use xlink:href="#DejaVuSans-61" transform="translate(320.072266 0)"/>
     <use xlink:href="#DejaVuSans-6e" transform="translate(381.351562 0)"/>
     <use xlink:href="#DejaVuSans-74" transform="translate(444.730469 0)"/>
     <use xlink:href="#DejaVuSans-69" transform="translate(483.939453 0)"/>
     <use xlink:href="#DejaVuSans-6c" transform="translate(511.722656 0)"/>
     <use xlink:href="#DejaVuSans-65" transform="translate(539.505859 0)"/>
     <use xlink:href="#DejaVuSans-20" transform="translate(601.029297 0)"/>
     <use xlink:href="#DejaVuSans-63" transform="translate(632.816406 0)"/>
     <use xlink:href="#DejaVuSans-6f" transform="translate(687.796875 0)"/>
     <use xlink:href="#DejaVuSans-6d" transform="translate(748.978516 0)"/>
     <use xlink:href="#DejaVuSans-70" transform="translate(846.390625 0)"/>
     <use xlink:href="#DejaVuSans-61" transform="translate(909.867188 0)"/>
     <use xlink:href="#DejaVuSans-72" transform="translate(971.146484 0)"/>
     <use xlink:href="#DejaVuSans-69" transform="translate(1012.259766 0)"/>
     <use xlink:href="#DejaVuSans-73" transform="translate(1040.042969 0)"/>
     <use xlink:href="#DejaVuSans-6f" transform="translate(1092.142578 0)"/>
     <use xlink:href="#DejaVuSans-6e" transform="translate(1153.324219 0)"/>
     <use xlink:href="#DejaVuSans-20" transform="translate(1216.703125 0)"/>
     <use xlink:href="#DejaVuSans-28" transform="translate(1248.490234 0)"/>
     <use xlink:href="#DejaVuSans-31" transform="translate(1287.503906 0)"/>
     <use xlink:href="#DejaVuSans-30" transform="translate(1351.126953 0)"/>
     <use xlink:href="#DejaVuSans-73" transform="translate(1414.75 0)"/>
     <use xlink:href="#DejaVuSans-65" transform="translate(1466.849609 0)"/>
     <use xlink:href="#DejaVuSans-65" transform="translate(1528.373047 0)"/>
     <use xlink:href="#DejaVuSans-64" transform="translate(1589.896484 0)"/>
     <use xlink:href="#DejaVuSans-20" transform="translate(1653.373047 0)"/>
     <use xlink:href="#DejaVuSans-6d" transform="translate(1685.160156 0)"/>
     <use xlink:href="#DejaVuSans-65" transform="translate(1782.572266 0)"/>
     <use xlink:href="#DejaVuSans-61" transform="translate(1844.095703 0)"/>
     <use xlink:href="#DejaVuSans-6e" transform="translate(1905.375 0)"/>
     <use xlink:href="#DejaVuSans-20" transform="translate(1968.753906 0)"/>
     <use xlink:href="#DejaVuSans-2b" transform="translate(2000.541016 0)"/>
     <use xlink:href="#DejaVuSans-2f" transform="translate(2084.330078 0)"/>
     <use xlink:href="#DejaVuSans-2d" transform="translate(2118.021484 0)"/>
     <use xlink:href="#DejaVuSans-20" transform="translate(2154.105469 0)"/>
     <use xlink:href="#DejaVuSans-73" transform="translate(2185.892578 0)"/>
     <use xlink:href="#DejaVuSans-74" transform="translate(2237.992188 0)"/>
     <use xlink:href="#DejaVuSans-64" transform="translate(2277.201172 0)"/>
     <use xlink:href="#DejaVuSans-29" transform="translate(2340.677734 0)"/>
    </g>
   </g>
   <g id="legend_1">
    <g id="patch_28">
     <path d="M 52.78125 157.441054 
L 72.78125 157.441054 
L 72.78125 150.441054 
L 52.78125 150.441054 
z
" style="fill: #1f77b4"/>
    </g>
    <g id="text_15">
     <!-- P95 -->
     <g transform="translate(80.78125 157.441054) scale(0.1 -0.1)">
      <defs>
       <path id="DejaVuSans-50" d="M 1259 4147 
L 1259 2394 
L 2053 2394 
Q 2494 2394 2734 2622 
Q 2975 2850 2975 3272 
Q 2975 3691 2734 3919 
Q 2494 4147 2053 4147 
L 1259 4147 
z
M 628 4666 
L 2053 4666 
Q 2838 4666 3239 4311 
Q 3641 3956 3641 3272 
Q 3641 2581 3239 2228 
Q 2838 1875 2053 1875 
L 1259 1875 
L 1259 0 
L 628 0 
L 628 4666 
z
" transform="scale(0.015625)"/>
       <path id="DejaVuSans-39" d="M 703 97 
L 703 672 
Q 941 559 1184 500 
Q 1428 441 1663 441 
Q 2288 441 2617 861 
Q 2947 1281 2994 2138 
Q 2813 1869 2534 1725 
Q 2256 1581 1919 1581 
Q 1219 1581 811 2004 
Q 403 2428 403 3163 
Q 403 3881 828 4315 
Q 1253 4750 1959 4750 
Q 2769 4750 3195 4129 
Q 3622 3509 3622 2328 
Q 3622 1225 3098 567 
Q 2575 -91 1691 -91 
Q 1453 -91 1209 -44 
Q 966 3 703 97 
z
M 1959 2075 
Q 2384 2075 2632 2365 
Q 2881 2656 2881 3163 
Q 2881 3666 2632 3958 
Q 2384 4250 1959 4250 
Q 1534 4250 1286 3958 
Q 1038 3666 1038 3163 
Q 1038 2656 1286 2365 
Q 1534 2075 1959 2075 
z
" transform="scale(0.015625)"/>
      </defs>
      <use xlink:href="#DejaVuSans-50"/>
      <use xlink:href="#DejaVuSans-39" transform="translate(60.302734 0)"/>
      <use xlink:href="#DejaVuSans-35" transform="translate(123.925781 0)"/>
     </g>
    </g>
    <g id="patch_29">
     <path d="M 52.78125 172.119179 
L 72.78125 172.119179 
L 72.78125 165.119179 
L 52.78125 165.119179 
z
" style="fill: #ff7f0e"/>
    </g>
    <g id="text_16">
     <!-- P99 -->
     <g transform="translate(80.78125 172.119179) scale(0.1 -0.1)">
      <use xlink:href="#DejaVuSans-50"/>
      <use xlink:href="#DejaVuSans-39" transform="translate(60.302734 0)"/>
      <use xlink:href="#DejaVuSans-39" transform="translate(123.925781 0)"/>
     </g>
    </g>
    <g id="patch_30">
     <path d="M 52.78125 186.797304 
L 72.78125 186.797304 
L 72.78125 179.797304 
L 52.78125 179.797304 
z
" style="fill: #2ca02c"/>
    </g>
    <g id="text_17">
     <!-- TailGap -->
     <g transform="translate(80.78125 186.797304) scale(0.1 -0.1)">
      <use xlink:href="#DejaVuSans-54"/>
      <use xlink:href="#DejaVuSans-61" transform="translate(44.583984 0)"/>
      <use xlink:href="#DejaVuSans-69" transform="translate(105.863281 0)"/>
      <use xlink:href="#DejaVuSans-6c" transform="translate(133.646484 0)"/>
      <use xlink:href="#DejaVuSans-47" transform="translate(161.429688 0)"/>
      <use xlink:href="#DejaVuSans-61" transform="translate(238.919922 0)"/>
      <use xlink:href="#DejaVuSans-70" transform="translate(300.199219 0)"/>
     </g>
    </g>
   </g>
  </g>
 </g>
 <defs>
  <clipPath id="p97afa18494">
   <rect x="43.78125" y="22.318125" width="733.48" height="294.083357"/>
  </clipPath>
 </defs>
</svg>
