<?xml version="1.0" encoding="utf-8" standalone="no"?>
<!DOCTYPE svg PUBLIC "-//W3C//DTD SVG 1.1//EN"
  "http://www.w3.org/Graphics/SVG/1.1/DTD/svg11.dtd">
<svg xmlns:xlink="http://www.w3.org/1999/xlink" width="404.73pt" height="185.94pt" viewBox="0 0 404.73 185.94" xmlns="http://www.w3.org/2000/svg" version="1.1">
 <metadata>
  <rdf:RDF xmlns:dc="http://purl.org/dc/elements/1.1/" xmlns:cc="http://creativecommons.org/ns#" xmlns:rdf="http://www.w3.org/1999/02/22-rdf-syntax-ns#">
   <cc:Work>
    <dc:type rdf:resource="http://purl.org/dc/dcmitype/StillImage"/>
    <dc:date>2026-06-30T07:17:39.001377</dc:date>
    <dc:format>image/svg+xml</dc:format>
    <dc:creator>
     <cc:Agent>
      <dc:title>Matplotlib v3.10.9, https://matplotlib.org/</dc:title>
     </cc:Agent>
    </dc:creator>
   </cc:Work>
  </rdf:RDF>
 </metadata>
 <defs>
  <style type="text/css">*{stroke-linejoin: round; stroke-linecap: butt}</style>
 </defs>
 <g id="figure_1">
  <g id="patch_1">
   <path d="M 0 185.94 
L 404.73 185.94 
L 404.73 0 
L 0 0 
z
" style="fill: #ffffff"/>
  </g>
  <g id="axes_1">
   <g id="patch_2">
    <path d="M 18.8388 71.70876 
L 90.6534 71.70876 
Q 95.44104 71.70876 95.44104 69.5466 
L 95.44104 33.5106 
Q 95.44104 31.34844 90.6534 31.34844 
L 18.8388 31.34844 
Q 14.05116 31.34844 14.05116 33.5106 
L 14.05116 69.5466 
Q 14.05116 71.70876 18.8388 71.70876 
z
" clip-path="url(#p62833e976b)" style="fill: #eaf3f8; stroke: #4a4a4a; stroke-width: 0.9; stroke-linejoin: miter"/>
   </g>
   <g id="patch_3">
    <path d="M 118.5813 71.70876 
L 190.3959 71.70876 
Q 195.18354 71.70876 195.18354 69.5466 
L 195.18354 33.5106 
Q 195.18354 31.34844 190.3959 31.34844 
L 118.5813 31.34844 
Q 113.79366 31.34844 113.79366 33.5106 
L 113.79366 69.5466 
Q 113.79366 71.70876 118.5813 71.70876 
z
" clip-path="url(#p62833e976b)" style="fill: #fcede7; stroke: #4a4a4a; stroke-width: 0.9; stroke-linejoin: miter"/>
   </g>
   <g id="patch_4">
    <path d="M 218.3238 71.70876 
L 290.1384 71.70876 
Q 294.92604 71.70876 294.92604 69.5466 
L 294.92604 33.5106 
Q 294.92604 31.34844 290.1384 31.34844 
L 218.3238 31.34844 
Q 213.53616 31.34844 213.53616 33.5106 
L 213.53616 69.5466 
Q 213.53616 71.70876 218.3238 71.70876 
z
" clip-path="url(#p62833e976b)" style="fill: #fff4d6; stroke: #4a4a4a; stroke-width: 0.9; stroke-linejoin: miter"/>
   </g>
   <g id="patch_5">
    <path d="M 318.0663 71.70876 
L 389.8809 71.70876 
Q 394.66854 71.70876 394.66854 69.5466 
L 394.66854 33.5106 
Q 394.66854 31.34844 389.8809 31.34844 
L 318.0663 31.34844 
Q 313.27866 31.34844 313.27866 33.5106 
L 313.27866 69.5466 
Q 313.27866 71.70876 318.0663 71.70876 
z
" clip-path="url(#p62833e976b)" style="fill: #e8f3ec; stroke: #4a4a4a; stroke-width: 0.9; stroke-linejoin: miter"/>
   </g>
   <g id="patch_6">
    <path d="M 118.5813 149.18616 
L 190.3959 149.18616 
Q 195.18354 149.18616 195.18354 147.024 
L 195.18354 110.988 
Q 195.18354 108.82584 190.3959 108.82584 
L 118.5813 108.82584 
Q 113.79366 108.82584 113.79366 110.988 
L 113.79366 147.024 
Q 113.79366 149.18616 118.5813 149.18616 
z
" clip-path="url(#p62833e976b)" style="fill: #efeaf7; stroke: #4a4a4a; stroke-width: 0.9; stroke-linejoin: miter"/>
   </g>
   <g id="patch_7">
    <path d="M 218.3238 149.18616 
L 290.1384 149.18616 
Q 294.92604 149.18616 294.92604 147.024 
L 294.92604 110.988 
Q 294.92604 108.82584 290.1384 108.82584 
L 218.3238 108.82584 
Q 213.53616 108.82584 213.53616 110.988 
L 213.53616 147.024 
Q 213.53616 149.18616 218.3238 149.18616 
z
" clip-path="url(#p62833e976b)" style="fill: #e8f3ec; stroke: #4a4a4a; stroke-width: 0.9; stroke-linejoin: miter"/>
   </g>
   <g id="patch_8">
    <path d="M 318.0663 149.18616 
L 389.8809 149.18616 
Q 394.66854 149.18616 394.66854 147.024 
L 394.66854 110.988 
Q 394.66854 108.82584 389.8809 108.82584 
L 318.0663 108.82584 
Q 313.27866 108.82584 313.27866 110.988 
L 313.27866 147.024 
Q 313.27866 149.18616 318.0663 149.18616 
z
" clip-path="url(#p62833e976b)" style="fill: #fcede7; stroke: #4a4a4a; stroke-width: 0.9; stroke-linejoin: miter"/>
   </g>
   <g id="text_1">
    <text style="font-size: 8.5px; font-family: 'Arial', 'DejaVu Sans', sans-serif" transform="translate(23.964811 46.658486)">Trajectory graph</text>
    <text style="font-size: 8.5px; font-family: 'Arial', 'DejaVu Sans', sans-serif" transform="translate(32.296803 55.748439)">2020 / 2021</text>
   </g>
   <g id="text_2">
    <text style="font-size: 7.5px; font-family: 'Arial', 'DejaVu Sans', sans-serif; text-anchor: middle; fill: #555555" x="54.7461" y="81.221259" transform="rotate(-0 54.7461 81.221259)">Data</text>
   </g>
   <g id="text_3">
    <text style="font-size: 8.5px; font-family: 'Arial', 'DejaVu Sans', sans-serif" transform="translate(124.023405 46.658486)">Stable-Tail GNN</text>
    <text style="font-size: 8.5px; font-family: 'Arial', 'DejaVu Sans', sans-serif" transform="translate(120.709069 55.64883)">node-risk learning</text>
   </g>
   <g id="text_4">
    <text style="font-size: 7.5px; font-family: 'Arial', 'DejaVu Sans', sans-serif; text-anchor: middle; fill: #555555" x="154.4886" y="81.221259" transform="rotate(-0 154.4886 81.221259)">Model</text>
   </g>
   <g id="text_5">
    <!-- Edge risk $R_{ij}$ -->
    <g transform="translate(230.6011 46.233752)">
     <text>
      <tspan x="0" y="-0.4375" style="font-size: 8.5px; font-family: 'Arial'">E</tspan>
      <tspan x="5.669434" y="-0.4375" style="font-size: 8.5px; font-family: 'Arial'">d</tspan>
      <tspan x="10.396729" y="-0.4375" style="font-size: 8.5px; font-family: 'Arial'">g</tspan>
      <tspan x="15.124023" y="-0.4375" style="font-size: 8.5px; font-family: 'Arial'">e</tspan>
      <tspan x="19.851318" y="-0.4375" style="font-size: 8.5px; font-family: 'Arial'"> </tspan>
      <tspan x="22.212891" y="-0.4375" style="font-size: 8.5px; font-family: 'Arial'">r</tspan>
      <tspan x="25.043457" y="-0.4375" style="font-size: 8.5px; font-family: 'Arial'">i</tspan>
      <tspan x="26.931885" y="-0.4375" style="font-size: 8.5px; font-family: 'Arial'">s</tspan>
      <tspan x="31.181885" y="-0.4375" style="font-size: 8.5px; font-family: 'Arial'">k</tspan>
      <tspan x="35.431885" y="-0.4375" style="font-size: 8.5px; font-family: 'Arial'"> </tspan>
      <tspan x="37.793457" y="-0.4375" style="font-style: oblique; font-size: 8.5px; font-family: 'DejaVu Sans'">R</tspan>
      <tspan x="43.699463" y="1.039062" style="font-style: oblique; font-size: 5.95px; font-family: 'DejaVu Sans'">i</tspan>
      <tspan x="45.352563" y="1.039062" style="font-style: oblique; font-size: 5.95px; font-family: 'DejaVu Sans'">j</tspan>
     </text>
    </g>
    <text style="font-size: 8.5px; font-family: 'Arial', 'DejaVu Sans', sans-serif" transform="translate(227.301373 56.294033)">exposure floor</text>
   </g>
   <g id="text_6">
    <text style="font-size: 7.5px; font-family: 'Arial', 'DejaVu Sans', sans-serif; text-anchor: middle; fill: #555555" x="254.2311" y="81.221259" transform="rotate(-0 254.2311 81.221259)">Risk matrix</text>
   </g>
   <g id="text_7">
    <text style="font-size: 8.5px; font-family: 'Arial', 'DejaVu Sans', sans-serif" transform="translate(336.021998 46.762744)">OD paths</text>
    <text style="font-size: 8.5px; font-family: 'Arial', 'DejaVu Sans', sans-serif" transform="translate(323.813873 55.753088)">CVaR validation</text>
   </g>
   <g id="text_8">
    <text style="font-size: 7.5px; font-family: 'Arial', 'DejaVu Sans', sans-serif; text-anchor: middle; fill: #555555" x="353.9736" y="81.221259" transform="rotate(-0 353.9736 81.221259)">Path level</text>
   </g>
   <g id="text_9">
    <text style="font-size: 8.5px; font-family: 'Arial', 'DejaVu Sans', sans-serif" transform="translate(127.566178 124.187683)">PyVRP-CVRP</text>
    <text style="font-size: 8.5px; font-family: 'Arial', 'DejaVu Sans', sans-serif" transform="translate(126.377506 133.277636)">fixed instances</text>
   </g>
   <g id="text_10">
    <text style="font-size: 7.5px; font-family: 'Arial', 'DejaVu Sans', sans-serif; text-anchor: middle; fill: #555555" x="154.4886" y="158.698659" transform="rotate(-0 154.4886 158.698659)">Route level</text>
   </g>
   <g id="text_11">
    <text style="font-size: 8.5px; font-family: 'Arial', 'DejaVu Sans', sans-serif" transform="translate(222.812975 124.185691)">Posterior burden</text>
    <text style="font-size: 8.5px; font-family: 'Arial', 'DejaVu Sans', sans-serif" transform="translate(228.716491 133.176035)">concentration</text>
   </g>
   <g id="text_12">
    <text style="font-size: 7.5px; font-family: 'Arial', 'DejaVu Sans', sans-serif; text-anchor: middle; fill: #555555" x="254.2311" y="158.698659" transform="rotate(-0 254.2311 158.698659)">Fairness</text>
   </g>
   <g id="text_13">
    <text style="font-size: 8.5px; font-family: 'Arial', 'DejaVu Sans', sans-serif" transform="translate(320.915241 124.185691)">Cost-risk-fairness</text>
    <text style="font-size: 8.5px; font-family: 'Arial', 'DejaVu Sans', sans-serif" transform="translate(338.222038 133.176035)">trade-off</text>
   </g>
   <g id="text_14">
    <text style="font-size: 7.5px; font-family: 'Arial', 'DejaVu Sans', sans-serif; text-anchor: middle; fill: #555555" x="353.9736" y="158.698659" transform="rotate(-0 353.9736 158.698659)">Decision</text>
   </g>
   <g id="patch_9">
    <path d="M 92.654581 51.5286 
Q 104.61942 51.5286 115.354422 51.5286 
" style="fill: none; stroke: #4a4a4a; stroke-width: 1.1; stroke-linecap: round"/>
    <path d="M 111.754422 49.7286 
L 115.354422 51.5286 
L 111.754422 53.3286 
z
" style="fill: #4a4a4a; stroke: #4a4a4a; stroke-width: 1.1; stroke-linecap: round"/>
   </g>
   <g id="patch_10">
    <path d="M 192.397081 51.5286 
Q 204.36192 51.5286 215.096922 51.5286 
" style="fill: none; stroke: #4a4a4a; stroke-width: 1.1; stroke-linecap: round"/>
    <path d="M 211.496922 49.7286 
L 215.096922 51.5286 
L 211.496922 53.3286 
z
" style="fill: #4a4a4a; stroke: #4a4a4a; stroke-width: 1.1; stroke-linecap: round"/>
   </g>
   <g id="patch_11">
    <path d="M 292.139581 51.5286 
Q 304.10442 51.5286 314.839422 51.5286 
" style="fill: none; stroke: #4a4a4a; stroke-width: 1.1; stroke-linecap: round"/>
    <path d="M 311.239422 49.7286 
L 314.839422 51.5286 
L 311.239422 53.3286 
z
" style="fill: #4a4a4a; stroke: #4a4a4a; stroke-width: 1.1; stroke-linecap: round"/>
   </g>
   <g id="patch_12">
    <path d="M 353.9736 73.349911 
Q 353.9736 89.367974 353.9736 104.1562 
" style="fill: none; stroke: #4a4a4a; stroke-width: 1.1; stroke-linecap: round"/>
    <path d="M 355.7736 100.5562 
L 353.9736 104.1562 
L 352.1736 100.5562 
z
" style="fill: #4a4a4a; stroke: #4a4a4a; stroke-width: 1.1; stroke-linecap: round"/>
   </g>
   <g id="patch_13">
    <path d="M 192.397081 129.006 
Q 204.36192 129.006 215.096922 129.006 
" style="fill: none; stroke: #4a4a4a; stroke-width: 1.1; stroke-linecap: round"/>
    <path d="M 211.496922 127.206 
L 215.096922 129.006 
L 211.496922 130.806 
z
" style="fill: #4a4a4a; stroke: #4a4a4a; stroke-width: 1.1; stroke-linecap: round"/>
   </g>
   <g id="patch_14">
    <path d="M 292.139581 129.006 
Q 304.10442 129.006 314.839422 129.006 
" style="fill: none; stroke: #4a4a4a; stroke-width: 1.1; stroke-linecap: round"/>
    <path d="M 311.239422 127.206 
L 314.839422 129.006 
L 311.239422 130.806 
z
" style="fill: #4a4a4a; stroke: #4a4a4a; stroke-width: 1.1; stroke-linecap: round"/>
   </g>
   <g id="patch_15">
    <path d="M 252.239663 71.541748 
Q 199.841432 76.865457 157.161062 105.575941 
" style="fill: none; stroke: #4a4a4a; stroke-width: 1.1; stroke-linecap: round"/>
    <path d="M 161.152794 105.060119 
L 157.161062 105.575941 
L 159.143443 102.073062 
z
" style="fill: #4a4a4a; stroke: #4a4a4a; stroke-width: 1.1; stroke-linecap: round"/>
   </g>
   <g id="text_15">
    <text style="font-size: 8px; font-family: 'Arial', 'DejaVu Sans', sans-serif; text-anchor: start; fill: #444444" x="22.8285" y="172.2492" transform="rotate(-0 22.8285 172.2492)">Formal protocol: Split B | model seeds 0-9 | solver seeds 0-9 | common evaluation</text>
   </g>
  </g>
 </g>
 <defs>
  <clipPath id="p62833e976b">
   <rect x="2.88" y="2.88" width="398.97" height="180.18"/>
  </clipPath>
 </defs>
</svg>
