<?xml version="1.0" encoding="utf-8" standalone="no"?>
<!DOCTYPE svg PUBLIC "-//W3C//DTD SVG 1.1//EN"
  "http://www.w3.org/Graphics/SVG/1.1/DTD/svg11.dtd">
<svg xmlns:xlink="http://www.w3.org/1999/xlink" width="392.24875pt" height="291.034906pt" viewBox="0 0 392.24875 291.034906" xmlns="http://www.w3.org/2000/svg" version="1.1">
 <metadata>
  <rdf:RDF xmlns:dc="http://purl.org/dc/elements/1.1/" xmlns:cc="http://creativecommons.org/ns#" xmlns:rdf="http://www.w3.org/1999/02/22-rdf-syntax-ns#">
   <cc:Work>
    <dc:type rdf:resource="http://purl.org/dc/dcmitype/StillImage"/>
    <dc:date>2026-06-30T07:17:56.244059</dc:date>
    <dc:format>image/svg+xml</dc:format>
    <dc:creator>
     <cc:Agent>
      <dc:title>Matplotlib v3.10.9, https://matplotlib.org/</dc:title>
     </cc:Agent>
    </dc:creator>
   </cc:Work>
  </rdf:RDF>
 </metadata>
 <defs>
  <style type="text/css">*{stroke-linejoin: round; stroke-linecap: butt}</style>
 </defs>
 <g id="figure_1">
  <g id="patch_1">
   <path d="M 0 291.034906 
L 392.24875 291.034906 
L 392.24875 0 
L 0 0 
z
" style="fill: #ffffff"/>
  </g>
  <g id="axes_1">
   <g id="patch_2">
    <path d="M 32.24875 260.466234 
L 389.36875 260.466234 
L 389.36875 16.530234 
L 32.24875 16.530234 
z
" style="fill: #ffffff"/>
   </g>
   <g id="matplotlib.axis_1">
    <g id="xtick_1">
     <g id="line2d_1">
      <path d="M 58.63852 260.466234 
L 58.63852 16.530234 
" clip-path="url(#paee3e0f9f6)" style="fill: none; stroke: #e8e8e8; stroke-width: 0.7; stroke-linecap: square"/>
     </g>
     <g id="line2d_2">
      <defs>
       <path id="m877fee2e11" d="M 0 0 
L 0 3.5 
" style="stroke: #000000; stroke-width: 0.8"/>
      </defs>
      <g>
       <use xlink:href="#m877fee2e11" x="58.63852" y="260.466234" style="stroke: #000000; stroke-width: 0.8"/>
      </g>
     </g>
     <g id="text_1">
      <text style="font-size: 8.5px; font-family: 'Arial', 'DejaVu Sans', sans-serif; text-anchor: middle" x="58.63852" y="273.550375" transform="rotate(-0 58.63852 273.550375)">9.5</text>
     </g>
    </g>
    <g id="xtick_2">
     <g id="line2d_3">
      <path d="M 129.104068 260.466234 
L 129.104068 16.530234 
" clip-path="url(#paee3e0f9f6)" style="fill: none; stroke: #e8e8e8; stroke-width: 0.7; stroke-linecap: square"/>
     </g>
     <g id="line2d_4">
      <g>
       <use xlink:href="#m877fee2e11" x="129.104068" y="260.466234" style="stroke: #000000; stroke-width: 0.8"/>
      </g>
     </g>
     <g id="text_2">
      <text style="font-size: 8.5px; font-family: 'Arial', 'DejaVu Sans', sans-serif; text-anchor: middle" x="129.104068" y="273.550375" transform="rotate(-0 129.104068 273.550375)">10.0</text>
     </g>
    </g>
    <g id="xtick_3">
     <g id="line2d_5">
      <path d="M 199.569617 260.466234 
L 199.569617 16.530234 
" clip-path="url(#paee3e0f9f6)" style="fill: none; stroke: #e8e8e8; stroke-width: 0.7; stroke-linecap: square"/>
     </g>
     <g id="line2d_6">
      <g>
       <use xlink:href="#m877fee2e11" x="199.569617" y="260.466234" style="stroke: #000000; stroke-width: 0.8"/>
      </g>
     </g>
     <g id="text_3">
      <text style="font-size: 8.5px; font-family: 'Arial', 'DejaVu Sans', sans-serif; text-anchor: middle" x="199.569617" y="273.550375" transform="rotate(-0 199.569617 273.550375)">10.5</text>
     </g>
    </g>
    <g id="xtick_4">
     <g id="line2d_7">
      <path d="M 270.035165 260.466234 
L 270.035165 16.530234 
" clip-path="url(#paee3e0f9f6)" style="fill: none; stroke: #e8e8e8; stroke-width: 0.7; stroke-linecap: square"/>
     </g>
     <g id="line2d_8">
      <g>
       <use xlink:href="#m877fee2e11" x="270.035165" y="260.466234" style="stroke: #000000; stroke-width: 0.8"/>
      </g>
     </g>
     <g id="text_4">
      <text style="font-size: 8.5px; font-family: 'Arial', 'DejaVu Sans', sans-serif; text-anchor: middle" x="270.035165" y="273.550375" transform="rotate(-0 270.035165 273.550375)">11.0</text>
     </g>
    </g>
    <g id="xtick_5">
     <g id="line2d_9">
      <path d="M 340.500714 260.466234 
L 340.500714 16.530234 
" clip-path="url(#paee3e0f9f6)" style="fill: none; stroke: #e8e8e8; stroke-width: 0.7; stroke-linecap: square"/>
     </g>
     <g id="line2d_10">
      <g>
       <use xlink:href="#m877fee2e11" x="340.500714" y="260.466234" style="stroke: #000000; stroke-width: 0.8"/>
      </g>
     </g>
     <g id="text_5">
      <text style="font-size: 8.5px; font-family: 'Arial', 'DejaVu Sans', sans-serif; text-anchor: middle" x="340.500714" y="273.550375" transform="rotate(-0 340.500714 273.550375)">11.5</text>
     </g>
    </g>
    <g id="text_6">
     <text style="font-size: 9.5px; font-family: 'Arial', 'DejaVu Sans', sans-serif; text-anchor: middle" x="210.80875" y="286.155453" transform="rotate(-0 210.80875 286.155453)">Hop increase (%)</text>
    </g>
   </g>
   <g id="matplotlib.axis_2">
    <g id="ytick_1">
     <g id="line2d_11">
      <path d="M 32.24875 241.362572 
L 389.36875 241.362572 
" clip-path="url(#paee3e0f9f6)" style="fill: none; stroke: #e8e8e8; stroke-width: 0.7; stroke-linecap: square"/>
     </g>
     <g id="line2d_12">
      <defs>
       <path id="m68a2f088ff" d="M 0 0 
L -3.5 0 
" style="stroke: #000000; stroke-width: 0.8"/>
      </defs>
      <g>
       <use xlink:href="#m68a2f088ff" x="32.24875" y="241.362572" style="stroke: #000000; stroke-width: 0.8"/>
      </g>
     </g>
     <g id="text_7">
      <text style="font-size: 8.5px; font-family: 'Arial', 'DejaVu Sans', sans-serif; text-anchor: end" x="25.24875" y="244.404642" transform="rotate(-0 25.24875 244.404642)">80</text>
     </g>
    </g>
    <g id="ytick_2">
     <g id="line2d_13">
      <path d="M 32.24875 201.939311 
L 389.36875 201.939311 
" clip-path="url(#paee3e0f9f6)" style="fill: none; stroke: #e8e8e8; stroke-width: 0.7; stroke-linecap: square"/>
     </g>
     <g id="line2d_14">
      <g>
       <use xlink:href="#m68a2f088ff" x="32.24875" y="201.939311" style="stroke: #000000; stroke-width: 0.8"/>
      </g>
     </g>
     <g id="text_8">
      <text style="font-size: 8.5px; font-family: 'Arial', 'DejaVu Sans', sans-serif; text-anchor: end" x="25.24875" y="204.981381" transform="rotate(-0 25.24875 204.981381)">81</text>
     </g>
    </g>
    <g id="ytick_3">
     <g id="line2d_15">
      <path d="M 32.24875 162.516049 
L 389.36875 162.516049 
" clip-path="url(#paee3e0f9f6)" style="fill: none; stroke: #e8e8e8; stroke-width: 0.7; stroke-linecap: square"/>
     </g>
     <g id="line2d_16">
      <g>
       <use xlink:href="#m68a2f088ff" x="32.24875" y="162.516049" style="stroke: #000000; stroke-width: 0.8"/>
      </g>
     </g>
     <g id="text_9">
      <text style="font-size: 8.5px; font-family: 'Arial', 'DejaVu Sans', sans-serif; text-anchor: end" x="25.24875" y="165.55812" transform="rotate(-0 25.24875 165.55812)">82</text>
     </g>
    </g>
    <g id="ytick_4">
     <g id="line2d_17">
      <path d="M 32.24875 123.092788 
L 389.36875 123.092788 
" clip-path="url(#paee3e0f9f6)" style="fill: none; stroke: #e8e8e8; stroke-width: 0.7; stroke-linecap: square"/>
     </g>
     <g id="line2d_18">
      <g>
       <use xlink:href="#m68a2f088ff" x="32.24875" y="123.092788" style="stroke: #000000; stroke-width: 0.8"/>
      </g>
     </g>
     <g id="text_10">
      <text style="font-size: 8.5px; font-family: 'Arial', 'DejaVu Sans', sans-serif; text-anchor: end" x="25.24875" y="126.134858" transform="rotate(-0 25.24875 126.134858)">83</text>
     </g>
    </g>
    <g id="ytick_5">
     <g id="line2d_19">
      <path d="M 32.24875 83.669527 
L 389.36875 83.669527 
" clip-path="url(#paee3e0f9f6)" style="fill: none; stroke: #e8e8e8; stroke-width: 0.7; stroke-linecap: square"/>
     </g>
     <g id="line2d_20">
      <g>
       <use xlink:href="#m68a2f088ff" x="32.24875" y="83.669527" style="stroke: #000000; stroke-width: 0.8"/>
      </g>
     </g>
     <g id="text_11">
      <text style="font-size: 8.5px; font-family: 'Arial', 'DejaVu Sans', sans-serif; text-anchor: end" x="25.24875" y="86.711597" transform="rotate(-0 25.24875 86.711597)">84</text>
     </g>
    </g>
    <g id="ytick_6">
     <g id="line2d_21">
      <path d="M 32.24875 44.246265 
L 389.36875 44.246265 
" clip-path="url(#paee3e0f9f6)" style="fill: none; stroke: #e8e8e8; stroke-width: 0.7; stroke-linecap: square"/>
     </g>
     <g id="line2d_22">
      <g>
       <use xlink:href="#m68a2f088ff" x="32.24875" y="44.246265" style="stroke: #000000; stroke-width: 0.8"/>
      </g>
     </g>
     <g id="text_12">
      <text style="font-size: 8.5px; font-family: 'Arial', 'DejaVu Sans', sans-serif; text-anchor: end" x="25.24875" y="47.288336" transform="rotate(-0 25.24875 47.288336)">85</text>
     </g>
    </g>
    <g id="text_13">
     <text style="font-size: 9.5px; font-family: 'Arial', 'DejaVu Sans', sans-serif; text-anchor: middle" x="9.795703" y="138.498234" transform="rotate(-90 9.795703 138.498234)">Total-risk reduction (%)</text>
    </g>
   </g>
   <g id="LineCollection_1">
    <path d="M 48.751815 64.200971 
L 247.46037 64.200971 
" clip-path="url(#paee3e0f9f6)" style="fill: none; stroke: #0072b2"/>
   </g>
   <g id="LineCollection_2">
    <path d="M 148.106093 79.714807 
L 148.106093 48.687134 
" clip-path="url(#paee3e0f9f6)" style="fill: none; stroke: #0072b2"/>
   </g>
   <g id="line2d_23">
    <defs>
     <path id="m1e3aa85318" d="M 0 2.5 
L 0 -2.5 
" style="stroke: #0072b2"/>
    </defs>
    <g clip-path="url(#paee3e0f9f6)">
     <use xlink:href="#m1e3aa85318" x="48.751815" y="64.200971" style="fill: #0072b2; stroke: #0072b2"/>
    </g>
   </g>
   <g id="line2d_24">
    <g clip-path="url(#paee3e0f9f6)">
     <use xlink:href="#m1e3aa85318" x="247.46037" y="64.200971" style="fill: #0072b2; stroke: #0072b2"/>
    </g>
   </g>
   <g id="line2d_25">
    <defs>
     <path id="mdbf039f8bd" d="M 2.5 0 
L -2.5 -0 
" style="stroke: #0072b2"/>
    </defs>
    <g clip-path="url(#paee3e0f9f6)">
     <use xlink:href="#mdbf039f8bd" x="148.106093" y="79.714807" style="fill: #0072b2; stroke: #0072b2"/>
    </g>
   </g>
   <g id="line2d_26">
    <g clip-path="url(#paee3e0f9f6)">
     <use xlink:href="#mdbf039f8bd" x="148.106093" y="48.687134" style="fill: #0072b2; stroke: #0072b2"/>
    </g>
   </g>
   <g id="LineCollection_3">
    <path d="M 139.032532 207.358149 
L 336.07762 207.358149 
" clip-path="url(#paee3e0f9f6)" style="fill: none; stroke: #e69f00"/>
   </g>
   <g id="LineCollection_4">
    <path d="M 237.555076 249.378234 
L 237.555076 165.338063 
" clip-path="url(#paee3e0f9f6)" style="fill: none; stroke: #e69f00"/>
   </g>
   <g id="line2d_27">
    <defs>
     <path id="m1740dc3edd" d="M 0 2.5 
L 0 -2.5 
" style="stroke: #e69f00"/>
    </defs>
    <g clip-path="url(#paee3e0f9f6)">
     <use xlink:href="#m1740dc3edd" x="139.032532" y="207.358149" style="fill: #e69f00; stroke: #e69f00"/>
    </g>
   </g>
   <g id="line2d_28">
    <g clip-path="url(#paee3e0f9f6)">
     <use xlink:href="#m1740dc3edd" x="336.07762" y="207.358149" style="fill: #e69f00; stroke: #e69f00"/>
    </g>
   </g>
   <g id="line2d_29">
    <defs>
     <path id="m487736b2a9" d="M 2.5 0 
L -2.5 -0 
" style="stroke: #e69f00"/>
    </defs>
    <g clip-path="url(#paee3e0f9f6)">
     <use xlink:href="#m487736b2a9" x="237.555076" y="249.378234" style="fill: #e69f00; stroke: #e69f00"/>
    </g>
   </g>
   <g id="line2d_30">
    <g clip-path="url(#paee3e0f9f6)">
     <use xlink:href="#m487736b2a9" x="237.555076" y="165.338063" style="fill: #e69f00; stroke: #e69f00"/>
    </g>
   </g>
   <g id="LineCollection_5">
    <path d="M 48.481477 72.622714 
L 203.545052 72.622714 
" clip-path="url(#paee3e0f9f6)" style="fill: none; stroke: #009e73"/>
   </g>
   <g id="LineCollection_6">
    <path d="M 126.013265 89.932226 
L 126.013265 55.313201 
" clip-path="url(#paee3e0f9f6)" style="fill: none; stroke: #009e73"/>
   </g>
   <g id="line2d_31">
    <defs>
     <path id="m4622ec74a5" d="M 0 2.5 
L 0 -2.5 
" style="stroke: #009e73"/>
    </defs>
    <g clip-path="url(#paee3e0f9f6)">
     <use xlink:href="#m4622ec74a5" x="48.481477" y="72.622714" style="fill: #009e73; stroke: #009e73"/>
    </g>
   </g>
   <g id="line2d_32">
    <g clip-path="url(#paee3e0f9f6)">
     <use xlink:href="#m4622ec74a5" x="203.545052" y="72.622714" style="fill: #009e73; stroke: #009e73"/>
    </g>
   </g>
   <g id="line2d_33">
    <defs>
     <path id="m932163b77c" d="M 2.5 0 
L -2.5 -0 
" style="stroke: #009e73"/>
    </defs>
    <g clip-path="url(#paee3e0f9f6)">
     <use xlink:href="#m932163b77c" x="126.013265" y="89.932226" style="fill: #009e73; stroke: #009e73"/>
    </g>
   </g>
   <g id="line2d_34">
    <g clip-path="url(#paee3e0f9f6)">
     <use xlink:href="#m932163b77c" x="126.013265" y="55.313201" style="fill: #009e73; stroke: #009e73"/>
    </g>
   </g>
   <g id="LineCollection_7">
    <path d="M 109.297416 193.891393 
L 373.136023 193.891393 
" clip-path="url(#paee3e0f9f6)" style="fill: none; stroke: #6f4c9b"/>
   </g>
   <g id="LineCollection_8">
    <path d="M 241.216719 221.863454 
L 241.216719 165.919331 
" clip-path="url(#paee3e0f9f6)" style="fill: none; stroke: #6f4c9b"/>
   </g>
   <g id="line2d_35">
    <defs>
     <path id="m6f892895e7" d="M 0 2.5 
L 0 -2.5 
" style="stroke: #6f4c9b"/>
    </defs>
    <g clip-path="url(#paee3e0f9f6)">
     <use xlink:href="#m6f892895e7" x="109.297416" y="193.891393" style="fill: #6f4c9b; stroke: #6f4c9b"/>
    </g>
   </g>
   <g id="line2d_36">
    <g clip-path="url(#paee3e0f9f6)">
     <use xlink:href="#m6f892895e7" x="373.136023" y="193.891393" style="fill: #6f4c9b; stroke: #6f4c9b"/>
    </g>
   </g>
   <g id="line2d_37">
    <defs>
     <path id="m32d18544be" d="M 2.5 0 
L -2.5 -0 
" style="stroke: #6f4c9b"/>
    </defs>
    <g clip-path="url(#paee3e0f9f6)">
     <use xlink:href="#m32d18544be" x="241.216719" y="221.863454" style="fill: #6f4c9b; stroke: #6f4c9b"/>
    </g>
   </g>
   <g id="line2d_38">
    <g clip-path="url(#paee3e0f9f6)">
     <use xlink:href="#m32d18544be" x="241.216719" y="165.919331" style="fill: #6f4c9b; stroke: #6f4c9b"/>
    </g>
   </g>
   <g id="LineCollection_9">
    <path d="M 58.961306 43.740477 
L 262.966985 43.740477 
" clip-path="url(#paee3e0f9f6)" style="fill: none; stroke: #d55e00"/>
   </g>
   <g id="LineCollection_10">
    <path d="M 160.964145 59.862719 
L 160.964145 27.618234 
" clip-path="url(#paee3e0f9f6)" style="fill: none; stroke: #d55e00"/>
   </g>
   <g id="line2d_39">
    <defs>
     <path id="m57d0dc264d" d="M 0 2.5 
L 0 -2.5 
" style="stroke: #d55e00"/>
    </defs>
    <g clip-path="url(#paee3e0f9f6)">
     <use xlink:href="#m57d0dc264d" x="58.961306" y="43.740477" style="fill: #d55e00; stroke: #d55e00"/>
    </g>
   </g>
   <g id="line2d_40">
    <g clip-path="url(#paee3e0f9f6)">
     <use xlink:href="#m57d0dc264d" x="262.966985" y="43.740477" style="fill: #d55e00; stroke: #d55e00"/>
    </g>
   </g>
   <g id="line2d_41">
    <defs>
     <path id="m162752e33f" d="M 2.5 0 
L -2.5 -0 
" style="stroke: #d55e00"/>
    </defs>
    <g clip-path="url(#paee3e0f9f6)">
     <use xlink:href="#m162752e33f" x="160.964145" y="59.862719" style="fill: #d55e00; stroke: #d55e00"/>
    </g>
   </g>
   <g id="line2d_42">
    <g clip-path="url(#paee3e0f9f6)">
     <use xlink:href="#m162752e33f" x="160.964145" y="27.618234" style="fill: #d55e00; stroke: #d55e00"/>
    </g>
   </g>
   <g id="LineCollection_11">
    <path d="M 53.643907 92.288319 
L 290.642588 92.288319 
" clip-path="url(#paee3e0f9f6)" style="fill: none; stroke: #56b4e9"/>
   </g>
   <g id="LineCollection_12">
    <path d="M 172.143248 107.606289 
L 172.143248 76.970349 
" clip-path="url(#paee3e0f9f6)" style="fill: none; stroke: #56b4e9"/>
   </g>
   <g id="line2d_43">
    <defs>
     <path id="m8be2144e09" d="M 0 2.5 
L 0 -2.5 
" style="stroke: #56b4e9"/>
    </defs>
    <g clip-path="url(#paee3e0f9f6)">
     <use xlink:href="#m8be2144e09" x="53.643907" y="92.288319" style="fill: #56b4e9; stroke: #56b4e9"/>
    </g>
   </g>
   <g id="line2d_44">
    <g clip-path="url(#paee3e0f9f6)">
     <use xlink:href="#m8be2144e09" x="290.642588" y="92.288319" style="fill: #56b4e9; stroke: #56b4e9"/>
    </g>
   </g>
   <g id="line2d_45">
    <defs>
     <path id="m140eef958d" d="M 2.5 0 
L -2.5 -0 
" style="stroke: #56b4e9"/>
    </defs>
    <g clip-path="url(#paee3e0f9f6)">
     <use xlink:href="#m140eef958d" x="172.143248" y="107.606289" style="fill: #56b4e9; stroke: #56b4e9"/>
    </g>
   </g>
   <g id="line2d_46">
    <g clip-path="url(#paee3e0f9f6)">
     <use xlink:href="#m140eef958d" x="172.143248" y="76.970349" style="fill: #56b4e9; stroke: #56b4e9"/>
    </g>
   </g>
   <g id="LineCollection_13">
    <path d="M 97.05126 128.327586 
L 294.631485 128.327586 
" clip-path="url(#paee3e0f9f6)" style="fill: none; stroke: #777777"/>
   </g>
   <g id="LineCollection_14">
    <path d="M 195.841372 151.194027 
L 195.841372 105.461145 
" clip-path="url(#paee3e0f9f6)" style="fill: none; stroke: #777777"/>
   </g>
   <g id="line2d_47">
    <defs>
     <path id="m445428433d" d="M 0 2.5 
L 0 -2.5 
" style="stroke: #777777"/>
    </defs>
    <g clip-path="url(#paee3e0f9f6)">
     <use xlink:href="#m445428433d" x="97.05126" y="128.327586" style="fill: #777777; stroke: #777777"/>
    </g>
   </g>
   <g id="line2d_48">
    <g clip-path="url(#paee3e0f9f6)">
     <use xlink:href="#m445428433d" x="294.631485" y="128.327586" style="fill: #777777; stroke: #777777"/>
    </g>
   </g>
   <g id="line2d_49">
    <defs>
     <path id="md644bccc36" d="M 2.5 0 
L -2.5 -0 
" style="stroke: #777777"/>
    </defs>
    <g clip-path="url(#paee3e0f9f6)">
     <use xlink:href="#md644bccc36" x="195.841372" y="151.194027" style="fill: #777777; stroke: #777777"/>
    </g>
   </g>
   <g id="line2d_50">
    <g clip-path="url(#paee3e0f9f6)">
     <use xlink:href="#md644bccc36" x="195.841372" y="105.461145" style="fill: #777777; stroke: #777777"/>
    </g>
   </g>
   <g id="line2d_51">
    <defs>
     <path id="m1399f4565f" d="M 0 2.5 
C 0.663008 2.5 1.29895 2.236584 1.767767 1.767767 
C 2.236584 1.29895 2.5 0.663008 2.5 0 
C 2.5 -0.663008 2.236584 -1.29895 1.767767 -1.767767 
C 1.29895 -2.236584 0.663008 -2.5 0 -2.5 
C -0.663008 -2.5 -1.29895 -2.236584 -1.767767 -1.767767 
C -2.236584 -1.29895 -2.5 -0.663008 -2.5 0 
C -2.5 0.663008 -2.236584 1.29895 -1.767767 1.767767 
C -1.29895 2.236584 -0.663008 2.5 0 2.5 
z
" style="stroke: #0072b2"/>
    </defs>
    <g clip-path="url(#paee3e0f9f6)">
     <use xlink:href="#m1399f4565f" x="148.106093" y="64.200971" style="fill: #0072b2; stroke: #0072b2"/>
    </g>
   </g>
   <g id="line2d_52">
    <defs>
     <path id="mcb902d1f05" d="M 0 2.5 
C 0.663008 2.5 1.29895 2.236584 1.767767 1.767767 
C 2.236584 1.29895 2.5 0.663008 2.5 0 
C 2.5 -0.663008 2.236584 -1.29895 1.767767 -1.767767 
C 1.29895 -2.236584 0.663008 -2.5 0 -2.5 
C -0.663008 -2.5 -1.29895 -2.236584 -1.767767 -1.767767 
C -2.236584 -1.29895 -2.5 -0.663008 -2.5 0 
C -2.5 0.663008 -2.236584 1.29895 -1.767767 1.767767 
C -1.29895 2.236584 -0.663008 2.5 0 2.5 
z
" style="stroke: #e69f00"/>
    </defs>
    <g clip-path="url(#paee3e0f9f6)">
     <use xlink:href="#mcb902d1f05" x="237.555076" y="207.358149" style="fill: #e69f00; stroke: #e69f00"/>
    </g>
   </g>
   <g id="line2d_53">
    <defs>
     <path id="m3bb78a78c1" d="M 0 2.5 
C 0.663008 2.5 1.29895 2.236584 1.767767 1.767767 
C 2.236584 1.29895 2.5 0.663008 2.5 0 
C 2.5 -0.663008 2.236584 -1.29895 1.767767 -1.767767 
C 1.29895 -2.236584 0.663008 -2.5 0 -2.5 
C -0.663008 -2.5 -1.29895 -2.236584 -1.767767 -1.767767 
C -2.236584 -1.29895 -2.5 -0.663008 -2.5 0 
C -2.5 0.663008 -2.236584 1.29895 -1.767767 1.767767 
C -1.29895 2.236584 -0.663008 2.5 0 2.5 
z
" style="stroke: #009e73"/>
    </defs>
    <g clip-path="url(#paee3e0f9f6)">
     <use xlink:href="#m3bb78a78c1" x="126.013265" y="72.622714" style="fill: #009e73; stroke: #009e73"/>
    </g>
   </g>
   <g id="line2d_54">
    <defs>
     <path id="mfd12f19e24" d="M 0 2.5 
C 0.663008 2.5 1.29895 2.236584 1.767767 1.767767 
C 2.236584 1.29895 2.5 0.663008 2.5 0 
C 2.5 -0.663008 2.236584 -1.29895 1.767767 -1.767767 
C 1.29895 -2.236584 0.663008 -2.5 0 -2.5 
C -0.663008 -2.5 -1.29895 -2.236584 -1.767767 -1.767767 
C -2.236584 -1.29895 -2.5 -0.663008 -2.5 0 
C -2.5 0.663008 -2.236584 1.29895 -1.767767 1.767767 
C -1.29895 2.236584 -0.663008 2.5 0 2.5 
z
" style="stroke: #6f4c9b"/>
    </defs>
    <g clip-path="url(#paee3e0f9f6)">
     <use xlink:href="#mfd12f19e24" x="241.216719" y="193.891393" style="fill: #6f4c9b; stroke: #6f4c9b"/>
    </g>
   </g>
   <g id="line2d_55">
    <defs>
     <path id="m1841ebe417" d="M 0 3.5 
C 0.928211 3.5 1.81853 3.131218 2.474874 2.474874 
C 3.131218 1.81853 3.5 0.928211 3.5 0 
C 3.5 -0.928211 3.131218 -1.81853 2.474874 -2.474874 
C 1.81853 -3.131218 0.928211 -3.5 0 -3.5 
C -0.928211 -3.5 -1.81853 -3.131218 -2.474874 -2.474874 
C -3.131218 -1.81853 -3.5 -0.928211 -3.5 0 
C -3.5 0.928211 -3.131218 1.81853 -2.474874 2.474874 
C -1.81853 3.131218 -0.928211 3.5 0 3.5 
z
" style="stroke: #d55e00"/>
    </defs>
    <g clip-path="url(#paee3e0f9f6)">
     <use xlink:href="#m1841ebe417" x="160.964145" y="43.740477" style="fill: #d55e00; stroke: #d55e00"/>
    </g>
   </g>
   <g id="line2d_56">
    <defs>
     <path id="m4162fa5efe" d="M 0 2.5 
C 0.663008 2.5 1.29895 2.236584 1.767767 1.767767 
C 2.236584 1.29895 2.5 0.663008 2.5 0 
C 2.5 -0.663008 2.236584 -1.29895 1.767767 -1.767767 
C 1.29895 -2.236584 0.663008 -2.5 0 -2.5 
C -0.663008 -2.5 -1.29895 -2.236584 -1.767767 -1.767767 
C -2.236584 -1.29895 -2.5 -0.663008 -2.5 0 
C -2.5 0.663008 -2.236584 1.29895 -1.767767 1.767767 
C -1.29895 2.236584 -0.663008 2.5 0 2.5 
z
" style="stroke: #56b4e9"/>
    </defs>
    <g clip-path="url(#paee3e0f9f6)">
     <use xlink:href="#m4162fa5efe" x="172.143248" y="92.288319" style="fill: #56b4e9; stroke: #56b4e9"/>
    </g>
   </g>
   <g id="line2d_57">
    <defs>
     <path id="m657c8141a7" d="M 0 2.5 
C 0.663008 2.5 1.29895 2.236584 1.767767 1.767767 
C 2.236584 1.29895 2.5 0.663008 2.5 0 
C 2.5 -0.663008 2.236584 -1.29895 1.767767 -1.767767 
C 1.29895 -2.236584 0.663008 -2.5 0 -2.5 
C -0.663008 -2.5 -1.29895 -2.236584 -1.767767 -1.767767 
C -2.236584 -1.29895 -2.5 -0.663008 -2.5 0 
C -2.5 0.663008 -2.236584 1.29895 -1.767767 1.767767 
C -1.29895 2.236584 -0.663008 2.5 0 2.5 
z
" style="stroke: #777777"/>
    </defs>
    <g clip-path="url(#paee3e0f9f6)">
     <use xlink:href="#m657c8141a7" x="195.841372" y="128.327586" style="fill: #777777; stroke: #777777"/>
    </g>
   </g>
   <g id="patch_3">
    <path d="M 32.24875 260.466234 
L 32.24875 16.530234 
" style="fill: none; stroke: #000000; stroke-width: 0.8; stroke-linejoin: miter; stroke-linecap: square"/>
   </g>
   <g id="patch_4">
    <path d="M 32.24875 260.466234 
L 389.36875 260.466234 
" style="fill: none; stroke: #000000; stroke-width: 0.8; stroke-linejoin: miter; stroke-linecap: square"/>
   </g>
   <g id="text_14">
    <text style="font-size: 7.8px; font-family: 'Arial', 'DejaVu Sans', sans-serif; text-anchor: start" x="160.789891" y="81.941438" transform="rotate(-0 160.789891 81.941438)">GCN</text>
   </g>
   <g id="text_15">
    <text style="font-size: 7.8px; font-family: 'Arial', 'DejaVu Sans', sans-serif; text-anchor: start" x="250.238875" y="200.261962" transform="rotate(-0 250.238875 200.261962)">Weighted-GCN</text>
   </g>
   <g id="text_16">
    <text style="font-size: 7.8px; font-family: 'Arial', 'DejaVu Sans', sans-serif; text-anchor: start" x="138.697063" y="90.363181" transform="rotate(-0 138.697063 90.363181)">Edge-GAT</text>
   </g>
   <g id="text_17">
    <text style="font-size: 7.8px; font-family: 'Arial', 'DejaVu Sans', sans-serif; text-anchor: start" x="253.900518" y="186.795206" transform="rotate(-0 253.900518 186.795206)">TEG-low</text>
   </g>
   <g id="text_18">
    <text style="font-size: 7.8px; font-family: 'Arial', 'DejaVu Sans', sans-serif; text-anchor: start" x="173.647944" y="36.64429" transform="rotate(-0 173.647944 36.64429)">Stable-Tail GNN</text>
   </g>
   <g id="text_19">
    <text style="font-size: 7.8px; font-family: 'Arial', 'DejaVu Sans', sans-serif; text-anchor: start" x="184.827047" y="85.192132" transform="rotate(-0 184.827047 85.192132)">Fusion-rho0.25</text>
   </g>
   <g id="text_20">
    <text style="font-size: 7.8px; font-family: 'Arial', 'DejaVu Sans', sans-serif; text-anchor: start" x="208.525171" y="121.231399" transform="rotate(-0 208.525171 121.231399)">Ensemble-4</text>
   </g>
   <g id="text_21">
    <text style="font-size: 8px; font-family: 'Arial', 'DejaVu Sans', sans-serif; text-anchor: start; fill: #555555" x="39.39115" y="253.148154" transform="rotate(-0 39.39115 253.148154)">Preferred direction</text>
   </g>
   <g id="patch_5">
    <path d="M 130.502959 239.961258 
Q 110.814983 228.754459 92.098655 218.100743 
" style="fill: none; stroke: #555555; stroke-linecap: round"/>
    <path d="M 94.336857 221.445956 
L 92.098655 218.100743 
L 96.117747 218.317309 
" style="fill: none; stroke: #555555; stroke-linecap: round"/>
   </g>
   <g id="text_22">
    <text style="font-size: 10.5px; font-family: 'Arial', 'DejaVu Sans', sans-serif; text-anchor: start" x="32.24875" y="10.530234" transform="rotate(-0 32.24875 10.530234)">OD path safety-efficiency trade-off (fixed 150 OD pairs)</text>
   </g>
  </g>
 </g>
 <defs>
  <clipPath id="paee3e0f9f6">
   <rect x="32.24875" y="16.530234" width="357.12" height="243.936"/>
  </clipPath>
 </defs>
</svg>
